{"glyphs":{"0":{"ha":1206,"x_min":0,"x_max":0,"o":"m 603 -15 b 1011 131 767 -15 903 34 b 1174 499 1119 229 1174 351 b 1011 866 1174 646 1119 768 b 603 1013 903 964 767 1013 b 194 867 439 1013 303 964 b 32 499 86 769 32 647 b 194 131 32 350 86 228 b 603 -15 303 33 439 -15 z m 603 833 b 864 741 710 833 797 803 b 964 499 931 679 964 599 b 864 256 964 399 931 318 b 603 164 797 195 710 164 b 340 256 494 164 407 195 b 239 499 272 318 239 399 b 340 741 239 599 272 679 b 603 833 407 803 494 833 z "},"1":{"ha":644,"x_min":0,"x_max":0,"o":"m 401 1003 b 347 876 396 944 378 902 b 203 832 317 850 269 836 l 10 824 l 10 668 l 353 668 l 353 0 l 557 0 l 557 1003 z "},"2":{"ha":1040,"x_min":0,"x_max":0,"o":"m 40 0 l 1014 0 l 1014 176 l 397 176 l 664 319 b 919 497 787 383 872 442 b 990 681 967 551 990 612 b 868 920 990 779 950 859 b 553 1013 787 982 681 1013 b 199 908 411 1013 293 978 b 24 631 104 839 46 746 l 210 583 b 322 769 224 661 261 723 b 543 839 382 816 456 839 b 719 793 615 839 674 824 b 786 672 764 763 786 722 b 763 592 786 643 778 616 b 686 519 748 568 722 544 b 648 494 675 511 662 503 b 518 422 634 486 590 462 l 40 163 z "},"3":{"ha":1083,"x_min":0,"x_max":0,"o":"m 1060 286 b 1007 433 1060 345 1042 394 b 851 517 972 472 920 500 b 981 596 906 531 949 558 b 1029 729 1013 634 1029 678 b 902 934 1029 813 987 882 b 565 1013 817 986 705 1013 b 228 933 435 1013 322 986 b 39 721 133 879 70 809 l 219 653 b 342 789 240 709 281 755 b 557 840 403 823 475 840 b 744 806 636 840 698 829 b 814 714 791 784 814 753 b 751 625 814 675 793 645 b 569 594 710 605 649 594 l 390 594 l 390 428 l 574 428 b 776 395 662 428 729 417 b 846 301 822 373 846 342 b 764 195 846 257 819 222 b 549 156 709 169 638 156 b 322 213 463 156 387 175 b 190 361 256 250 213 300 l 6 282 b 197 65 36 191 100 119 b 549 -15 294 12 412 -15 b 917 71 699 -15 821 13 b 1060 286 1012 128 1060 200 z "},"4":{"ha":1143,"x_min":0,"x_max":0,"o":"m 871 239 l 1129 239 l 1129 406 l 871 406 l 871 997 l 606 997 l 14 397 l 14 239 l 675 239 l 675 0 l 871 0 z m 675 831 l 675 406 l 251 406 z "},"5":{"ha":1069,"x_min":0,"x_max":0,"o":"m 532 513 b 758 464 626 513 702 496 b 843 333 815 431 843 388 b 760 203 843 279 815 235 b 540 156 704 172 631 156 b 314 208 450 156 374 173 b 183 360 254 242 210 293 l 0 282 b 188 65 28 190 90 118 b 539 -15 285 11 402 -15 b 906 83 688 -15 810 17 b 1049 336 1001 148 1049 232 b 916 583 1049 438 1004 520 b 571 678 828 646 713 678 b 403 658 513 678 456 671 b 261 604 349 645 302 627 l 290 821 l 968 821 l 968 997 l 136 997 l 71 461 l 229 418 b 367 488 270 449 316 472 b 532 513 418 504 473 513 z "},"6":{"ha":1138,"x_min":0,"x_max":0,"o":"m 615 1013 b 191 866 438 1013 297 964 b 32 479 85 768 32 639 b 180 118 32 327 81 207 b 588 -15 278 29 414 -15 b 965 83 741 -15 867 18 b 1111 338 1062 149 1111 234 b 973 580 1111 436 1065 516 b 617 675 881 643 762 675 b 388 640 532 675 456 663 b 224 540 319 616 264 583 b 335 757 225 627 263 700 b 608 843 407 814 498 843 b 822 798 688 843 759 828 b 961 675 885 768 931 727 l 1104 800 b 910 956 1062 866 997 918 b 615 1013 823 994 725 1013 z m 582 153 b 347 202 485 153 406 169 b 258 332 288 235 258 278 b 349 462 258 386 288 429 b 585 511 409 495 488 511 b 818 461 680 511 758 494 b 908 332 878 428 908 385 b 817 202 908 278 878 235 b 582 153 757 169 678 153 z "},"7":{"ha":1026,"x_min":0,"x_max":0,"o":"m 794 824 b 514 443 669 707 576 580 b 421 0 452 306 421 158 l 629 0 b 720 434 629 160 659 305 b 1013 815 781 563 878 690 l 1013 997 l 14 997 l 14 628 l 189 628 l 189 824 z "},"8":{"ha":1125,"x_min":0,"x_max":0,"o":"m 89 732 b 133 611 89 686 103 645 b 269 519 162 577 207 546 b 85 427 189 499 127 468 b 21 278 42 386 21 336 b 169 63 21 187 70 116 b 563 -15 267 11 399 -15 b 956 63 726 -15 858 11 b 1104 278 1055 116 1104 187 b 1040 427 1104 336 1083 386 b 856 519 998 468 936 499 b 992 610 918 545 963 576 b 1035 732 1020 645 1035 686 b 904 937 1035 818 991 886 b 563 1013 817 987 703 1013 b 219 936 421 1013 306 987 b 89 732 132 885 89 817 z m 290 725 b 363 818 290 765 314 796 b 563 851 411 840 477 851 b 763 818 648 851 714 840 b 835 725 811 796 835 765 b 763 631 835 684 811 653 b 563 597 716 608 649 597 b 362 631 476 597 409 608 b 290 725 314 653 290 684 z m 899 294 b 810 186 899 248 869 212 b 563 147 750 160 668 147 b 315 185 457 147 375 160 b 226 294 256 211 226 247 b 316 400 226 340 256 375 b 563 438 376 425 458 438 b 809 400 667 438 749 425 b 899 294 869 375 899 340 z "},"9":{"ha":1138,"x_min":0,"x_max":0,"o":"m 522 -15 b 947 131 699 -15 841 34 b 1106 518 1053 229 1106 358 b 958 879 1106 670 1056 790 b 550 1013 859 968 723 1013 b 173 914 396 1013 271 980 b 26 660 75 848 26 763 b 165 417 26 562 72 481 b 521 322 257 354 375 322 b 750 358 605 322 681 334 b 914 457 819 381 873 414 b 803 240 912 370 875 298 b 529 154 731 183 639 154 b 315 199 450 154 378 169 b 176 322 252 229 206 270 l 33 197 b 228 42 76 131 141 80 b 522 -15 315 4 413 -15 z m 556 844 b 790 795 653 844 731 828 b 879 665 850 762 879 719 b 789 535 879 612 849 568 b 553 486 729 503 650 486 b 319 536 457 486 380 503 b 229 665 259 569 229 613 b 320 795 229 719 259 762 b 556 844 381 828 459 844 z "},"\r":{"ha":372,"x_min":0,"x_max":0,"o":""}," ":{"ha":372,"x_min":0,"x_max":0,"o":""},"!":{"ha":425,"x_min":0,"x_max":0,"o":"m 286 310 l 336 997 l 88 997 l 138 310 z m 328 0 l 328 221 l 97 221 l 97 0 z "},"\"":{"ha":547,"x_min":0,"x_max":0,"o":"m 206 585 l 251 997 l 26 997 l 71 585 z m 475 585 l 521 997 l 296 997 l 340 585 z "},"#":{"ha":1042,"x_min":0,"x_max":0,"o":"m 292 0 l 356 257 l 588 257 l 524 0 l 696 0 l 760 257 l 964 257 l 964 404 l 796 404 l 842 593 l 1004 593 l 1004 740 l 878 740 l 942 997 l 772 997 l 708 740 l 476 740 l 540 997 l 371 997 l 307 740 l 79 740 l 79 593 l 269 593 l 224 404 l 38 404 l 38 257 l 186 257 l 122 0 z m 439 593 l 671 593 l 625 404 l 393 404 z "},"$":{"ha":1118,"x_min":0,"x_max":0,"o":"m -14 228 b 187 78 30 169 97 119 b 486 3 277 37 377 12 l 486 -144 l 651 -144 l 651 3 b 978 98 793 12 902 44 b 1093 315 1055 152 1093 225 b 1001 497 1093 396 1063 456 b 651 586 940 538 824 568 l 651 821 b 818 768 714 811 770 793 b 933 676 866 743 905 713 l 1071 803 b 902 926 1032 852 976 893 b 651 992 828 960 745 981 l 651 1139 l 486 1139 l 486 996 b 171 903 354 988 249 958 b 54 694 93 849 54 780 b 144 516 54 616 84 556 b 486 429 205 476 319 447 l 486 172 b 280 236 411 182 342 204 b 125 361 217 269 166 310 z m 249 710 b 308 797 249 748 268 777 b 486 831 347 816 406 828 l 486 603 b 297 640 392 614 328 626 b 249 710 265 654 249 677 z m 893 297 b 831 210 893 261 872 232 b 651 169 789 188 729 174 l 651 411 b 848 374 752 401 818 388 b 893 297 878 359 893 333 z "},"%":{"ha":1350,"x_min":0,"x_max":0,"o":"m 324 486 b 531 561 407 486 476 511 b 613 750 585 611 613 674 b 531 938 613 826 585 889 b 324 1013 476 988 407 1013 b 116 938 240 1013 171 988 b 33 750 61 889 33 826 b 116 561 33 674 61 611 b 324 486 171 511 240 486 z m 983 997 l 193 0 l 368 0 l 1158 997 z m 324 882 b 420 846 363 882 396 870 b 457 750 445 822 457 790 b 420 654 457 710 445 678 b 324 618 396 630 363 618 b 226 654 283 618 250 630 b 189 750 201 678 189 710 b 226 846 189 790 201 822 b 324 882 251 870 284 882 z m 1028 511 b 820 436 944 511 875 486 b 738 247 765 386 738 323 b 820 59 738 171 765 109 b 1028 -15 875 9 944 -15 b 1235 59 1111 -15 1180 9 b 1317 247 1289 109 1317 171 b 1235 436 1317 323 1289 386 b 1028 511 1180 486 1111 511 z m 1028 379 b 1124 343 1068 379 1100 367 b 1161 247 1149 319 1161 287 b 1124 151 1161 207 1149 175 b 1028 115 1100 127 1068 115 b 931 151 988 115 956 127 b 894 247 907 175 894 207 b 931 343 894 287 907 319 b 1028 379 956 367 988 379 z "},"&":{"ha":1242,"x_min":0,"x_max":0,"o":"m 994 558 b 942 426 982 512 965 468 b 857 313 919 385 890 347 l 635 485 b 821 589 713 507 775 542 b 889 753 866 636 889 691 b 798 941 889 831 859 893 b 550 1013 737 989 655 1013 b 301 935 447 1013 364 987 b 206 738 237 884 206 818 b 222 648 206 706 211 676 b 271 564 232 620 249 592 b 88 458 193 543 132 507 b 22 286 44 409 22 352 b 140 67 22 194 62 121 b 458 -15 219 12 325 -15 b 667 13 530 -15 599 -6 b 858 93 734 31 798 58 b 1037 10 919 52 978 25 b 1225 1 1096 -4 1158 -7 l 1225 167 b 1103 169 1176 162 1135 163 b 1004 207 1072 175 1038 188 b 1115 351 1048 250 1084 299 b 1182 518 1145 404 1167 460 z m 549 865 b 664 833 598 865 636 855 b 706 747 692 812 706 783 b 651 647 706 706 687 672 b 488 599 614 622 560 606 b 415 674 453 626 429 652 b 393 749 400 697 393 722 b 436 832 393 782 407 810 b 549 865 465 854 502 865 z m 222 307 b 269 403 222 346 238 378 b 399 450 300 428 343 444 l 708 206 b 596 165 672 188 635 175 b 478 151 557 156 518 151 b 292 194 400 151 338 166 b 222 307 245 222 222 260 z "},"'":{"ha":276,"x_min":0,"x_max":0,"o":"m 206 585 l 251 997 l 26 997 l 71 585 z "},"(":{"ha":544,"x_min":0,"x_max":0,"o":"m 231 444 b 310 755 231 555 257 658 b 544 1025 363 852 441 942 l 342 1025 b 110 776 243 961 165 878 b 26 444 54 673 26 563 b 110 113 26 326 54 216 b 342 -136 165 11 243 -72 l 544 -136 b 310 133 441 -54 363 36 b 231 444 257 231 231 334 z "},")":{"ha":544,"x_min":0,"x_max":0,"o":"m 314 444 b 235 133 314 334 288 231 b 0 -136 182 36 104 -54 l 203 -136 b 435 113 302 -72 379 11 b 518 444 490 216 518 326 b 435 776 518 563 490 673 b 203 1025 379 878 302 961 l 0 1025 b 235 755 104 942 182 852 b 314 444 288 658 314 555 z "},"*":{"ha":629,"x_min":0,"x_max":0,"o":"m 542 532 l 422 696 l 615 757 l 575 885 l 382 824 l 382 1025 l 247 1025 l 247 824 l 56 885 l 14 757 l 206 696 l 88 532 l 196 453 l 315 615 l 433 453 z "},"+":{"ha":1111,"x_min":0,"x_max":0,"o":"m 1028 575 l 638 575 l 638 964 l 472 964 l 472 575 l 83 575 l 83 408 l 472 408 l 472 19 l 638 19 l 638 408 l 1028 408 z "},",":{"ha":333,"x_min":0,"x_max":0,"o":"m 149 0 l 149 -10 b 125 -76 149 -38 141 -60 b 53 -101 109 -91 85 -100 l 53 -204 b 219 -148 123 -204 179 -185 b 281 4 260 -110 281 -60 l 281 225 l 53 225 l 53 0 z "},"-":{"ha":511,"x_min":0,"x_max":0,"o":"m 456 319 l 456 493 l 56 493 l 56 319 z "},".":{"ha":333,"x_min":0,"x_max":0,"o":"m 281 0 l 281 225 l 53 225 l 53 0 z "},"/":{"ha":778,"x_min":0,"x_max":0,"o":"m 224 -136 l 761 1025 l 554 1025 l 17 -136 z "},":":{"ha":333,"x_min":0,"x_max":0,"o":"m 281 0 l 281 225 l 53 225 l 53 0 z m 281 471 l 281 696 l 53 696 l 53 471 z "},";":{"ha":333,"x_min":0,"x_max":0,"o":"m 149 0 l 149 -10 b 125 -76 149 -38 141 -60 b 53 -101 109 -91 85 -100 l 53 -204 b 219 -148 123 -204 179 -185 b 281 4 260 -110 281 -60 l 281 225 l 53 225 l 53 0 z m 281 471 l 281 696 l 53 696 l 53 471 z "},"<":{"ha":1111,"x_min":0,"x_max":0,"o":"m 1029 26 l 1029 231 l 244 493 l 1029 756 l 1029 960 l 82 622 l 82 365 z "},"=":{"ha":1111,"x_min":0,"x_max":0,"o":"m 1028 590 l 1028 757 l 83 757 l 83 590 z m 1028 218 l 1028 385 l 83 385 l 83 218 z "},">":{"ha":1111,"x_min":0,"x_max":0,"o":"m 1029 622 l 82 960 l 82 756 l 867 493 l 82 231 l 82 26 l 1029 365 z "},"?":{"ha":982,"x_min":0,"x_max":0,"o":"m 751 690 b 669 581 751 640 724 604 b 406 546 614 557 526 546 l 406 310 l 603 310 l 603 408 b 871 508 717 423 806 456 b 968 701 936 559 968 624 b 843 928 968 796 926 871 b 510 1013 760 984 649 1013 b 165 926 371 1013 256 984 b 3 696 73 868 19 791 l 210 665 b 302 792 219 718 250 760 b 499 839 354 823 420 839 b 688 801 582 839 645 826 b 751 690 730 776 751 739 z m 626 0 l 626 221 l 397 221 l 397 0 z "},"@":{"ha":1475,"x_min":0,"x_max":0,"o":"m 1113 632 l 939 632 l 925 567 b 835 624 902 592 872 611 b 714 644 799 638 758 644 b 463 549 613 644 529 613 b 363 315 396 486 363 408 b 441 131 363 238 389 177 b 653 61 493 84 564 61 b 785 82 700 61 744 68 b 881 140 827 96 858 115 b 958 81 898 115 924 96 b 1072 60 991 67 1030 60 b 1339 163 1181 59 1269 93 b 1443 438 1408 232 1443 324 b 1263 791 1443 585 1383 703 b 789 924 1143 879 985 924 b 506 886 687 924 593 911 b 274 778 419 861 341 825 b 94 575 196 722 136 655 b 32 315 53 495 32 409 b 224 -86 32 145 96 11 b 746 -232 351 -183 525 -232 b 1053 -198 854 -232 956 -221 b 1299 -103 1149 -175 1231 -144 l 1226 19 b 1010 -58 1167 -13 1095 -39 b 747 -86 925 -77 837 -86 b 340 19 572 -86 436 -51 b 194 315 243 90 194 188 b 357 652 194 454 249 566 b 789 781 465 738 609 781 b 1155 688 944 781 1066 750 b 1289 431 1244 625 1289 540 b 1236 263 1289 362 1271 306 b 1106 197 1201 219 1157 197 b 1050 217 1079 197 1060 204 b 1043 279 1040 231 1038 251 z m 556 331 b 608 451 556 378 573 418 b 740 500 644 484 688 500 b 845 467 785 500 820 489 b 883 375 871 444 883 414 b 831 255 883 328 866 288 b 699 206 795 222 751 206 b 594 239 654 206 619 217 b 556 331 568 261 556 292 z "},"A":{"ha":1217,"x_min":0,"x_max":0,"o":"m -10 0 l 208 0 l 325 232 l 889 232 l 1004 0 l 1225 0 l 722 997 l 493 997 z m 801 406 l 411 406 l 607 796 z "},"B":{"ha":1132,"x_min":0,"x_max":0,"o":"m 765 0 b 1017 74 872 0 956 25 b 1110 279 1079 124 1110 192 b 1063 427 1110 336 1094 385 b 933 518 1031 469 988 500 b 1041 603 980 538 1016 566 b 1079 732 1066 640 1079 683 b 992 928 1079 817 1050 883 b 742 997 933 974 850 997 l 88 997 l 88 0 z m 283 828 l 721 828 b 843 797 774 828 814 818 b 886 710 872 777 886 748 b 844 622 886 672 872 643 b 721 592 816 602 775 592 l 283 592 z m 751 426 b 869 392 800 426 840 415 b 913 299 898 369 913 338 b 869 206 913 260 898 229 b 751 171 841 182 801 171 l 283 171 l 283 426 z "},"C":{"ha":1160,"x_min":0,"x_max":0,"o":"m 622 833 b 840 776 707 833 780 814 b 974 610 899 737 944 682 l 1150 699 b 953 930 1111 798 1045 875 b 621 1013 860 985 750 1013 b 199 866 451 1013 311 964 b 32 499 88 768 32 646 b 199 131 32 351 88 229 b 621 -15 311 34 451 -15 b 953 67 750 -15 860 12 b 1150 299 1045 122 1111 200 l 974 388 b 840 222 944 315 899 260 b 622 164 780 183 707 164 b 348 258 511 164 420 195 b 240 499 276 320 240 400 b 348 740 240 597 276 677 b 622 833 420 802 511 833 z "},"D":{"ha":1199,"x_min":0,"x_max":0,"o":"m 597 0 b 1014 135 772 0 911 45 b 1168 499 1117 225 1168 346 b 1014 863 1168 651 1117 773 b 597 997 911 952 772 997 l 88 997 l 88 0 z m 288 822 l 597 822 b 863 735 709 822 798 793 b 960 499 927 678 960 599 b 863 262 960 399 927 320 b 597 175 798 204 709 175 l 288 175 z "},"E":{"ha":1096,"x_min":0,"x_max":0,"o":"m 88 0 l 1053 0 l 1053 176 l 289 176 l 289 424 l 974 424 l 974 599 l 289 599 l 289 821 l 1053 821 l 1053 997 l 88 997 z "},"F":{"ha":1069,"x_min":0,"x_max":0,"o":"m 289 396 l 958 396 l 958 572 l 289 572 l 289 821 l 1038 821 l 1038 997 l 88 997 l 88 0 l 289 0 z "},"G":{"ha":1246,"x_min":0,"x_max":0,"o":"m 1182 0 l 1182 546 l 543 546 l 543 374 l 992 374 b 876 223 985 313 947 263 b 626 163 805 183 722 163 b 349 256 513 163 421 194 b 242 499 278 319 242 400 b 351 740 242 598 278 678 b 632 833 423 802 517 833 b 852 778 718 833 791 815 b 988 618 913 741 958 688 l 1167 704 b 968 931 1128 801 1062 877 b 633 1013 875 985 763 1013 b 202 868 459 1013 316 964 b 32 501 89 772 32 650 b 199 131 32 351 88 228 b 625 -15 311 33 453 -15 b 844 22 704 -15 777 -3 b 990 117 911 46 960 78 l 990 0 z "},"H":{"ha":1224,"x_min":0,"x_max":0,"o":"m 932 600 l 292 600 l 292 997 l 88 997 l 88 0 l 292 0 l 292 424 l 932 424 l 932 0 l 1138 0 l 1138 997 l 932 997 z "},"I":{"ha":378,"x_min":0,"x_max":0,"o":"m 88 997 l 88 0 l 292 0 l 292 997 z "},"J":{"ha":996,"x_min":0,"x_max":0,"o":"m 471 -15 b 808 94 611 -15 723 21 b 936 381 894 166 936 262 l 936 997 l 732 997 l 732 390 b 664 223 732 318 709 262 b 472 164 619 184 555 164 b 290 224 403 164 342 184 b 186 381 237 265 203 317 l 0 275 b 174 65 30 189 88 119 b 471 -15 261 12 360 -15 z "},"K":{"ha":1151,"x_min":0,"x_max":0,"o":"m 88 997 l 88 0 l 292 0 l 292 294 l 479 450 l 901 0 l 1171 0 l 629 575 l 1139 997 l 851 997 l 292 519 l 292 997 z "},"L":{"ha":1022,"x_min":0,"x_max":0,"o":"m 993 0 l 993 176 l 292 176 l 292 997 l 88 997 l 88 0 z "},"M":{"ha":1463,"x_min":0,"x_max":0,"o":"m 1175 803 l 1175 0 l 1375 0 l 1375 997 l 1068 997 l 733 250 l 399 997 l 88 997 l 88 0 l 286 0 l 286 803 l 649 0 l 814 0 z "},"N":{"ha":1203,"x_min":0,"x_max":0,"o":"m 918 997 l 918 293 l 296 997 l 88 997 l 88 0 l 285 0 l 285 738 l 936 0 l 1117 0 l 1117 997 z "},"O":{"ha":1242,"x_min":0,"x_max":0,"o":"m 32 499 b 199 131 32 350 88 228 b 621 -15 310 33 450 -15 b 1042 131 790 -15 931 33 b 1210 499 1154 228 1210 350 b 1042 867 1210 647 1154 769 b 621 1013 931 964 790 1013 b 199 867 450 1013 310 964 b 32 499 88 769 32 647 z m 1000 499 b 895 256 1000 399 965 318 b 621 164 825 195 734 164 b 347 256 508 164 416 195 b 242 499 277 318 242 399 b 347 741 242 599 277 679 b 621 833 416 803 508 833 b 895 741 734 833 825 803 b 1000 499 965 679 1000 599 z "},"P":{"ha":1113,"x_min":0,"x_max":0,"o":"m 711 367 b 989 450 830 367 922 394 b 1089 682 1056 506 1089 583 b 989 915 1089 782 1056 859 b 711 997 922 970 830 997 l 88 997 l 88 0 l 292 0 l 292 367 z m 292 824 l 700 824 b 838 786 759 824 805 811 b 888 682 871 761 888 726 b 838 578 888 638 871 603 b 700 540 805 553 759 540 l 292 540 z "},"Q":{"ha":1242,"x_min":0,"x_max":0,"o":"m 621 -15 b 728 -8 657 -15 693 -13 b 832 15 764 -3 799 5 b 936 -81 857 -20 892 -52 b 1075 -143 981 -109 1027 -130 l 1188 4 b 1082 42 1148 13 1113 26 b 1006 101 1051 59 1026 78 b 1157 276 1071 149 1122 207 b 1210 499 1192 345 1210 419 b 1042 867 1210 647 1154 769 b 621 1013 931 964 790 1013 b 199 867 450 1013 310 964 b 32 499 88 769 32 647 b 199 131 32 350 88 228 b 621 -15 310 33 450 -15 z m 621 164 b 347 256 508 164 416 195 b 242 499 277 318 242 399 b 347 741 242 599 277 679 b 621 833 416 803 508 833 b 895 741 734 833 825 803 b 1000 499 965 679 1000 599 b 895 256 1000 399 965 318 b 621 164 825 195 734 164 z "},"R":{"ha":1122,"x_min":0,"x_max":0,"o":"m 647 371 l 882 0 l 1117 0 l 863 390 b 1033 497 936 411 992 446 b 1093 683 1073 547 1093 609 b 992 915 1093 782 1059 859 b 714 997 925 970 832 997 l 88 997 l 88 0 l 292 0 l 292 371 z m 292 824 l 703 824 b 842 787 763 824 809 811 b 890 682 874 762 890 727 b 841 578 890 638 874 603 b 703 542 808 554 762 542 l 292 542 z "},"S":{"ha":1078,"x_min":0,"x_max":0,"o":"m 554 -15 b 919 72 707 -15 828 14 b 1054 313 1009 131 1054 211 b 1012 453 1054 369 1040 416 b 878 540 984 490 939 519 b 760 571 845 552 806 563 b 571 597 715 579 651 588 b 308 643 433 613 345 628 b 251 715 270 658 251 682 b 320 806 251 753 274 783 b 510 839 366 828 429 839 b 738 798 594 839 670 825 b 897 683 806 771 859 732 l 1033 814 b 826 958 988 874 919 922 b 521 1013 733 994 631 1013 b 181 925 380 1013 267 983 b 53 694 96 867 53 790 b 145 514 53 616 84 556 b 485 424 207 472 320 442 b 626 408 553 416 600 411 b 693 399 652 404 675 401 b 815 360 752 388 793 376 b 847 290 836 345 847 322 b 769 195 847 250 821 219 b 563 160 716 172 648 160 b 308 211 470 160 385 177 b 121 360 231 245 169 295 l -17 217 b 214 49 31 148 108 92 b 554 -15 319 6 433 -15 z "},"T":{"ha":1136,"x_min":0,"x_max":0,"o":"m 1111 997 l 25 997 l 25 821 l 465 821 l 465 0 l 671 0 l 671 821 l 1111 821 z "},"U":{"ha":1144,"x_min":0,"x_max":0,"o":"m 572 -14 b 952 113 737 -14 864 28 b 1085 471 1041 197 1085 316 l 1085 997 l 879 997 l 879 482 b 802 244 879 376 853 297 b 572 165 751 192 674 165 b 341 244 469 165 392 192 b 264 482 290 297 264 376 l 264 997 l 60 997 l 60 471 b 192 113 60 316 104 197 b 572 -14 281 28 407 -14 z "},"V":{"ha":1224,"x_min":0,"x_max":0,"o":"m 1232 997 l 1014 997 l 614 201 l 213 997 l -10 997 l 494 0 l 728 0 z "},"W":{"ha":1642,"x_min":0,"x_max":0,"o":"m 467 225 l 204 997 l -10 997 l 339 0 l 575 0 l 821 763 l 1064 0 l 1301 0 l 1650 997 l 1440 997 l 1178 225 l 929 997 l 717 997 z "},"X":{"ha":1181,"x_min":0,"x_max":0,"o":"m 906 997 l 592 653 l 279 997 l 24 997 l 463 518 l -14 0 l 236 0 l 589 385 l 938 0 l 1194 0 l 717 519 l 1156 997 z "},"Y":{"ha":1178,"x_min":0,"x_max":0,"o":"m 235 997 l -14 997 l 488 424 l 488 0 l 692 0 l 692 424 l 1192 997 l 949 997 l 592 589 z "},"Z":{"ha":1104,"x_min":0,"x_max":0,"o":"m 340 176 l 1046 842 l 1046 997 l 56 997 l 56 821 l 754 821 l 50 156 l 50 0 l 1051 0 l 1051 176 z "},"[":{"ha":506,"x_min":0,"x_max":0,"o":"m 492 872 l 492 1025 l 56 1025 l 56 -136 l 492 -136 l 492 15 l 243 15 l 243 872 z "},"\\":{"ha":778,"x_min":0,"x_max":0,"o":"m 554 -136 l 17 1025 l 224 1025 l 761 -136 z "},"]":{"ha":506,"x_min":0,"x_max":0,"o":"m 263 15 l 14 15 l 14 -136 l 450 -136 l 450 1025 l 14 1025 l 14 872 l 263 872 z "},"^":{"ha":811,"x_min":0,"x_max":0,"o":"m 19 567 l 221 567 l 406 842 l 589 567 l 792 567 l 499 997 l 313 997 z "},"_":{"ha":633,"x_min":0,"x_max":0,"o":"m 575 -231 l 575 -72 l 58 -72 l 58 -231 z "},"`":{"ha":833,"x_min":0,"x_max":0,"o":"m 450 997 l 200 997 l 431 796 l 594 796 z "},"a":{"ha":921,"x_min":0,"x_max":0,"o":"m 644 90 b 740 3 663 48 695 19 b 826 -10 765 -6 794 -10 b 914 0 853 -10 882 -6 l 914 146 b 863 139 894 141 876 139 b 836 142 851 138 843 139 b 813 186 820 148 813 163 l 813 474 b 719 674 813 561 781 628 b 450 744 656 721 567 744 b 199 686 356 744 272 725 b 56 533 125 647 78 596 l 224 476 b 304 556 237 509 263 535 b 443 588 345 577 391 588 b 577 558 500 588 545 578 b 625 476 609 538 625 511 l 625 471 l 321 439 b 106 366 228 430 157 405 b 31 211 56 327 31 275 b 115 46 31 142 59 87 b 338 -15 171 5 245 -15 b 511 13 400 -15 457 -6 b 644 90 565 31 609 57 z m 364 133 b 257 155 318 133 282 141 b 219 217 232 169 219 190 b 249 274 219 242 229 261 b 350 301 269 287 303 296 l 625 332 l 625 282 b 547 176 625 239 599 204 b 364 133 495 147 434 133 z "},"b":{"ha":974,"x_min":0,"x_max":0,"o":"m 940 365 b 831 638 940 475 904 566 b 543 744 757 709 662 744 b 385 717 486 744 433 735 b 269 642 337 698 298 673 l 269 997 l 75 997 l 75 0 l 269 0 l 269 88 b 385 13 298 56 337 31 b 543 -15 433 -6 486 -15 b 831 92 662 -15 757 20 b 940 365 904 163 940 254 z m 508 586 b 685 525 580 586 638 566 b 754 365 731 484 754 431 b 685 204 754 299 731 245 b 508 143 638 163 580 143 b 333 206 439 143 380 164 b 261 360 285 247 261 299 l 261 369 b 332 524 261 431 285 483 b 508 586 379 566 438 586 z "},"c":{"ha":858,"x_min":0,"x_max":0,"o":"m 464 583 b 603 541 516 583 562 569 b 688 432 645 513 673 476 l 850 511 b 707 679 825 580 777 636 b 465 744 637 723 556 744 b 154 638 339 744 236 709 b 32 365 73 567 32 476 b 154 92 32 254 73 163 b 465 -15 236 20 339 -15 b 706 49 556 -15 636 6 b 849 215 776 92 824 148 l 688 297 b 603 188 673 253 645 216 b 464 146 562 160 516 146 b 288 206 392 146 333 166 b 221 365 243 247 221 300 b 288 524 221 431 243 484 b 464 583 333 563 392 583 z "},"d":{"ha":974,"x_min":0,"x_max":0,"o":"m 431 -15 b 589 13 488 -15 541 -6 b 704 88 637 31 675 56 l 704 0 l 899 0 l 899 997 l 704 997 l 704 642 b 589 717 675 673 637 698 b 431 744 541 735 488 744 b 143 638 312 744 216 709 b 33 365 70 566 33 475 b 143 92 33 254 70 163 b 431 -15 216 20 312 -15 z m 713 360 b 641 206 713 299 689 247 b 465 143 593 164 535 143 b 289 204 394 143 335 163 b 219 365 243 245 219 299 b 289 525 219 431 243 484 b 465 586 335 566 394 586 b 642 524 536 586 594 566 b 713 369 689 483 713 431 z "},"e":{"ha":899,"x_min":0,"x_max":0,"o":"m 464 -15 b 708 47 555 -15 636 5 b 854 206 779 88 828 141 l 689 276 b 603 178 672 235 644 202 b 464 143 563 155 517 143 b 303 188 400 143 346 158 b 219 311 259 218 231 259 l 867 311 l 867 372 b 756 640 867 481 830 571 b 463 744 681 710 584 744 b 153 637 338 744 234 709 b 32 365 72 565 32 475 b 153 91 32 253 72 162 b 464 -15 233 20 337 -15 z m 456 589 b 603 546 512 589 561 575 b 675 443 644 517 669 483 l 226 443 b 310 550 241 488 269 524 b 456 589 350 576 399 589 z "},"f":{"ha":657,"x_min":0,"x_max":0,"o":"m 504 1013 b 257 944 396 1013 313 990 b 172 743 200 898 172 831 l 172 731 l -3 731 l -3 568 l 172 568 l 172 0 l 364 0 l 364 568 l 642 568 l 642 731 l 363 731 l 363 738 b 398 820 363 775 374 803 b 511 846 422 837 459 846 b 581 842 537 846 560 844 b 650 828 602 839 625 834 l 679 988 b 601 1006 659 995 633 1001 b 504 1013 569 1010 537 1013 z "},"g":{"ha":967,"x_min":0,"x_max":0,"o":"m 892 731 l 697 731 l 697 646 b 580 719 666 677 627 702 b 425 744 533 736 481 744 b 138 641 307 744 212 710 b 28 379 65 572 28 485 b 138 115 28 272 64 184 b 425 11 211 46 306 11 b 580 38 481 11 533 20 b 697 113 627 55 666 80 l 697 85 b 626 -57 697 25 673 -22 b 440 -110 578 -92 516 -110 b 282 -74 380 -110 327 -98 b 186 24 237 -51 205 -18 l 32 -71 b 185 -212 62 -131 113 -178 b 443 -262 258 -246 344 -262 b 767 -162 576 -262 684 -229 b 892 103 850 -95 892 -6 z m 707 376 b 637 226 707 315 684 265 b 460 168 590 188 531 168 b 285 226 389 168 331 188 b 217 379 240 265 217 316 b 285 531 217 441 240 492 b 460 589 331 569 389 589 b 636 531 530 589 589 569 b 707 382 683 492 707 442 z "},"h":{"ha":924,"x_min":0,"x_max":0,"o":"m 269 0 l 269 358 b 323 514 269 425 287 477 b 472 569 359 551 408 569 b 610 515 531 569 578 551 b 660 361 643 478 660 427 l 660 0 l 854 0 l 854 407 b 768 653 854 510 825 592 b 536 744 711 714 633 744 b 383 717 481 744 430 735 b 269 639 337 698 299 672 l 269 997 l 75 997 l 75 0 z "},"i":{"ha":343,"x_min":0,"x_max":0,"o":"m 271 817 l 271 997 l 72 997 l 72 817 z m 75 731 l 75 0 l 269 0 l 269 731 z "},"j":{"ha":343,"x_min":0,"x_max":0,"o":"m 271 817 l 271 997 l 72 997 l 72 817 z m -54 -101 b -108 -97 -74 -101 -91 -100 b -168 -83 -124 -94 -144 -90 l -197 -235 b -123 -253 -178 -242 -153 -248 b -40 -260 -93 -257 -65 -260 b 191 -187 62 -260 139 -236 b 269 25 243 -139 269 -69 l 269 731 l 75 731 l 75 21 b 45 -72 75 -22 65 -53 b -54 -101 25 -92 -8 -101 z "},"k":{"ha":924,"x_min":0,"x_max":0,"o":"m 75 997 l 75 0 l 269 0 l 269 179 l 415 300 l 699 0 l 943 0 l 554 417 l 932 731 l 664 731 l 269 393 l 269 997 z "},"l":{"ha":343,"x_min":0,"x_max":0,"o":"m 75 997 l 75 0 l 269 0 l 269 997 z "},"m":{"ha":1471,"x_min":0,"x_max":0,"o":"m 464 571 b 596 517 521 571 565 553 b 642 364 626 482 642 431 l 642 0 l 836 0 l 836 361 b 886 517 836 429 853 481 b 1029 571 919 553 967 571 b 1161 517 1087 571 1131 553 b 1207 364 1192 482 1207 431 l 1207 0 l 1401 0 l 1401 401 b 1315 653 1401 509 1372 593 b 1071 744 1257 714 1175 744 b 908 712 1012 744 957 734 b 776 614 859 690 815 657 b 673 710 752 656 718 688 b 522 744 628 733 578 744 b 379 718 469 744 422 736 b 269 640 337 700 300 675 l 269 731 l 75 731 l 75 0 l 269 0 l 269 361 b 319 517 269 429 286 481 b 464 571 353 553 401 571 z "},"n":{"ha":924,"x_min":0,"x_max":0,"o":"m 269 0 l 269 358 b 323 514 269 425 287 477 b 472 569 359 551 408 569 b 610 515 531 569 578 551 b 660 361 643 478 660 427 l 660 0 l 854 0 l 854 407 b 768 653 854 510 825 592 b 536 744 711 714 633 744 b 383 717 481 744 430 735 b 269 639 337 698 299 672 l 269 731 l 75 731 l 75 0 z "},"o":{"ha":918,"x_min":0,"x_max":0,"o":"m 460 744 b 153 638 337 744 234 709 b 32 365 72 566 32 475 b 153 92 32 254 72 163 b 460 -15 234 20 337 -15 b 764 92 582 -15 683 20 b 885 365 844 163 885 254 b 764 638 885 475 844 566 b 460 744 683 709 582 744 z m 460 582 b 631 522 529 582 586 562 b 697 365 675 482 697 430 b 631 207 697 300 675 247 b 460 147 586 167 529 147 b 288 207 389 147 332 167 b 221 365 243 247 221 300 b 288 522 221 430 243 482 b 460 582 332 562 389 582 z "},"p":{"ha":974,"x_min":0,"x_max":0,"o":"m 940 365 b 831 638 940 475 904 566 b 543 744 757 709 662 744 b 385 717 486 744 433 735 b 269 642 337 698 298 673 l 269 731 l 75 731 l 75 -247 l 269 -247 l 269 88 b 385 13 298 56 337 31 b 543 -15 433 -6 486 -15 b 831 92 662 -15 757 20 b 940 365 904 163 940 254 z m 508 586 b 685 525 580 586 638 566 b 754 365 731 484 754 431 b 685 204 754 299 731 245 b 508 143 638 163 580 143 b 333 206 439 143 380 164 b 261 360 285 247 261 299 l 261 369 b 332 524 261 431 285 483 b 508 586 379 566 438 586 z "},"q":{"ha":974,"x_min":0,"x_max":0,"o":"m 431 -15 b 589 13 488 -15 541 -6 b 704 88 637 31 675 56 l 704 -247 l 899 -247 l 899 731 l 704 731 l 704 642 b 589 717 675 673 637 698 b 431 744 541 735 488 744 b 143 638 312 744 216 709 b 33 365 70 566 33 475 b 143 92 33 254 70 163 b 431 -15 216 20 312 -15 z m 713 360 b 641 206 713 299 689 247 b 465 143 593 164 535 143 b 289 204 394 143 335 163 b 219 365 243 245 219 299 b 289 525 219 431 243 484 b 465 586 335 566 394 586 b 642 524 536 586 594 566 b 713 369 689 483 713 431 z "},"r":{"ha":640,"x_min":0,"x_max":0,"o":"m 544 735 b 381 702 481 735 426 724 b 269 601 336 680 299 647 l 269 731 l 75 731 l 75 0 l 269 0 l 269 311 b 337 485 269 388 292 446 b 538 544 382 525 449 544 b 579 542 554 544 568 544 b 625 533 590 541 606 538 l 625 725 b 587 733 613 729 600 731 b 544 735 573 734 559 735 z "},"s":{"ha":813,"x_min":0,"x_max":0,"o":"m 415 -15 b 691 51 530 -15 622 7 b 794 233 760 96 794 156 b 763 338 794 275 784 310 b 665 407 742 366 710 389 b 578 431 641 416 612 424 b 438 451 545 437 498 444 b 257 483 337 463 276 474 b 228 522 238 491 228 505 b 270 576 228 545 242 563 b 389 594 298 588 338 594 b 547 567 447 594 500 585 b 665 489 594 549 634 523 l 776 607 b 620 708 739 650 687 683 b 399 744 553 732 479 744 b 136 678 289 744 202 722 b 38 501 70 633 38 575 b 105 363 38 441 60 395 b 367 290 150 331 237 307 b 432 283 380 288 401 286 b 499 274 463 279 485 276 b 580 252 538 268 566 261 b 601 214 594 243 601 231 b 556 156 601 189 586 170 b 424 136 525 143 481 136 b 245 169 358 136 298 147 b 106 265 192 191 145 223 l -6 138 b 168 26 35 90 93 53 b 415 -15 243 -2 325 -15 z "},"t":{"ha":726,"x_min":0,"x_max":0,"o":"m 471 -10 b 594 1 511 -10 552 -6 b 707 32 636 9 674 19 l 674 192 b 588 168 641 181 613 173 b 514 161 563 163 538 161 b 399 188 460 161 422 170 b 365 276 377 206 365 236 l 365 568 l 676 568 l 676 731 l 365 731 l 365 939 l 174 939 l 174 731 l -1 731 l -1 568 l 174 568 l 174 244 b 251 56 174 162 199 99 b 471 -10 302 12 375 -10 z "},"u":{"ha":917,"x_min":0,"x_max":0,"o":"m 649 731 l 649 363 b 596 210 649 297 631 246 b 447 156 561 174 511 156 b 310 205 387 156 341 172 b 264 350 279 238 264 286 l 264 731 l 69 731 l 69 317 b 156 75 69 216 98 135 b 386 -15 213 15 290 -15 b 535 13 441 -15 491 -6 b 649 92 580 31 618 57 l 649 0 l 843 0 l 843 731 z "},"v":{"ha":914,"x_min":0,"x_max":0,"o":"m 917 731 l 708 731 l 461 210 l 214 731 l -3 731 l 357 0 l 557 0 z "},"w":{"ha":1279,"x_min":0,"x_max":0,"o":"m 386 236 l 204 731 l -3 731 l 286 0 l 461 0 l 640 486 l 819 0 l 994 0 l 1282 731 l 1082 731 l 904 236 l 729 731 l 560 731 z "},"x":{"ha":929,"x_min":0,"x_max":0,"o":"m 931 0 l 585 376 l 919 731 l 683 731 l 465 496 l 254 731 l 10 731 l 346 365 l -1 0 l 235 0 l 465 246 l 685 0 z "},"y":{"ha":914,"x_min":0,"x_max":0,"o":"m 917 731 l 708 731 l 464 210 l 214 731 l -3 731 l 357 18 l 350 -4 b 297 -76 338 -37 320 -60 b 203 -99 273 -91 242 -99 b 151 -92 185 -99 168 -97 b 96 -71 134 -88 115 -81 l 61 -229 b 133 -251 78 -237 102 -245 b 219 -260 164 -257 193 -260 b 408 -212 297 -260 360 -244 b 535 -51 456 -180 499 -126 z "},"z":{"ha":868,"x_min":0,"x_max":0,"o":"m 321 163 l 818 585 l 818 731 l 51 731 l 51 568 l 547 568 l 47 144 l 47 0 l 822 0 l 822 163 z "},"{":{"ha":586,"x_min":0,"x_max":0,"o":"m 96 367 b 153 340 122 367 141 358 b 172 263 166 323 172 297 l 172 104 b 242 -73 172 28 196 -31 b 440 -136 289 -115 355 -136 l 572 -136 l 572 17 l 474 17 b 378 47 430 17 398 27 b 347 146 357 68 347 100 l 347 269 b 323 380 347 315 339 352 b 247 444 307 408 281 430 b 323 509 281 459 307 481 b 347 619 339 537 347 574 l 347 743 b 378 842 347 788 357 821 b 474 872 398 862 430 872 l 572 872 l 572 1025 l 440 1025 b 242 962 355 1025 289 1004 b 172 785 196 920 172 861 l 172 626 b 153 549 172 592 166 566 b 96 522 141 531 122 522 l 28 522 l 28 367 z "},"|":{"ha":375,"x_min":0,"x_max":0,"o":"m 283 -136 l 283 1025 l 92 1025 l 92 -136 z "},"}":{"ha":586,"x_min":0,"x_max":0,"o":"m 558 522 l 490 522 b 433 549 464 522 445 531 b 414 626 420 566 414 592 l 414 785 b 344 962 414 861 391 920 b 146 1025 297 1004 231 1025 l 14 1025 l 14 872 l 113 872 b 208 842 156 872 188 862 b 239 743 229 821 239 788 l 239 619 b 263 509 239 574 247 537 b 339 444 279 481 305 459 b 263 380 305 430 279 408 b 239 269 247 352 239 315 l 239 146 b 208 47 239 100 229 68 b 113 17 188 27 156 17 l 14 17 l 14 -136 l 146 -136 b 344 -73 231 -136 297 -115 b 414 104 391 -31 414 28 l 414 263 b 433 340 414 297 420 323 b 490 367 445 358 464 367 l 558 367 z "},"~":{"ha":703,"x_min":0,"x_max":0,"o":"m 244 574 b 113 500 191 574 147 549 b 56 301 79 451 60 385 l 203 301 b 227 366 208 332 216 353 b 272 385 238 378 253 385 b 301 378 281 385 291 382 b 346 349 310 373 325 363 b 410 311 373 330 394 318 b 458 301 425 305 442 301 b 590 375 513 301 557 326 b 647 575 624 424 643 491 l 501 575 b 476 510 495 544 487 523 b 432 490 466 497 451 490 b 403 497 423 490 413 493 b 356 526 393 502 377 512 b 292 565 330 546 309 559 b 244 574 276 571 260 574 z "}," ":{"ha":372,"x_min":0,"x_max":0,"o":""},"¡":{"ha":425,"x_min":0,"x_max":0,"o":"m 97 776 l 328 776 l 328 997 l 97 997 z m 88 0 l 336 0 l 286 688 l 138 688 z "},"¢":{"ha":911,"x_min":0,"x_max":0,"o":"m 571 -143 l 571 -11 b 777 65 650 -1 718 24 b 901 213 836 105 877 154 l 760 300 b 688 203 745 262 721 230 b 571 147 654 176 615 157 l 571 601 b 686 549 615 592 654 575 b 760 451 719 523 743 490 l 903 535 b 778 684 879 593 837 643 b 571 761 719 725 650 751 l 571 910 l 417 910 l 417 761 b 142 634 304 747 212 705 b 36 375 71 563 36 477 b 142 116 36 273 71 187 b 417 -11 212 45 304 3 l 417 -143 z m 214 375 b 269 522 214 432 232 481 b 417 603 305 563 355 590 l 417 147 b 269 228 355 160 305 187 b 214 375 232 269 214 318 z "},"£":{"ha":1222,"x_min":0,"x_max":0,"o":"m 346 396 b 363 363 353 384 359 373 b 372 335 367 353 370 344 b 301 351 348 342 325 347 b 233 356 278 354 256 356 b 65 304 165 356 109 338 b 0 169 22 270 0 225 b 61 35 0 114 20 69 b 221 -15 102 2 155 -15 b 369 22 275 -15 324 -3 b 482 126 415 47 452 82 b 689 13 566 70 635 32 b 853 -15 743 -6 797 -15 b 1109 79 958 -15 1044 16 b 1206 325 1174 142 1206 224 l 1019 325 b 964 205 1016 273 997 233 b 828 163 931 177 885 163 b 728 178 796 163 763 168 b 535 265 694 188 629 217 b 538 290 537 274 538 282 b 539 314 539 297 539 306 b 536 354 539 327 538 340 b 526 396 534 368 531 382 l 815 396 l 815 533 l 444 533 b 402 607 423 564 409 588 b 392 663 395 625 392 644 b 466 791 392 715 416 758 b 664 840 516 824 581 840 b 875 786 755 840 825 822 b 950 632 925 750 950 699 b 949 610 950 625 950 618 b 946 586 949 603 948 594 l 1132 586 b 1136 619 1134 596 1135 607 b 1138 654 1137 630 1138 642 b 1008 915 1138 763 1094 850 b 667 1013 922 980 808 1013 b 326 918 529 1013 415 981 b 192 685 236 855 192 777 b 204 609 192 659 196 634 b 244 533 213 584 226 559 l 121 533 l 121 396 z m 239 231 b 295 224 257 231 276 228 b 360 200 314 219 336 211 b 306 139 347 174 329 154 b 228 117 282 124 256 117 b 174 132 206 117 188 122 b 154 172 161 142 154 156 b 177 215 154 190 162 204 b 239 231 192 225 213 231 z "},"¥":{"ha":1269,"x_min":0,"x_max":0,"o":"m 538 242 l 538 0 l 733 0 l 733 242 l 1119 242 l 1119 376 l 733 376 l 733 458 l 1119 458 l 1119 593 l 863 593 l 1271 997 l 1021 997 l 638 611 l 254 997 l -1 997 l 408 593 l 153 593 l 153 458 l 538 458 l 538 376 l 153 376 l 153 242 z "},"§":{"ha":1114,"x_min":0,"x_max":0,"o":"m 1001 356 b 1048 419 1022 374 1037 395 b 1064 496 1059 442 1064 468 b 990 642 1064 559 1039 608 b 768 703 940 677 866 697 l 386 722 b 306 739 349 724 322 730 b 281 781 289 748 281 762 b 341 834 281 804 301 822 b 514 853 381 847 439 853 b 763 825 608 853 691 844 b 936 743 835 806 893 779 l 1049 872 b 839 976 999 917 929 951 b 533 1013 749 1000 647 1013 b 198 947 391 1013 279 991 b 76 767 117 903 76 843 b 90 699 76 743 81 720 b 128 644 98 678 111 660 b 78 581 106 625 89 604 b 61 506 67 557 61 532 b 125 370 61 449 82 404 b 303 313 168 336 227 317 l 714 288 b 813 268 759 286 792 279 b 844 219 834 257 844 241 b 778 160 844 194 822 175 b 599 139 733 146 674 139 b 326 176 498 139 407 151 b 131 281 246 200 181 235 l 13 143 b 244 27 64 94 141 55 b 585 -15 346 -1 460 -15 b 927 51 730 -15 844 7 b 1051 232 1010 95 1051 155 b 1039 299 1051 256 1047 278 b 1001 356 1031 319 1018 338 z m 347 467 b 259 485 307 469 278 475 b 231 529 240 495 231 510 b 238 558 231 539 233 549 b 258 582 242 566 249 575 b 301 575 273 579 288 577 b 343 571 315 573 329 572 l 746 549 b 855 528 797 546 833 539 b 888 476 877 517 888 500 b 882 449 888 467 886 458 b 867 425 878 441 873 432 b 810 437 850 430 831 434 b 738 444 788 440 764 443 z "},"¨":{"ha":833,"x_min":0,"x_max":0,"o":"m 346 817 l 346 997 l 146 997 l 146 817 z m 688 817 l 688 997 l 488 997 l 488 817 z "},"©":{"ha":1244,"x_min":0,"x_max":0,"o":"m 624 1013 b 215 866 461 1013 324 964 b 50 499 105 768 50 646 b 215 132 50 352 105 230 b 624 -15 325 34 462 -15 b 1028 132 784 -15 919 34 b 1193 499 1138 230 1193 352 b 1029 866 1193 646 1138 768 b 624 1013 920 964 785 1013 z m 624 83 b 288 203 490 83 378 123 b 151 499 197 282 151 381 b 287 795 151 617 197 716 b 624 914 377 874 489 914 b 958 795 757 914 869 874 b 1093 499 1048 716 1093 617 b 958 203 1093 381 1048 282 b 624 83 867 123 756 83 z m 629 207 b 823 251 706 207 771 222 b 933 376 875 280 912 322 l 783 440 b 724 371 769 410 750 387 b 629 347 699 355 667 347 b 504 388 576 347 535 361 b 458 500 474 416 458 453 b 504 612 458 547 474 584 b 629 653 535 639 576 653 b 724 629 666 653 698 645 b 783 560 750 613 769 590 l 933 624 b 822 749 912 677 875 719 b 629 793 769 778 705 793 b 389 711 531 793 451 766 b 296 500 327 656 296 586 b 389 289 296 414 327 344 b 629 207 451 234 531 207 z "},"ª":{"ha":708,"x_min":0,"x_max":0,"o":"m 467 533 b 542 475 482 505 507 485 b 599 467 558 469 577 467 b 669 475 620 467 644 469 l 669 588 b 633 583 655 585 643 583 b 617 586 627 583 621 584 b 601 617 606 590 601 600 l 601 811 b 533 957 601 875 579 924 b 338 1007 488 990 423 1007 b 151 965 266 1007 204 993 b 49 853 99 936 64 899 l 186 814 b 238 866 194 835 211 853 b 331 886 264 879 295 886 b 421 867 369 886 400 880 b 453 813 442 854 453 836 l 453 810 l 242 789 b 85 737 174 782 122 765 b 29 625 48 709 29 671 b 90 508 29 576 49 537 b 250 464 130 478 183 464 b 372 482 294 464 334 470 b 467 533 410 494 442 511 z m 278 576 b 205 590 246 576 222 581 b 179 631 188 600 179 613 b 199 669 179 647 186 660 b 264 686 212 678 233 683 l 453 706 l 453 675 b 401 605 453 647 435 624 b 278 576 366 586 325 576 z m 668 261 l 668 392 l 43 392 l 43 261 z "},"«":{"ha":757,"x_min":0,"x_max":0,"o":"m 361 82 l 361 269 l 219 361 l 361 453 l 361 640 l 53 451 l 53 271 z m 704 82 l 704 269 l 563 361 l 704 453 l 704 640 l 396 451 l 396 271 z "},"®":{"ha":753,"x_min":0,"x_max":0,"o":"m 376 1013 b 133 924 279 1013 198 983 b 36 703 69 866 36 792 b 133 481 36 614 69 540 b 376 393 198 422 279 393 b 619 481 474 393 555 422 b 717 703 684 540 717 614 b 619 924 717 792 684 866 b 376 1013 555 983 474 1013 z m 376 458 b 184 528 300 458 235 482 b 107 703 133 575 107 633 b 184 877 107 772 133 830 b 376 947 235 924 300 947 b 569 877 453 947 517 924 b 646 703 620 830 646 772 b 569 528 646 633 620 575 b 376 458 517 482 453 458 z m 482 676 b 527 712 501 686 516 697 b 543 763 538 726 543 743 b 510 838 543 795 532 820 b 417 864 488 855 456 864 l 222 864 l 222 551 l 315 551 l 315 653 l 396 653 l 454 551 l 558 551 z m 447 754 b 435 728 447 743 443 734 b 404 719 428 722 417 719 l 315 719 l 315 789 l 404 789 b 435 780 417 789 428 786 b 447 754 443 774 447 765 z "},"¯":{"ha":833,"x_min":0,"x_max":0,"o":"m 671 967 l 163 967 l 163 819 l 671 819 z "},"°":{"ha":564,"x_min":0,"x_max":0,"o":"m 25 799 b 97 644 25 736 49 684 b 282 583 144 603 206 583 b 467 644 357 583 419 604 b 539 799 515 685 539 737 b 467 953 539 862 515 913 b 282 1013 420 993 358 1013 b 97 953 206 1013 144 993 b 25 799 49 913 25 862 z m 158 799 b 192 867 158 827 170 850 b 282 893 215 884 245 893 b 372 868 320 893 350 885 b 404 799 393 851 404 828 b 372 729 404 769 393 746 b 282 704 350 713 320 704 b 192 730 245 704 215 713 b 158 799 170 747 158 770 z "},"²":{"ha":617,"x_min":0,"x_max":0,"o":"m 38 444 l 592 444 l 592 571 l 301 571 l 417 629 b 541 715 474 656 516 685 b 579 822 566 746 579 781 b 509 956 579 878 556 922 b 326 1006 462 989 401 1006 b 121 945 244 1006 175 985 b 25 788 66 905 34 852 l 164 758 b 216 846 170 794 188 824 b 319 879 244 868 279 879 b 394 860 351 879 376 873 b 422 810 413 847 422 830 b 397 756 422 790 414 772 b 272 682 379 740 338 715 l 38 554 z "},"³":{"ha":644,"x_min":0,"x_max":0,"o":"m 621 603 b 594 679 621 633 612 659 b 511 726 576 700 548 715 b 582 772 541 736 564 751 b 608 844 600 794 608 818 b 534 961 608 893 584 931 b 336 1006 484 991 419 1006 b 144 965 264 1006 200 992 b 28 857 89 938 50 902 l 156 797 b 219 858 168 822 189 843 b 325 882 250 874 285 882 b 410 868 361 882 390 877 b 442 831 431 859 442 846 b 413 794 442 814 432 802 b 324 782 393 786 363 782 l 228 782 l 228 668 l 331 668 b 422 656 371 668 402 664 b 453 617 443 647 453 634 b 417 574 453 599 441 585 b 325 558 394 564 363 558 b 212 584 283 558 246 567 b 140 653 178 601 154 624 l 6 592 b 126 476 31 542 72 503 b 325 436 181 450 247 436 b 539 483 413 436 484 452 b 621 603 594 515 621 555 z "},"´":{"ha":833,"x_min":0,"x_max":0,"o":"m 403 796 l 633 997 l 383 997 l 239 796 z "},"¶":{"ha":1182,"x_min":0,"x_max":0,"o":"m 983 0 l 983 833 l 1165 833 l 1165 997 l 374 997 b 126 919 272 997 189 971 b 32 715 63 868 32 800 b 121 517 32 633 62 567 b 353 442 180 467 257 442 l 599 442 l 599 833 l 799 833 l 799 0 z "},"·":{"ha":339,"x_min":0,"x_max":0,"o":"m 283 292 l 283 517 l 56 517 l 56 292 z "},"¸":{"ha":833,"x_min":0,"x_max":0,"o":"m 610 -139 b 568 -62 610 -107 596 -82 b 456 -29 540 -42 503 -31 l 469 17 l 376 17 l 344 -89 b 448 -99 394 -90 428 -93 b 478 -128 468 -105 478 -115 b 459 -153 478 -139 472 -147 b 404 -161 447 -158 428 -161 b 338 -151 380 -161 358 -158 b 283 -122 318 -145 300 -135 l 224 -211 b 304 -248 244 -227 271 -239 b 413 -261 338 -257 374 -261 b 555 -228 471 -261 518 -250 b 610 -139 591 -206 610 -176 z "},"¹":{"ha":518,"x_min":0,"x_max":0,"o":"m 508 444 l 508 572 l 350 572 l 350 997 l 232 997 b 194 928 226 966 214 943 b 101 906 174 914 143 906 l 18 903 l 18 789 l 196 789 l 196 572 l 18 572 l 18 444 z "},"º":{"ha":678,"x_min":0,"x_max":0,"o":"m 339 1007 b 116 931 248 1007 174 982 b 29 735 58 881 29 815 b 117 539 29 655 58 590 b 339 463 175 488 249 463 b 561 539 429 463 503 488 b 649 735 619 590 649 655 b 562 931 649 815 620 881 b 339 1007 504 982 430 1007 z m 339 882 b 455 842 386 882 425 869 b 500 735 485 815 500 779 b 455 629 500 691 485 656 b 339 589 425 602 386 589 b 224 628 292 589 253 602 b 179 735 194 655 179 690 b 224 842 179 779 194 815 b 339 882 253 869 292 882 z m 640 261 l 640 392 l 38 392 l 38 261 z "},"»":{"ha":757,"x_min":0,"x_max":0,"o":"m 361 451 l 53 640 l 53 453 l 194 361 l 53 269 l 53 82 l 361 271 z m 704 451 l 396 640 l 396 453 l 538 361 l 396 269 l 396 82 l 704 271 z "},"¼":{"ha":1406,"x_min":0,"x_max":0,"o":"m 508 444 l 508 572 l 350 572 l 350 997 l 232 997 b 194 928 226 966 214 943 b 101 906 174 914 143 906 l 18 903 l 18 789 l 196 789 l 196 572 l 18 572 l 18 444 z m 240 0 l 411 0 l 1201 997 l 1031 997 z m 1258 121 l 1385 121 l 1385 240 l 1258 240 l 1258 553 l 1063 553 l 761 233 l 761 121 l 1111 121 l 1111 0 l 1258 0 z m 1111 431 l 1111 240 l 931 240 z "},"½":{"ha":1443,"x_min":0,"x_max":0,"o":"m 508 444 l 508 572 l 350 572 l 350 997 l 232 997 b 194 928 226 966 214 943 b 101 906 174 914 143 906 l 18 903 l 18 789 l 196 789 l 196 572 l 18 572 l 18 444 z m 240 0 l 411 0 l 1201 997 l 1031 997 z m 864 0 l 1418 0 l 1418 126 l 1128 126 l 1243 185 b 1367 271 1300 212 1342 240 b 1406 378 1393 301 1406 337 b 1335 511 1406 433 1382 478 b 1153 561 1289 544 1228 561 b 947 501 1070 561 1002 541 b 851 343 893 460 861 408 l 990 314 b 1042 401 997 350 1014 379 b 1146 435 1071 424 1105 435 b 1221 415 1177 435 1202 428 b 1249 365 1239 402 1249 386 b 1223 312 1249 346 1240 328 b 1099 238 1206 296 1164 271 l 864 110 z "},"¾":{"ha":1436,"x_min":0,"x_max":0,"o":"m 621 603 b 594 679 621 633 612 659 b 511 726 576 700 548 715 b 582 772 541 736 564 751 b 608 844 600 794 608 818 b 534 961 608 893 584 931 b 336 1006 484 991 419 1006 b 144 965 264 1006 200 992 b 28 857 89 938 50 902 l 156 797 b 219 858 168 822 189 843 b 325 882 250 874 285 882 b 410 868 361 882 390 877 b 442 831 431 859 442 846 b 413 794 442 814 432 802 b 324 782 393 786 363 782 l 228 782 l 228 668 l 331 668 b 422 656 371 668 402 664 b 453 617 443 647 453 634 b 417 574 453 599 441 585 b 325 558 394 564 363 558 b 212 584 283 558 246 567 b 140 653 178 601 154 624 l 6 592 b 126 476 31 542 72 503 b 325 436 181 450 247 436 b 539 483 413 436 484 452 b 621 603 594 515 621 555 z m 269 0 l 440 0 l 1231 997 l 1060 997 z m 1289 121 l 1415 121 l 1415 240 l 1289 240 l 1289 553 l 1093 553 l 792 233 l 792 121 l 1142 121 l 1142 0 l 1289 0 z m 1142 431 l 1142 240 l 961 240 z "},"¿":{"ha":982,"x_min":0,"x_max":0,"o":"m 356 1011 l 356 790 l 585 790 l 585 1011 z m 231 321 b 313 431 231 371 258 407 b 576 465 368 454 456 465 l 576 701 l 379 701 l 379 603 b 111 503 265 588 176 555 b 14 310 46 452 14 388 b 139 83 14 215 56 140 b 472 -1 222 27 333 -1 b 817 85 611 -1 726 28 b 979 315 909 143 963 220 l 772 346 b 680 219 763 293 732 251 b 483 172 628 188 562 172 b 294 210 400 172 337 185 b 231 321 252 235 231 272 z "},"À":{"ha":1217,"x_min":0,"x_max":0,"o":"m -10 0 l 208 0 l 325 232 l 889 232 l 1004 0 l 1225 0 l 722 997 l 493 997 z m 801 406 l 411 406 l 607 796 z m 546 1264 l 269 1264 l 533 1054 l 708 1054 z "},"Á":{"ha":1217,"x_min":0,"x_max":0,"o":"m -10 0 l 208 0 l 325 232 l 889 232 l 1004 0 l 1225 0 l 722 997 l 493 997 z m 801 406 l 411 406 l 607 796 z m 688 1054 l 951 1264 l 675 1264 l 513 1054 z "},"Â":{"ha":1217,"x_min":0,"x_max":0,"o":"m -10 0 l 208 0 l 325 232 l 889 232 l 1004 0 l 1225 0 l 722 997 l 493 997 z m 801 406 l 411 406 l 607 796 z m 499 1264 l 299 1054 l 460 1054 l 607 1147 l 754 1054 l 915 1054 l 715 1264 z "},"Ã":{"ha":1217,"x_min":0,"x_max":0,"o":"m -10 0 l 208 0 l 325 232 l 889 232 l 1004 0 l 1225 0 l 722 997 l 493 997 z m 801 406 l 411 406 l 607 796 z m 469 1282 b 349 1221 419 1282 379 1262 b 300 1054 319 1180 303 1125 l 429 1054 b 450 1113 434 1081 441 1100 b 489 1131 459 1125 472 1131 b 526 1125 501 1131 513 1129 b 586 1099 539 1121 559 1113 b 676 1063 623 1081 653 1069 b 746 1054 700 1057 723 1054 b 865 1115 795 1054 835 1075 b 917 1282 896 1156 913 1212 l 788 1282 b 765 1224 782 1255 775 1236 b 728 1207 756 1213 744 1207 b 690 1213 716 1207 703 1209 b 629 1238 676 1216 656 1225 b 540 1274 592 1256 562 1268 b 469 1282 517 1279 494 1282 z "},"Ä":{"ha":1217,"x_min":0,"x_max":0,"o":"m -10 0 l 208 0 l 325 232 l 889 232 l 1004 0 l 1225 0 l 722 997 l 493 997 z m 801 406 l 411 406 l 607 796 z m 531 1054 l 531 1238 l 331 1238 l 331 1054 z m 883 1054 l 883 1238 l 683 1238 l 683 1054 z "},"Å":{"ha":1217,"x_min":0,"x_max":0,"o":"m 410 1096 b 427 1022 410 1070 416 1045 b 475 963 439 999 455 979 l -10 0 l 208 0 l 325 232 l 889 232 l 1004 0 l 1225 0 l 740 963 b 788 1021 761 978 777 998 b 806 1096 800 1044 806 1069 b 749 1221 806 1146 787 1188 b 607 1271 712 1254 664 1271 b 466 1221 550 1271 503 1254 b 410 1096 428 1188 410 1146 z m 607 1169 b 666 1149 631 1169 651 1163 b 689 1096 681 1135 689 1117 b 666 1043 689 1075 681 1057 b 607 1022 651 1029 631 1022 b 549 1043 584 1022 564 1029 b 525 1096 533 1057 525 1075 b 548 1149 525 1117 533 1135 b 607 1169 563 1163 583 1169 z m 801 406 l 411 406 l 607 796 z "},"Æ":{"ha":1971,"x_min":0,"x_max":0,"o":"m -17 0 l 240 0 l 443 229 l 963 229 l 963 0 l 1928 0 l 1928 176 l 1164 176 l 1164 424 l 1849 424 l 1849 599 l 1164 599 l 1164 821 l 1928 821 l 1928 997 l 875 997 z m 963 815 l 963 401 l 596 401 z "},"Ç":{"ha":1160,"x_min":0,"x_max":0,"o":"m 32 499 b 172 157 32 365 78 251 b 533 -10 265 63 385 7 l 510 -89 b 613 -99 559 -90 593 -93 b 643 -128 633 -105 643 -115 b 624 -153 643 -139 637 -147 b 569 -161 612 -158 594 -161 b 503 -151 545 -161 523 -158 b 449 -122 484 -145 465 -135 l 389 -211 b 469 -248 409 -227 436 -239 b 578 -261 503 -257 539 -261 b 720 -228 636 -261 684 -250 b 775 -139 757 -206 775 -176 b 733 -62 775 -107 761 -82 b 621 -29 706 -42 668 -31 l 625 -15 b 953 67 752 -15 861 12 b 1150 299 1046 122 1111 200 l 974 388 b 840 222 944 315 899 260 b 622 164 780 183 707 164 b 348 258 511 164 420 195 b 240 499 276 320 240 400 b 348 740 240 597 276 677 b 622 833 420 802 511 833 b 840 776 707 833 780 814 b 974 610 899 737 944 682 l 1150 699 b 953 930 1111 798 1045 875 b 621 1013 860 985 750 1013 b 199 866 451 1013 311 964 b 32 499 88 768 32 646 z "},"È":{"ha":1096,"x_min":0,"x_max":0,"o":"m 88 0 l 1053 0 l 1053 176 l 289 176 l 289 424 l 974 424 l 974 599 l 289 599 l 289 821 l 1053 821 l 1053 997 l 88 997 z m 546 1264 l 269 1264 l 533 1054 l 708 1054 z "},"É":{"ha":1096,"x_min":0,"x_max":0,"o":"m 88 0 l 1053 0 l 1053 176 l 289 176 l 289 424 l 974 424 l 974 599 l 289 599 l 289 821 l 1053 821 l 1053 997 l 88 997 z m 629 1054 l 893 1264 l 617 1264 l 454 1054 z "},"Ê":{"ha":1096,"x_min":0,"x_max":0,"o":"m 88 0 l 1053 0 l 1053 176 l 289 176 l 289 424 l 974 424 l 974 599 l 289 599 l 289 821 l 1053 821 l 1053 997 l 88 997 z m 458 1264 l 258 1054 l 419 1054 l 567 1147 l 714 1054 l 875 1054 l 675 1264 z "},"Ë":{"ha":1096,"x_min":0,"x_max":0,"o":"m 88 0 l 1053 0 l 1053 176 l 289 176 l 289 424 l 974 424 l 974 599 l 289 599 l 289 821 l 1053 821 l 1053 997 l 88 997 z m 490 1054 l 490 1238 l 290 1238 l 290 1054 z m 843 1054 l 843 1238 l 643 1238 l 643 1054 z "},"Ì":{"ha":378,"x_min":0,"x_max":0,"o":"m 88 997 l 88 0 l 292 0 l 292 997 z m 117 1264 l -160 1264 l 104 1054 l 279 1054 z "},"Í":{"ha":378,"x_min":0,"x_max":0,"o":"m 88 997 l 88 0 l 292 0 l 292 997 z m 275 1054 l 539 1264 l 263 1264 l 100 1054 z "},"Î":{"ha":378,"x_min":0,"x_max":0,"o":"m 88 997 l 88 0 l 292 0 l 292 997 z m 81 1264 l -119 1054 l 42 1054 l 189 1147 l 336 1054 l 497 1054 l 297 1264 z "},"Ï":{"ha":378,"x_min":0,"x_max":0,"o":"m 88 997 l 88 0 l 292 0 l 292 997 z m 113 1054 l 113 1238 l -87 1238 l -87 1054 z m 465 1054 l 465 1238 l 265 1238 l 265 1054 z "},"Ð":{"ha":1254,"x_min":0,"x_max":0,"o":"m 653 0 b 1069 135 828 0 967 45 b 1224 499 1172 225 1224 346 b 1069 863 1224 651 1172 773 b 653 997 967 952 828 997 l 143 997 l 143 597 l 7 597 l 7 424 l 143 424 l 143 0 z m 343 424 l 571 424 l 571 597 l 343 597 l 343 822 l 653 822 b 918 735 765 822 853 793 b 1015 499 983 678 1015 599 b 918 262 1015 399 983 320 b 653 175 853 204 765 175 l 343 175 z "},"Ñ":{"ha":1203,"x_min":0,"x_max":0,"o":"m 918 997 l 918 293 l 296 997 l 88 997 l 88 0 l 285 0 l 285 738 l 936 0 l 1117 0 l 1117 997 z m 457 1282 b 337 1221 407 1282 367 1262 b 288 1054 307 1180 290 1125 l 417 1054 b 438 1113 421 1081 428 1100 b 476 1131 447 1125 460 1131 b 514 1125 488 1131 501 1129 b 574 1099 527 1121 547 1113 b 664 1063 611 1081 641 1069 b 733 1054 687 1057 710 1054 b 853 1115 782 1054 822 1075 b 904 1282 883 1156 900 1212 l 775 1282 b 753 1224 769 1255 762 1236 b 715 1207 744 1213 731 1207 b 677 1213 703 1207 691 1209 b 617 1238 664 1216 644 1225 b 527 1274 580 1256 550 1268 b 457 1282 504 1279 481 1282 z "},"Ò":{"ha":1242,"x_min":0,"x_max":0,"o":"m 32 499 b 199 131 32 350 88 228 b 621 -15 310 33 450 -15 b 1042 131 790 -15 931 33 b 1210 499 1154 228 1210 350 b 1042 867 1210 647 1154 769 b 621 1013 931 964 790 1013 b 199 867 450 1013 310 964 b 32 499 88 769 32 647 z m 1000 499 b 895 256 1000 399 965 318 b 621 164 825 195 734 164 b 347 256 508 164 416 195 b 242 499 277 318 242 399 b 347 741 242 599 277 679 b 621 833 416 803 508 833 b 895 741 734 833 825 803 b 1000 499 965 679 1000 599 z m 569 1264 l 293 1264 l 557 1054 l 732 1054 z "},"Ó":{"ha":1242,"x_min":0,"x_max":0,"o":"m 32 499 b 199 131 32 350 88 228 b 621 -15 310 33 450 -15 b 1042 131 790 -15 931 33 b 1210 499 1154 228 1210 350 b 1042 867 1210 647 1154 769 b 621 1013 931 964 790 1013 b 199 867 450 1013 310 964 b 32 499 88 769 32 647 z m 1000 499 b 895 256 1000 399 965 318 b 621 164 825 195 734 164 b 347 256 508 164 416 195 b 242 499 277 318 242 399 b 347 741 242 599 277 679 b 621 833 416 803 508 833 b 895 741 734 833 825 803 b 1000 499 965 679 1000 599 z m 689 1054 l 953 1264 l 676 1264 l 514 1054 z "},"Ô":{"ha":1242,"x_min":0,"x_max":0,"o":"m 32 499 b 199 131 32 350 88 228 b 621 -15 310 33 450 -15 b 1042 131 790 -15 931 33 b 1210 499 1154 228 1210 350 b 1042 867 1210 647 1154 769 b 621 1013 931 964 790 1013 b 199 867 450 1013 310 964 b 32 499 88 769 32 647 z m 1000 499 b 895 256 1000 399 965 318 b 621 164 825 195 734 164 b 347 256 508 164 416 195 b 242 499 277 318 242 399 b 347 741 242 599 277 679 b 621 833 416 803 508 833 b 895 741 734 833 825 803 b 1000 499 965 679 1000 599 z m 513 1264 l 313 1054 l 474 1054 l 621 1147 l 768 1054 l 929 1054 l 729 1264 z "},"Õ":{"ha":1242,"x_min":0,"x_max":0,"o":"m 32 499 b 199 131 32 350 88 228 b 621 -15 310 33 450 -15 b 1042 131 790 -15 931 33 b 1210 499 1154 228 1210 350 b 1042 867 1210 647 1154 769 b 621 1013 931 964 790 1013 b 199 867 450 1013 310 964 b 32 499 88 769 32 647 z m 1000 499 b 895 256 1000 399 965 318 b 621 164 825 195 734 164 b 347 256 508 164 416 195 b 242 499 277 318 242 399 b 347 741 242 599 277 679 b 621 833 416 803 508 833 b 895 741 734 833 825 803 b 1000 499 965 679 1000 599 z m 482 1282 b 362 1221 432 1282 392 1262 b 313 1054 332 1180 315 1125 l 442 1054 b 463 1113 446 1081 453 1100 b 501 1131 472 1125 485 1131 b 539 1125 513 1131 526 1129 b 599 1099 552 1121 572 1113 b 689 1063 636 1081 666 1069 b 758 1054 712 1057 735 1054 b 878 1115 807 1054 847 1075 b 929 1282 908 1156 925 1212 l 800 1282 b 778 1224 794 1255 787 1236 b 740 1207 769 1213 756 1207 b 702 1213 728 1207 716 1209 b 642 1238 689 1216 669 1225 b 552 1274 605 1256 575 1268 b 482 1282 529 1279 506 1282 z "},"Ö":{"ha":1242,"x_min":0,"x_max":0,"o":"m 32 499 b 199 131 32 350 88 228 b 621 -15 310 33 450 -15 b 1042 131 790 -15 931 33 b 1210 499 1154 228 1210 350 b 1042 867 1210 647 1154 769 b 621 1013 931 964 790 1013 b 199 867 450 1013 310 964 b 32 499 88 769 32 647 z m 1000 499 b 895 256 1000 399 965 318 b 621 164 825 195 734 164 b 347 256 508 164 416 195 b 242 499 277 318 242 399 b 347 741 242 599 277 679 b 621 833 416 803 508 833 b 895 741 734 833 825 803 b 1000 499 965 679 1000 599 z m 544 1054 l 544 1238 l 344 1238 l 344 1054 z m 897 1054 l 897 1238 l 697 1238 l 697 1054 z "},"×":{"ha":1111,"x_min":0,"x_max":0,"o":"m 108 161 l 225 44 l 556 376 l 888 44 l 1003 161 l 672 492 l 1001 822 l 886 936 l 557 608 l 225 939 l 108 822 l 440 492 z "},"Ø":{"ha":1240,"x_min":0,"x_max":0,"o":"m 163 -40 l 278 72 b 440 7 328 44 382 22 b 621 -15 497 -8 558 -15 b 1042 131 790 -15 931 33 b 1210 499 1154 228 1210 350 b 1181 666 1210 557 1200 613 b 1097 813 1162 719 1134 768 l 1194 906 l 1079 1019 l 974 918 b 809 988 924 949 869 972 b 621 1013 749 1004 687 1013 b 199 867 450 1013 310 964 b 32 499 88 769 32 647 b 63 326 32 438 42 381 b 151 176 83 272 113 222 l 46 75 z m 621 839 b 732 827 660 839 697 835 b 829 792 767 819 800 807 l 300 297 b 252 391 279 326 263 357 b 236 499 241 425 236 461 b 342 746 236 601 271 684 b 621 839 412 808 505 839 z m 621 158 b 517 169 585 158 550 162 b 422 200 483 176 452 186 l 947 690 b 990 600 966 663 980 632 b 1004 499 999 568 1004 534 b 899 251 1004 396 969 313 b 621 158 828 189 736 158 z "},"Ù":{"ha":1144,"x_min":0,"x_max":0,"o":"m 572 -14 b 952 113 737 -14 864 28 b 1085 471 1041 197 1085 316 l 1085 997 l 879 997 l 879 482 b 802 244 879 376 853 297 b 572 165 751 192 674 165 b 341 244 469 165 392 192 b 264 482 290 297 264 376 l 264 997 l 60 997 l 60 471 b 192 113 60 316 104 197 b 572 -14 281 28 407 -14 z m 540 1264 l 264 1264 l 528 1054 l 703 1054 z "},"Ú":{"ha":1144,"x_min":0,"x_max":0,"o":"m 572 -14 b 952 113 737 -14 864 28 b 1085 471 1041 197 1085 316 l 1085 997 l 879 997 l 879 482 b 802 244 879 376 853 297 b 572 165 751 192 674 165 b 341 244 469 165 392 192 b 264 482 290 297 264 376 l 264 997 l 60 997 l 60 471 b 192 113 60 316 104 197 b 572 -14 281 28 407 -14 z m 632 1054 l 896 1264 l 619 1264 l 457 1054 z "},"Û":{"ha":1144,"x_min":0,"x_max":0,"o":"m 572 -14 b 952 113 737 -14 864 28 b 1085 471 1041 197 1085 316 l 1085 997 l 879 997 l 879 482 b 802 244 879 376 853 297 b 572 165 751 192 674 165 b 341 244 469 165 392 192 b 264 482 290 297 264 376 l 264 997 l 60 997 l 60 471 b 192 113 60 316 104 197 b 572 -14 281 28 407 -14 z m 464 1264 l 264 1054 l 425 1054 l 572 1147 l 719 1054 l 881 1054 l 681 1264 z "},"Ü":{"ha":1144,"x_min":0,"x_max":0,"o":"m 572 -14 b 952 113 737 -14 864 28 b 1085 471 1041 197 1085 316 l 1085 997 l 879 997 l 879 482 b 802 244 879 376 853 297 b 572 165 751 192 674 165 b 341 244 469 165 392 192 b 264 482 290 297 264 376 l 264 997 l 60 997 l 60 471 b 192 113 60 316 104 197 b 572 -14 281 28 407 -14 z m 496 1054 l 496 1238 l 296 1238 l 296 1054 z m 849 1054 l 849 1238 l 649 1238 l 649 1054 z "},"Ý":{"ha":1178,"x_min":0,"x_max":0,"o":"m 235 997 l -14 997 l 488 424 l 488 0 l 692 0 l 692 424 l 1192 997 l 949 997 l 592 589 z m 654 1054 l 918 1264 l 642 1264 l 479 1054 z "},"Þ":{"ha":1113,"x_min":0,"x_max":0,"o":"m 1089 513 b 989 745 1089 613 1056 690 b 711 828 922 800 830 828 l 292 828 l 292 997 l 88 997 l 88 0 l 292 0 l 292 197 l 711 197 b 989 281 830 197 922 225 b 1089 513 1056 336 1089 413 z m 700 657 b 838 619 759 657 805 644 b 888 513 871 593 888 558 b 838 406 888 467 871 432 b 700 368 805 381 759 368 l 292 368 l 292 657 z "},"ß":{"ha":1015,"x_min":0,"x_max":0,"o":"m 519 1013 b 201 903 387 1013 281 976 b 81 625 121 831 81 738 l 81 0 l 274 0 l 274 622 b 338 793 274 694 295 751 b 515 856 380 835 439 856 b 648 824 572 856 616 845 b 696 736 680 803 696 774 b 647 652 696 700 680 672 b 511 622 615 632 569 622 l 376 622 l 376 458 l 524 458 b 730 417 614 458 683 445 b 800 297 777 390 800 350 b 747 186 800 252 782 215 b 607 143 711 157 664 143 b 494 169 567 143 530 152 b 394 246 459 186 426 212 l 297 106 b 431 16 332 67 377 37 b 608 -15 485 -5 544 -15 b 881 72 719 -15 810 14 b 988 294 952 129 988 204 b 924 467 988 363 966 420 b 743 564 882 513 822 545 b 846 640 788 581 822 606 b 882 758 870 673 882 713 b 783 942 882 833 849 894 b 519 1013 716 989 629 1013 z "},"à":{"ha":921,"x_min":0,"x_max":0,"o":"m 644 90 b 740 3 663 48 695 19 b 826 -10 765 -6 794 -10 b 914 0 853 -10 882 -6 l 914 146 b 863 139 894 141 876 139 b 836 142 851 138 843 139 b 813 186 820 148 813 163 l 813 474 b 719 674 813 561 781 628 b 450 744 656 721 567 744 b 199 686 356 744 272 725 b 56 533 125 647 78 596 l 224 476 b 304 556 237 509 263 535 b 443 588 345 577 391 588 b 577 558 500 588 545 578 b 625 476 609 538 625 511 l 625 471 l 321 439 b 106 366 228 430 157 405 b 31 211 56 327 31 275 b 115 46 31 142 59 87 b 338 -15 171 5 245 -15 b 511 13 400 -15 457 -6 b 644 90 565 31 609 57 z m 364 133 b 257 155 318 133 282 141 b 219 217 232 169 219 190 b 249 274 219 242 229 261 b 350 301 269 287 303 296 l 625 332 l 625 282 b 547 176 625 239 599 204 b 364 133 495 147 434 133 z m 422 997 l 172 997 l 403 796 l 567 796 z "},"á":{"ha":921,"x_min":0,"x_max":0,"o":"m 644 90 b 740 3 663 48 695 19 b 826 -10 765 -6 794 -10 b 914 0 853 -10 882 -6 l 914 146 b 863 139 894 141 876 139 b 836 142 851 138 843 139 b 813 186 820 148 813 163 l 813 474 b 719 674 813 561 781 628 b 450 744 656 721 567 744 b 199 686 356 744 272 725 b 56 533 125 647 78 596 l 224 476 b 304 556 237 509 263 535 b 443 588 345 577 391 588 b 577 558 500 588 545 578 b 625 476 609 538 625 511 l 625 471 l 321 439 b 106 366 228 430 157 405 b 31 211 56 327 31 275 b 115 46 31 142 59 87 b 338 -15 171 5 245 -15 b 511 13 400 -15 457 -6 b 644 90 565 31 609 57 z m 364 133 b 257 155 318 133 282 141 b 219 217 232 169 219 190 b 249 274 219 242 229 261 b 350 301 269 287 303 296 l 625 332 l 625 282 b 547 176 625 239 599 204 b 364 133 495 147 434 133 z m 518 796 l 749 997 l 499 997 l 354 796 z "},"â":{"ha":921,"x_min":0,"x_max":0,"o":"m 644 90 b 740 3 663 48 695 19 b 826 -10 765 -6 794 -10 b 914 0 853 -10 882 -6 l 914 146 b 863 139 894 141 876 139 b 836 142 851 138 843 139 b 813 186 820 148 813 163 l 813 474 b 719 674 813 561 781 628 b 450 744 656 721 567 744 b 199 686 356 744 272 725 b 56 533 125 647 78 596 l 224 476 b 304 556 237 509 263 535 b 443 588 345 577 391 588 b 577 558 500 588 545 578 b 625 476 609 538 625 511 l 625 471 l 321 439 b 106 366 228 430 157 405 b 31 211 56 327 31 275 b 115 46 31 142 59 87 b 338 -15 171 5 245 -15 b 511 13 400 -15 457 -6 b 644 90 565 31 609 57 z m 364 133 b 257 155 318 133 282 141 b 219 217 232 169 219 190 b 249 274 219 242 229 261 b 350 301 269 287 303 296 l 625 332 l 625 282 b 547 176 625 239 599 204 b 364 133 495 147 434 133 z m 347 997 l 168 796 l 319 796 l 446 876 l 572 796 l 724 796 l 544 997 z "},"ã":{"ha":921,"x_min":0,"x_max":0,"o":"m 644 90 b 740 3 663 48 695 19 b 826 -10 765 -6 794 -10 b 914 0 853 -10 882 -6 l 914 146 b 863 139 894 141 876 139 b 836 142 851 138 843 139 b 813 186 820 148 813 163 l 813 474 b 719 674 813 561 781 628 b 450 744 656 721 567 744 b 199 686 356 744 272 725 b 56 533 125 647 78 596 l 224 476 b 304 556 237 509 263 535 b 443 588 345 577 391 588 b 577 558 500 588 545 578 b 625 476 609 538 625 511 l 625 471 l 321 439 b 106 366 228 430 157 405 b 31 211 56 327 31 275 b 115 46 31 142 59 87 b 338 -15 171 5 245 -15 b 511 13 400 -15 457 -6 b 644 90 565 31 609 57 z m 364 133 b 257 155 318 133 282 141 b 219 217 232 169 219 190 b 249 274 219 242 229 261 b 350 301 269 287 303 296 l 625 332 l 625 282 b 547 176 625 239 599 204 b 364 133 495 147 434 133 z m 319 1008 b 213 951 275 1008 239 989 b 168 796 186 913 171 862 l 288 796 b 307 850 292 821 299 839 b 340 867 315 861 326 867 b 369 862 350 867 359 865 b 417 839 380 859 395 851 b 492 804 447 821 472 810 b 551 796 511 799 531 796 b 658 853 596 796 631 815 b 703 1008 685 891 700 943 l 583 1008 b 564 954 579 983 572 965 b 531 938 556 943 544 938 b 501 943 521 938 511 939 b 454 965 490 947 475 954 b 379 1000 424 983 399 994 b 319 1008 360 1006 340 1008 z "},"ä":{"ha":921,"x_min":0,"x_max":0,"o":"m 644 90 b 740 3 663 48 695 19 b 826 -10 765 -6 794 -10 b 914 0 853 -10 882 -6 l 914 146 b 863 139 894 141 876 139 b 836 142 851 138 843 139 b 813 186 820 148 813 163 l 813 474 b 719 674 813 561 781 628 b 450 744 656 721 567 744 b 199 686 356 744 272 725 b 56 533 125 647 78 596 l 224 476 b 304 556 237 509 263 535 b 443 588 345 577 391 588 b 577 558 500 588 545 578 b 625 476 609 538 625 511 l 625 471 l 321 439 b 106 366 228 430 157 405 b 31 211 56 327 31 275 b 115 46 31 142 59 87 b 338 -15 171 5 245 -15 b 511 13 400 -15 457 -6 b 644 90 565 31 609 57 z m 364 133 b 257 155 318 133 282 141 b 219 217 232 169 219 190 b 249 274 219 242 229 261 b 350 301 269 287 303 296 l 625 332 l 625 282 b 547 176 625 239 599 204 b 364 133 495 147 434 133 z m 379 817 l 379 997 l 179 997 l 179 817 z m 721 817 l 721 997 l 521 997 l 521 817 z "},"å":{"ha":921,"x_min":0,"x_max":0,"o":"m 644 90 b 740 3 663 48 695 19 b 826 -10 765 -6 794 -10 b 914 0 853 -10 882 -6 l 914 146 b 863 139 894 141 876 139 b 836 142 851 138 843 139 b 813 186 820 148 813 163 l 813 474 b 719 674 813 561 781 628 b 450 744 656 721 567 744 b 199 686 356 744 272 725 b 56 533 125 647 78 596 l 224 476 b 304 556 237 509 263 535 b 443 588 345 577 391 588 b 577 558 500 588 545 578 b 625 476 609 538 625 511 l 625 471 l 321 439 b 106 366 228 430 157 405 b 31 211 56 327 31 275 b 115 46 31 142 59 87 b 338 -15 171 5 245 -15 b 511 13 400 -15 457 -6 b 644 90 565 31 609 57 z m 364 133 b 257 155 318 133 282 141 b 219 217 232 169 219 190 b 249 274 219 242 229 261 b 350 301 269 287 303 296 l 625 332 l 625 282 b 547 176 625 239 599 204 b 364 133 495 147 434 133 z m 446 779 b 559 823 491 779 529 794 b 604 931 589 852 604 888 b 559 1037 604 972 589 1008 b 446 1081 529 1066 491 1081 b 333 1037 400 1081 363 1066 b 288 931 303 1008 288 972 b 333 823 288 888 303 852 b 446 779 363 794 400 779 z m 446 993 b 489 974 463 993 477 987 b 507 931 501 962 507 947 b 490 886 507 913 501 898 b 446 868 478 874 463 868 b 402 886 428 868 414 874 b 385 931 391 898 385 913 b 403 974 385 947 391 962 b 446 993 415 987 429 993 z "},"æ":{"ha":1489,"x_min":0,"x_max":0,"o":"m 31 211 b 115 45 31 141 59 85 b 342 -15 172 5 247 -15 b 551 24 420 -15 490 -2 b 700 139 613 50 662 88 b 850 25 739 90 789 52 b 1054 -15 911 -2 979 -15 b 1298 47 1145 -15 1226 5 b 1444 206 1370 88 1419 141 l 1279 276 b 1192 178 1262 235 1233 202 b 1051 143 1152 155 1105 143 b 893 188 988 143 936 158 b 811 311 850 218 823 259 l 1457 311 l 1457 372 b 1346 640 1457 481 1420 571 b 1054 744 1272 710 1175 744 b 888 717 995 744 939 735 b 753 638 836 698 791 672 b 633 717 724 673 684 699 b 450 744 582 735 521 744 b 199 686 356 744 272 725 b 56 533 125 647 78 596 l 224 476 b 304 556 237 509 263 535 b 443 588 345 577 391 588 b 577 558 500 588 545 578 b 625 476 609 538 625 511 l 625 440 l 361 440 b 118 379 257 440 176 420 b 31 211 60 338 31 282 z m 1046 590 b 1193 546 1101 590 1150 575 b 1268 440 1236 516 1261 481 l 817 440 b 900 550 831 487 859 523 b 1046 590 941 577 989 590 z m 219 219 b 260 288 219 250 233 273 b 382 311 287 303 327 311 l 625 311 l 625 282 b 548 175 625 238 599 203 b 364 133 497 147 435 133 b 258 156 319 133 283 141 b 219 219 232 170 219 192 z "},"ç":{"ha":858,"x_min":0,"x_max":0,"o":"m 32 365 b 130 115 32 267 65 184 b 388 -10 195 46 281 4 l 364 -89 b 467 -99 413 -90 447 -93 b 497 -128 487 -105 497 -115 b 478 -153 497 -139 491 -147 b 424 -161 466 -158 448 -161 b 358 -151 400 -161 378 -158 b 303 -122 338 -145 319 -135 l 243 -211 b 324 -248 263 -227 290 -239 b 432 -261 357 -257 393 -261 b 574 -228 490 -261 538 -250 b 629 -139 611 -206 629 -176 b 588 -62 629 -107 615 -82 b 475 -29 560 -42 522 -31 l 479 -15 b 712 53 567 -12 645 10 b 849 215 779 95 825 150 l 688 297 b 603 188 673 253 645 216 b 464 146 562 160 516 146 b 288 206 392 146 333 166 b 221 365 243 247 221 300 b 288 524 221 431 243 484 b 464 583 333 563 392 583 b 603 541 516 583 562 569 b 688 432 645 513 673 476 l 850 511 b 707 679 825 580 777 636 b 465 744 637 723 556 744 b 154 638 339 744 236 709 b 32 365 73 567 32 476 z "},"è":{"ha":899,"x_min":0,"x_max":0,"o":"m 464 -15 b 708 47 555 -15 636 5 b 854 206 779 88 828 141 l 689 276 b 603 178 672 235 644 202 b 464 143 563 155 517 143 b 303 188 400 143 346 158 b 219 311 259 218 231 259 l 867 311 l 867 372 b 756 640 867 481 830 571 b 463 744 681 710 584 744 b 153 637 338 744 234 709 b 32 365 72 565 32 475 b 153 91 32 253 72 162 b 464 -15 233 20 337 -15 z m 456 589 b 603 546 512 589 561 575 b 675 443 644 517 669 483 l 226 443 b 310 550 241 488 269 524 b 456 589 350 576 399 589 z m 431 997 l 181 997 l 411 796 l 575 796 z "},"é":{"ha":899,"x_min":0,"x_max":0,"o":"m 464 -15 b 708 47 555 -15 636 5 b 854 206 779 88 828 141 l 689 276 b 603 178 672 235 644 202 b 464 143 563 155 517 143 b 303 188 400 143 346 158 b 219 311 259 218 231 259 l 867 311 l 867 372 b 756 640 867 481 830 571 b 463 744 681 710 584 744 b 153 637 338 744 234 709 b 32 365 72 565 32 475 b 153 91 32 253 72 162 b 464 -15 233 20 337 -15 z m 456 589 b 603 546 512 589 561 575 b 675 443 644 517 669 483 l 226 443 b 310 550 241 488 269 524 b 456 589 350 576 399 589 z m 532 796 l 763 997 l 513 997 l 368 796 z "},"ê":{"ha":899,"x_min":0,"x_max":0,"o":"m 464 -15 b 708 47 555 -15 636 5 b 854 206 779 88 828 141 l 689 276 b 603 178 672 235 644 202 b 464 143 563 155 517 143 b 303 188 400 143 346 158 b 219 311 259 218 231 259 l 867 311 l 867 372 b 756 640 867 481 830 571 b 463 744 681 710 584 744 b 153 637 338 744 234 709 b 32 365 72 565 32 475 b 153 91 32 253 72 162 b 464 -15 233 20 337 -15 z m 456 589 b 603 546 512 589 561 575 b 675 443 644 517 669 483 l 226 443 b 310 550 241 488 269 524 b 456 589 350 576 399 589 z m 360 997 l 181 796 l 332 796 l 458 876 l 585 796 l 736 796 l 557 997 z "},"ë":{"ha":899,"x_min":0,"x_max":0,"o":"m 464 -15 b 708 47 555 -15 636 5 b 854 206 779 88 828 141 l 689 276 b 603 178 672 235 644 202 b 464 143 563 155 517 143 b 303 188 400 143 346 158 b 219 311 259 218 231 259 l 867 311 l 867 372 b 756 640 867 481 830 571 b 463 744 681 710 584 744 b 153 637 338 744 234 709 b 32 365 72 565 32 475 b 153 91 32 253 72 162 b 464 -15 233 20 337 -15 z m 456 589 b 603 546 512 589 561 575 b 675 443 644 517 669 483 l 226 443 b 310 550 241 488 269 524 b 456 589 350 576 399 589 z m 383 817 l 383 997 l 183 997 l 183 817 z m 725 817 l 725 997 l 525 997 l 525 817 z "},"ì":{"ha":343,"x_min":0,"x_max":0,"o":"m 75 731 l 75 0 l 269 0 l 269 731 z m 117 997 l -133 997 l 97 796 l 261 796 z "},"í":{"ha":343,"x_min":0,"x_max":0,"o":"m 75 731 l 75 0 l 269 0 l 269 731 z m 249 796 l 479 997 l 229 997 l 85 796 z "},"î":{"ha":343,"x_min":0,"x_max":0,"o":"m 75 731 l 75 0 l 269 0 l 269 731 z m 74 997 l -106 796 l 46 796 l 172 876 l 299 796 l 450 796 l 271 997 z "},"ï":{"ha":343,"x_min":0,"x_max":0,"o":"m 75 731 l 75 0 l 269 0 l 269 731 z m 101 817 l 101 997 l -99 997 l -99 817 z m 443 817 l 443 997 l 243 997 l 243 817 z "},"ð":{"ha":917,"x_min":0,"x_max":0,"o":"m 433 733 b 148 628 320 733 225 698 b 32 364 71 559 32 470 b 153 92 32 254 72 163 b 460 -15 234 20 337 -15 b 767 98 586 -15 688 22 b 885 397 845 173 885 273 b 831 642 885 483 867 565 b 672 851 794 720 742 789 l 786 878 l 786 1011 l 535 951 b 481 982 518 962 500 972 b 418 1011 461 992 440 1002 l 208 975 b 273 944 229 966 250 956 b 344 907 296 933 319 921 l 174 867 l 174 733 l 494 810 b 561 753 519 791 542 772 b 610 697 581 734 597 716 b 534 724 590 708 565 717 b 433 733 503 730 469 733 z m 460 582 b 631 522 529 582 586 562 b 697 365 675 482 697 430 b 631 207 697 300 675 247 b 460 147 586 167 529 147 b 288 207 389 147 332 167 b 221 365 243 247 221 300 b 288 522 221 430 243 482 b 460 582 332 562 389 582 z "},"ñ":{"ha":924,"x_min":0,"x_max":0,"o":"m 269 0 l 269 358 b 323 514 269 425 287 477 b 472 569 359 551 408 569 b 610 515 531 569 578 551 b 660 361 643 478 660 427 l 660 0 l 854 0 l 854 407 b 768 653 854 510 825 592 b 536 744 711 714 633 744 b 383 717 481 744 430 735 b 269 639 337 698 299 672 l 269 731 l 75 731 l 75 0 z m 349 1008 b 242 951 304 1008 269 989 b 197 796 215 913 200 862 l 317 796 b 336 850 321 821 328 839 b 369 867 344 861 356 867 b 399 862 379 867 388 865 b 446 839 409 859 425 851 b 521 804 476 821 501 810 b 581 796 540 799 560 796 b 688 853 625 796 661 815 b 732 1008 714 891 729 943 l 613 1008 b 593 954 608 983 601 965 b 560 938 585 943 574 938 b 530 943 550 938 541 939 b 483 965 519 947 504 954 b 408 1000 453 983 428 994 b 349 1008 389 1006 369 1008 z "},"ò":{"ha":918,"x_min":0,"x_max":0,"o":"m 460 744 b 153 638 337 744 234 709 b 32 365 72 566 32 475 b 153 92 32 254 72 163 b 460 -15 234 20 337 -15 b 764 92 582 -15 683 20 b 885 365 844 163 885 254 b 764 638 885 475 844 566 b 460 744 683 709 582 744 z m 460 582 b 631 522 529 582 586 562 b 697 365 675 482 697 430 b 631 207 697 300 675 247 b 460 147 586 167 529 147 b 288 207 389 147 332 167 b 221 365 243 247 221 300 b 288 522 221 430 243 482 b 460 582 332 562 389 582 z m 417 999 l 167 999 l 397 797 l 561 797 z "},"ó":{"ha":918,"x_min":0,"x_max":0,"o":"m 460 744 b 153 638 337 744 234 709 b 32 365 72 566 32 475 b 153 92 32 254 72 163 b 460 -15 234 20 337 -15 b 764 92 582 -15 683 20 b 885 365 844 163 885 254 b 764 638 885 475 844 566 b 460 744 683 709 582 744 z m 460 582 b 631 522 529 582 586 562 b 697 365 675 482 697 430 b 631 207 697 300 675 247 b 460 147 586 167 529 147 b 288 207 389 147 332 167 b 221 365 243 247 221 300 b 288 522 221 430 243 482 b 460 582 332 562 389 582 z m 529 796 l 760 997 l 510 997 l 365 796 z "},"ô":{"ha":918,"x_min":0,"x_max":0,"o":"m 460 744 b 153 638 337 744 234 709 b 32 365 72 566 32 475 b 153 92 32 254 72 163 b 460 -15 234 20 337 -15 b 764 92 582 -15 683 20 b 885 365 844 163 885 254 b 764 638 885 475 844 566 b 460 744 683 709 582 744 z m 460 582 b 631 522 529 582 586 562 b 697 365 675 482 697 430 b 631 207 697 300 675 247 b 460 147 586 167 529 147 b 288 207 389 147 332 167 b 221 365 243 247 221 300 b 288 522 221 430 243 482 b 460 582 332 562 389 582 z m 360 997 l 181 796 l 332 796 l 458 876 l 585 796 l 736 796 l 557 997 z "},"õ":{"ha":918,"x_min":0,"x_max":0,"o":"m 460 744 b 153 638 337 744 234 709 b 32 365 72 566 32 475 b 153 92 32 254 72 163 b 460 -15 234 20 337 -15 b 764 92 582 -15 683 20 b 885 365 844 163 885 254 b 764 638 885 475 844 566 b 460 744 683 709 582 744 z m 460 582 b 631 522 529 582 586 562 b 697 365 675 482 697 430 b 631 207 697 300 675 247 b 460 147 586 167 529 147 b 288 207 389 147 332 167 b 221 365 243 247 221 300 b 288 522 221 430 243 482 b 460 582 332 562 389 582 z m 343 1008 b 236 951 299 1008 263 989 b 192 796 209 913 194 862 l 311 796 b 331 850 316 821 322 839 b 364 867 339 861 350 867 b 393 862 373 867 383 865 b 440 839 403 859 419 851 b 515 804 471 821 496 810 b 575 796 535 799 555 796 b 682 853 619 796 655 815 b 726 1008 709 891 724 943 l 607 1008 b 588 954 602 983 596 965 b 554 938 579 943 568 938 b 524 943 545 938 535 939 b 478 965 514 947 498 954 b 403 1000 447 983 422 994 b 343 1008 383 1006 363 1008 z "},"ö":{"ha":918,"x_min":0,"x_max":0,"o":"m 460 744 b 153 638 337 744 234 709 b 32 365 72 566 32 475 b 153 92 32 254 72 163 b 460 -15 234 20 337 -15 b 764 92 582 -15 683 20 b 885 365 844 163 885 254 b 764 638 885 475 844 566 b 460 744 683 709 582 744 z m 460 582 b 631 522 529 582 586 562 b 697 365 675 482 697 430 b 631 207 697 300 675 247 b 460 147 586 167 529 147 b 288 207 389 147 332 167 b 221 365 243 247 221 300 b 288 522 221 430 243 482 b 460 582 332 562 389 582 z m 388 817 l 388 997 l 188 997 l 188 817 z m 729 817 l 729 997 l 529 997 l 529 817 z "},"÷":{"ha":1111,"x_min":0,"x_max":0,"o":"m 658 715 l 658 917 l 450 917 l 450 715 z m 1028 408 l 1028 575 l 83 575 l 83 408 z m 658 67 l 658 268 l 450 268 l 450 67 z "},"ø":{"ha":918,"x_min":0,"x_max":0,"o":"m 33 365 b 55 238 33 320 41 277 b 117 131 69 198 90 162 l 39 51 l 136 -40 l 221 44 b 333 0 255 25 292 10 b 460 -15 373 -10 415 -15 b 764 92 582 -15 683 20 b 885 365 844 163 885 254 b 863 492 885 410 878 452 b 801 600 849 531 828 568 l 879 678 l 783 771 l 697 685 b 587 729 664 704 627 719 b 460 744 547 739 504 744 b 154 638 337 744 235 709 b 33 365 74 567 33 476 z m 460 592 b 519 585 480 592 500 590 b 574 568 539 581 557 575 l 247 242 b 222 299 236 259 228 278 b 214 365 217 320 214 342 b 283 529 214 433 237 488 b 460 592 328 571 388 592 z m 460 139 b 399 144 438 139 418 141 b 344 161 379 148 361 154 l 671 486 b 696 429 682 469 690 450 b 704 365 701 409 704 388 b 636 201 704 297 681 242 b 460 139 591 159 532 139 z "},"ù":{"ha":917,"x_min":0,"x_max":0,"o":"m 649 731 l 649 363 b 596 210 649 297 631 246 b 447 156 561 174 511 156 b 310 205 387 156 341 172 b 264 350 279 238 264 286 l 264 731 l 69 731 l 69 317 b 156 75 69 216 98 135 b 386 -15 213 15 290 -15 b 535 13 441 -15 491 -6 b 649 92 580 31 618 57 l 649 0 l 843 0 l 843 731 z m 417 997 l 167 997 l 397 796 l 561 796 z "},"ú":{"ha":917,"x_min":0,"x_max":0,"o":"m 649 731 l 649 363 b 596 210 649 297 631 246 b 447 156 561 174 511 156 b 310 205 387 156 341 172 b 264 350 279 238 264 286 l 264 731 l 69 731 l 69 317 b 156 75 69 216 98 135 b 386 -15 213 15 290 -15 b 535 13 441 -15 491 -6 b 649 92 580 31 618 57 l 649 0 l 843 0 l 843 731 z m 524 796 l 754 997 l 504 997 l 360 796 z "},"û":{"ha":917,"x_min":0,"x_max":0,"o":"m 649 731 l 649 363 b 596 210 649 297 631 246 b 447 156 561 174 511 156 b 310 205 387 156 341 172 b 264 350 279 238 264 286 l 264 731 l 69 731 l 69 317 b 156 75 69 216 98 135 b 386 -15 213 15 290 -15 b 535 13 441 -15 491 -6 b 649 92 580 31 618 57 l 649 0 l 843 0 l 843 731 z m 357 997 l 178 796 l 329 796 l 456 876 l 582 796 l 733 796 l 554 997 z "},"ü":{"ha":917,"x_min":0,"x_max":0,"o":"m 649 731 l 649 363 b 596 210 649 297 631 246 b 447 156 561 174 511 156 b 310 205 387 156 341 172 b 264 350 279 238 264 286 l 264 731 l 69 731 l 69 317 b 156 75 69 216 98 135 b 386 -15 213 15 290 -15 b 535 13 441 -15 491 -6 b 649 92 580 31 618 57 l 649 0 l 843 0 l 843 731 z m 385 817 l 385 997 l 185 997 l 185 817 z m 726 817 l 726 997 l 526 997 l 526 817 z "},"ý":{"ha":914,"x_min":0,"x_max":0,"o":"m 917 731 l 708 731 l 464 210 l 214 731 l -3 731 l 357 18 l 350 -4 b 297 -76 338 -37 320 -60 b 203 -99 273 -91 242 -99 b 151 -92 185 -99 168 -97 b 96 -71 134 -88 115 -81 l 61 -229 b 133 -251 78 -237 102 -245 b 219 -260 164 -257 193 -260 b 408 -212 297 -260 360 -244 b 535 -51 456 -180 499 -126 z m 524 796 l 754 997 l 504 997 l 360 796 z "},"þ":{"ha":974,"x_min":0,"x_max":0,"o":"m 940 365 b 831 638 940 475 904 566 b 543 744 757 709 662 744 b 385 717 486 744 433 735 b 269 642 337 698 298 673 l 269 997 l 75 997 l 75 -247 l 269 -247 l 269 88 b 385 13 298 56 337 31 b 543 -15 433 -6 486 -15 b 831 92 662 -15 757 20 b 940 365 904 163 940 254 z m 508 586 b 685 525 580 586 638 566 b 754 365 731 484 754 431 b 685 204 754 299 731 245 b 508 143 638 163 580 143 b 333 206 439 143 380 164 b 261 360 285 247 261 299 l 261 369 b 332 524 261 431 285 483 b 508 586 379 566 438 586 z "},"ÿ":{"ha":914,"x_min":0,"x_max":0,"o":"m 917 731 l 708 731 l 464 210 l 214 731 l -3 731 l 357 18 l 350 -4 b 297 -76 338 -37 320 -60 b 203 -99 273 -91 242 -99 b 151 -92 185 -99 168 -97 b 96 -71 134 -88 115 -81 l 61 -229 b 133 -251 78 -237 102 -245 b 219 -260 164 -257 193 -260 b 408 -212 297 -260 360 -244 b 535 -51 456 -180 499 -126 z m 386 817 l 386 997 l 186 997 l 186 817 z m 728 817 l 728 997 l 528 997 l 528 817 z "},"Ā":{"ha":1217,"x_min":0,"x_max":0,"o":"m -10 0 l 208 0 l 325 232 l 889 232 l 1004 0 l 1225 0 l 722 997 l 493 997 z m 801 406 l 411 406 l 607 796 z m 879 1217 l 335 1217 l 335 1065 l 879 1065 z "},"ā":{"ha":921,"x_min":0,"x_max":0,"o":"m 644 90 b 740 3 663 48 695 19 b 826 -10 765 -6 794 -10 b 914 0 853 -10 882 -6 l 914 146 b 863 139 894 141 876 139 b 836 142 851 138 843 139 b 813 186 820 148 813 163 l 813 474 b 719 674 813 561 781 628 b 450 744 656 721 567 744 b 199 686 356 744 272 725 b 56 533 125 647 78 596 l 224 476 b 304 556 237 509 263 535 b 443 588 345 577 391 588 b 577 558 500 588 545 578 b 625 476 609 538 625 511 l 625 471 l 321 439 b 106 366 228 430 157 405 b 31 211 56 327 31 275 b 115 46 31 142 59 87 b 338 -15 171 5 245 -15 b 511 13 400 -15 457 -6 b 644 90 565 31 609 57 z m 364 133 b 257 155 318 133 282 141 b 219 217 232 169 219 190 b 249 274 219 242 229 261 b 350 301 269 287 303 296 l 625 332 l 625 282 b 547 176 625 239 599 204 b 364 133 495 147 434 133 z m 694 967 l 186 967 l 186 819 l 694 819 z "},"Ă":{"ha":1217,"x_min":0,"x_max":0,"o":"m -10 0 l 208 0 l 325 232 l 889 232 l 1004 0 l 1225 0 l 722 997 l 493 997 z m 801 406 l 411 406 l 607 796 z m 607 1179 b 510 1203 568 1179 536 1187 b 472 1264 485 1219 472 1239 l 329 1264 b 404 1108 329 1199 354 1147 b 607 1049 454 1068 522 1049 b 810 1108 692 1049 760 1068 b 885 1264 860 1147 885 1199 l 742 1264 b 703 1203 742 1239 729 1219 b 607 1179 678 1187 646 1179 z "},"ă":{"ha":921,"x_min":0,"x_max":0,"o":"m 644 90 b 740 3 663 48 695 19 b 826 -10 765 -6 794 -10 b 914 0 853 -10 882 -6 l 914 146 b 863 139 894 141 876 139 b 836 142 851 138 843 139 b 813 186 820 148 813 163 l 813 474 b 719 674 813 561 781 628 b 450 744 656 721 567 744 b 199 686 356 744 272 725 b 56 533 125 647 78 596 l 224 476 b 304 556 237 509 263 535 b 443 588 345 577 391 588 b 577 558 500 588 545 578 b 625 476 609 538 625 511 l 625 471 l 321 439 b 106 366 228 430 157 405 b 31 211 56 327 31 275 b 115 46 31 142 59 87 b 338 -15 171 5 245 -15 b 511 13 400 -15 457 -6 b 644 90 565 31 609 57 z m 364 133 b 257 155 318 133 282 141 b 219 217 232 169 219 190 b 249 274 219 242 229 261 b 350 301 269 287 303 296 l 625 332 l 625 282 b 547 176 625 239 599 204 b 364 133 495 147 434 133 z m 460 919 b 369 940 421 919 391 926 b 333 997 348 953 336 972 l 200 997 b 269 846 201 932 224 882 b 460 792 315 810 378 792 b 650 846 541 792 605 810 b 719 997 695 882 719 932 l 586 997 b 550 940 583 972 571 953 b 460 919 529 926 499 919 z "},"Ą":{"ha":1217,"x_min":0,"x_max":0,"o":"m 1018 -256 b 1065 -253 1032 -256 1047 -255 b 1122 -244 1082 -251 1101 -248 l 1122 -131 b 1088 -137 1111 -133 1100 -135 b 1053 -139 1077 -138 1065 -139 b 991 -127 1027 -139 1006 -135 b 968 -96 976 -119 968 -109 b 1005 -47 968 -78 980 -62 b 1122 0 1029 -32 1069 -17 l 1225 0 l 722 997 l 493 997 l -10 0 l 208 0 l 325 232 l 889 232 l 985 39 b 874 -36 937 19 900 -6 b 836 -132 849 -66 836 -98 b 887 -222 836 -169 853 -199 b 1018 -256 921 -244 964 -256 z m 801 406 l 411 406 l 607 796 z "},"ą":{"ha":921,"x_min":0,"x_max":0,"o":"m 644 90 b 676 42 652 72 662 56 b 722 11 689 29 705 19 b 652 -55 692 -8 668 -30 b 628 -132 636 -79 628 -105 b 678 -222 628 -169 645 -199 b 810 -256 712 -244 756 -256 b 856 -253 824 -256 839 -255 b 914 -244 873 -251 893 -248 l 914 -131 b 880 -137 903 -133 891 -135 b 844 -139 868 -138 856 -139 b 783 -127 819 -139 798 -135 b 760 -96 767 -119 760 -109 b 797 -47 760 -78 772 -62 b 914 0 821 -32 860 -17 l 914 146 b 863 139 894 141 876 139 b 836 142 851 138 843 139 b 813 186 820 148 813 163 l 813 474 b 719 674 813 561 781 628 b 450 744 656 721 567 744 b 199 686 356 744 272 725 b 56 533 125 647 78 596 l 224 476 b 304 556 237 509 263 535 b 443 588 345 577 391 588 b 577 558 500 588 545 578 b 625 476 609 538 625 511 l 625 471 l 321 439 b 106 366 228 430 157 405 b 31 211 56 327 31 275 b 115 46 31 142 59 87 b 338 -15 171 5 245 -15 b 511 13 400 -15 457 -6 b 644 90 565 31 609 57 z m 364 133 b 257 155 318 133 282 141 b 219 217 232 169 219 190 b 249 274 219 242 229 261 b 350 301 269 287 303 296 l 625 332 l 625 282 b 547 176 625 239 599 204 b 364 133 495 147 434 133 z "},"Ć":{"ha":1160,"x_min":0,"x_max":0,"o":"m 622 833 b 840 776 707 833 780 814 b 974 610 899 737 944 682 l 1150 699 b 953 930 1111 798 1045 875 b 621 1013 860 985 750 1013 b 199 866 451 1013 311 964 b 32 499 88 768 32 646 b 199 131 32 351 88 229 b 621 -15 311 34 451 -15 b 953 67 750 -15 860 12 b 1150 299 1045 122 1111 200 l 974 388 b 840 222 944 315 899 260 b 622 164 780 183 707 164 b 348 258 511 164 420 195 b 240 499 276 320 240 400 b 348 740 240 597 276 677 b 622 833 420 802 511 833 z m 694 1054 l 958 1264 l 682 1264 l 519 1054 z "},"ć":{"ha":858,"x_min":0,"x_max":0,"o":"m 464 583 b 603 541 516 583 562 569 b 688 432 645 513 673 476 l 850 511 b 707 679 825 580 777 636 b 465 744 637 723 556 744 b 154 638 339 744 236 709 b 32 365 73 567 32 476 b 154 92 32 254 73 163 b 465 -15 236 20 339 -15 b 706 49 556 -15 636 6 b 849 215 776 92 824 148 l 688 297 b 603 188 673 253 645 216 b 464 146 562 160 516 146 b 288 206 392 146 333 166 b 221 365 243 247 221 300 b 288 524 221 431 243 484 b 464 583 333 563 392 583 z m 525 796 l 756 997 l 506 997 l 361 796 z "},"Ĉ":{"ha":1160,"x_min":0,"x_max":0,"o":"m 622 833 b 840 776 707 833 780 814 b 974 610 899 737 944 682 l 1150 699 b 953 930 1111 798 1045 875 b 621 1013 860 985 750 1013 b 199 866 451 1013 311 964 b 32 499 88 768 32 646 b 199 131 32 351 88 229 b 621 -15 311 34 451 -15 b 953 67 750 -15 860 12 b 1150 299 1045 122 1111 200 l 974 388 b 840 222 944 315 899 260 b 622 164 780 183 707 164 b 348 258 511 164 420 195 b 240 499 276 320 240 400 b 348 740 240 597 276 677 b 622 833 420 802 511 833 z m 510 1264 l 310 1054 l 471 1054 l 618 1147 l 765 1054 l 926 1054 l 726 1264 z "},"ĉ":{"ha":858,"x_min":0,"x_max":0,"o":"m 464 583 b 603 541 516 583 562 569 b 688 432 645 513 673 476 l 850 511 b 707 679 825 580 777 636 b 465 744 637 723 556 744 b 154 638 339 744 236 709 b 32 365 73 567 32 476 b 154 92 32 254 73 163 b 465 -15 236 20 339 -15 b 706 49 556 -15 636 6 b 849 215 776 92 824 148 l 688 297 b 603 188 673 253 645 216 b 464 146 562 160 516 146 b 288 206 392 146 333 166 b 221 365 243 247 221 300 b 288 524 221 431 243 484 b 464 583 333 563 392 583 z m 360 997 l 181 796 l 332 796 l 458 876 l 585 796 l 736 796 l 557 997 z "},"Ċ":{"ha":1160,"x_min":0,"x_max":0,"o":"m 622 833 b 840 776 707 833 780 814 b 974 610 899 737 944 682 l 1150 699 b 953 930 1111 798 1045 875 b 621 1013 860 985 750 1013 b 199 866 451 1013 311 964 b 32 499 88 768 32 646 b 199 131 32 351 88 229 b 621 -15 311 34 451 -15 b 953 67 750 -15 860 12 b 1150 299 1045 122 1111 200 l 974 388 b 840 222 944 315 899 260 b 622 164 780 183 707 164 b 348 258 511 164 420 195 b 240 499 276 320 240 400 b 348 740 240 597 276 677 b 622 833 420 802 511 833 z m 715 1054 l 715 1238 l 507 1238 l 507 1054 z "},"ċ":{"ha":858,"x_min":0,"x_max":0,"o":"m 464 583 b 603 541 516 583 562 569 b 688 432 645 513 673 476 l 850 511 b 707 679 825 580 777 636 b 465 744 637 723 556 744 b 154 638 339 744 236 709 b 32 365 73 567 32 476 b 154 92 32 254 73 163 b 465 -15 236 20 339 -15 b 706 49 556 -15 636 6 b 849 215 776 92 824 148 l 688 297 b 603 188 673 253 645 216 b 464 146 562 160 516 146 b 288 206 392 146 333 166 b 221 365 243 247 221 300 b 288 524 221 431 243 484 b 464 583 333 563 392 583 z m 557 817 l 557 997 l 357 997 l 357 817 z "},"Č":{"ha":1160,"x_min":0,"x_max":0,"o":"m 622 833 b 840 776 707 833 780 814 b 974 610 899 737 944 682 l 1150 699 b 953 930 1111 798 1045 875 b 621 1013 860 985 750 1013 b 199 866 451 1013 311 964 b 32 499 88 768 32 646 b 199 131 32 351 88 229 b 621 -15 311 34 451 -15 b 953 67 750 -15 860 12 b 1150 299 1045 122 1111 200 l 974 388 b 840 222 944 315 899 260 b 622 164 780 183 707 164 b 348 258 511 164 420 195 b 240 499 276 320 240 400 b 348 740 240 597 276 677 b 622 833 420 802 511 833 z m 928 1264 l 767 1264 l 619 1171 l 472 1264 l 311 1264 l 511 1054 l 728 1054 z "},"č":{"ha":858,"x_min":0,"x_max":0,"o":"m 464 583 b 603 541 516 583 562 569 b 688 432 645 513 673 476 l 850 511 b 707 679 825 580 777 636 b 465 744 637 723 556 744 b 154 638 339 744 236 709 b 32 365 73 567 32 476 b 154 92 32 254 73 163 b 465 -15 236 20 339 -15 b 706 49 556 -15 636 6 b 849 215 776 92 824 148 l 688 297 b 603 188 673 253 645 216 b 464 146 562 160 516 146 b 288 206 392 146 333 166 b 221 365 243 247 221 300 b 288 524 221 431 243 484 b 464 583 333 563 392 583 z m 739 997 l 588 997 l 461 917 l 335 997 l 183 997 l 363 796 l 560 796 z "},"Ď":{"ha":1199,"x_min":0,"x_max":0,"o":"m 597 0 b 1014 135 772 0 911 45 b 1168 499 1117 225 1168 346 b 1014 863 1168 651 1117 773 b 597 997 911 952 772 997 l 88 997 l 88 0 z m 288 822 l 597 822 b 863 735 709 822 798 793 b 960 499 927 678 960 599 b 863 262 960 399 927 320 b 597 175 798 204 709 175 l 288 175 z m 860 1264 l 699 1264 l 551 1171 l 404 1264 l 243 1264 l 443 1054 l 660 1054 z "},"ď":{"ha":974,"x_min":0,"x_max":0,"o":"m 431 -15 b 589 13 488 -15 541 -6 b 704 88 637 31 675 56 l 704 0 l 899 0 l 899 997 l 704 997 l 704 642 b 589 717 675 673 637 698 b 431 744 541 735 488 744 b 143 638 312 744 216 709 b 33 365 70 566 33 475 b 143 92 33 254 70 163 b 431 -15 216 20 312 -15 z m 713 360 b 641 206 713 299 689 247 b 465 143 593 164 535 143 b 289 204 394 143 335 163 b 219 365 243 245 219 299 b 289 525 219 431 243 484 b 465 586 335 566 394 586 b 642 524 536 586 594 566 b 713 369 689 483 713 431 z m 1094 767 l 1210 997 l 997 997 l 963 767 z "},"Đ":{"ha":1254,"x_min":0,"x_max":0,"o":"m 653 0 b 1069 135 828 0 967 45 b 1224 499 1172 225 1224 346 b 1069 863 1224 651 1172 773 b 653 997 967 952 828 997 l 143 997 l 143 597 l 7 597 l 7 424 l 143 424 l 143 0 z m 343 424 l 571 424 l 571 597 l 343 597 l 343 822 l 653 822 b 918 735 765 822 853 793 b 1015 499 983 678 1015 599 b 918 262 1015 399 983 320 b 653 175 853 204 765 175 l 343 175 z "},"đ":{"ha":1024,"x_min":0,"x_max":0,"o":"m 431 -15 b 589 13 488 -15 541 -6 b 704 88 637 31 675 56 l 704 0 l 899 0 l 899 783 l 999 783 l 999 925 l 899 925 l 899 997 l 704 997 l 704 925 l 494 925 l 494 783 l 704 783 l 704 642 b 589 717 675 673 637 698 b 431 744 541 735 488 744 b 143 638 312 744 216 709 b 33 365 70 566 33 475 b 143 92 33 254 70 163 b 431 -15 216 20 312 -15 z m 713 360 b 641 206 713 299 689 247 b 465 143 593 164 535 143 b 289 204 394 143 335 163 b 219 365 243 245 219 299 b 289 525 219 431 243 484 b 465 586 335 566 394 586 b 642 524 536 586 594 566 b 713 369 689 483 713 431 z "},"Ē":{"ha":1096,"x_min":0,"x_max":0,"o":"m 88 0 l 1053 0 l 1053 176 l 289 176 l 289 424 l 974 424 l 974 599 l 289 599 l 289 821 l 1053 821 l 1053 997 l 88 997 z m 839 1217 l 294 1217 l 294 1065 l 839 1065 z "},"ē":{"ha":899,"x_min":0,"x_max":0,"o":"m 464 -15 b 708 47 555 -15 636 5 b 854 206 779 88 828 141 l 689 276 b 603 178 672 235 644 202 b 464 143 563 155 517 143 b 303 188 400 143 346 158 b 219 311 259 218 231 259 l 867 311 l 867 372 b 756 640 867 481 830 571 b 463 744 681 710 584 744 b 153 637 338 744 234 709 b 32 365 72 565 32 475 b 153 91 32 253 72 162 b 464 -15 233 20 337 -15 z m 456 589 b 603 546 512 589 561 575 b 675 443 644 517 669 483 l 226 443 b 310 550 241 488 269 524 b 456 589 350 576 399 589 z m 708 967 l 200 967 l 200 819 l 708 819 z "},"Ĕ":{"ha":1096,"x_min":0,"x_max":0,"o":"m 88 0 l 1053 0 l 1053 176 l 289 176 l 289 424 l 974 424 l 974 599 l 289 599 l 289 821 l 1053 821 l 1053 997 l 88 997 z m 567 1179 b 470 1203 528 1179 496 1187 b 432 1264 445 1219 432 1239 l 289 1264 b 364 1108 289 1199 314 1147 b 567 1049 414 1068 481 1049 b 769 1108 652 1049 719 1068 b 844 1264 819 1147 844 1199 l 701 1264 b 663 1203 701 1239 689 1219 b 567 1179 638 1187 606 1179 z "},"ĕ":{"ha":899,"x_min":0,"x_max":0,"o":"m 464 -15 b 708 47 555 -15 636 5 b 854 206 779 88 828 141 l 689 276 b 603 178 672 235 644 202 b 464 143 563 155 517 143 b 303 188 400 143 346 158 b 219 311 259 218 231 259 l 867 311 l 867 372 b 756 640 867 481 830 571 b 463 744 681 710 584 744 b 153 637 338 744 234 709 b 32 365 72 565 32 475 b 153 91 32 253 72 162 b 464 -15 233 20 337 -15 z m 456 589 b 603 546 512 589 561 575 b 675 443 644 517 669 483 l 226 443 b 310 550 241 488 269 524 b 456 589 350 576 399 589 z m 458 919 b 368 940 419 919 389 926 b 332 997 347 953 335 972 l 199 997 b 268 846 200 932 223 882 b 458 792 313 810 377 792 b 649 846 540 792 603 810 b 718 997 694 882 717 932 l 585 997 b 549 940 582 972 570 953 b 458 919 527 926 497 919 z "},"Ė":{"ha":1096,"x_min":0,"x_max":0,"o":"m 88 0 l 1053 0 l 1053 176 l 289 176 l 289 424 l 974 424 l 974 599 l 289 599 l 289 821 l 1053 821 l 1053 997 l 88 997 z m 671 1054 l 671 1238 l 463 1238 l 463 1054 z "},"ė":{"ha":899,"x_min":0,"x_max":0,"o":"m 464 -15 b 708 47 555 -15 636 5 b 854 206 779 88 828 141 l 689 276 b 603 178 672 235 644 202 b 464 143 563 155 517 143 b 303 188 400 143 346 158 b 219 311 259 218 231 259 l 867 311 l 867 372 b 756 640 867 481 830 571 b 463 744 681 710 584 744 b 153 637 338 744 234 709 b 32 365 72 565 32 475 b 153 91 32 253 72 162 b 464 -15 233 20 337 -15 z m 456 589 b 603 546 512 589 561 575 b 675 443 644 517 669 483 l 226 443 b 310 550 241 488 269 524 b 456 589 350 576 399 589 z m 551 817 l 551 997 l 351 997 l 351 817 z "},"Ę":{"ha":1096,"x_min":0,"x_max":0,"o":"m 846 -256 b 892 -253 860 -256 875 -255 b 950 -244 909 -251 929 -248 l 950 -131 b 916 -137 939 -133 928 -135 b 881 -139 904 -138 893 -139 b 819 -127 855 -139 834 -135 b 796 -96 803 -119 796 -109 b 833 -47 796 -78 808 -62 b 950 0 857 -32 896 -17 l 1053 0 l 1053 176 l 289 176 l 289 424 l 974 424 l 974 599 l 289 599 l 289 821 l 1053 821 l 1053 997 l 88 997 l 88 0 l 743 0 b 684 -60 717 -18 697 -38 b 664 -132 671 -83 664 -107 b 715 -222 664 -169 681 -199 b 846 -256 748 -244 792 -256 z "},"ę":{"ha":899,"x_min":0,"x_max":0,"o":"m 650 18 b 776 97 699 38 741 64 b 854 206 812 129 838 166 l 689 276 b 602 178 671 235 642 202 b 461 143 562 155 515 143 b 302 188 398 143 345 158 b 219 311 259 218 231 259 l 867 311 l 867 372 b 756 640 867 481 830 571 b 463 744 681 710 584 744 b 153 637 338 744 234 709 b 32 365 72 565 32 475 b 148 94 32 255 71 165 b 449 -15 225 24 325 -12 b 419 -63 436 -30 426 -46 b 408 -118 412 -80 408 -99 b 459 -218 408 -160 425 -193 b 590 -256 493 -243 537 -256 b 636 -253 604 -256 619 -255 b 693 -244 653 -251 672 -248 l 693 -131 b 660 -137 683 -133 672 -135 b 625 -139 649 -138 637 -139 b 561 -123 598 -139 577 -134 b 538 -81 545 -112 538 -98 b 565 -28 538 -61 547 -44 b 650 18 584 -12 612 3 z m 456 589 b 602 545 511 589 560 574 b 675 443 644 516 669 482 l 226 443 b 310 550 241 488 269 524 b 456 589 352 576 400 589 z "},"Ě":{"ha":1096,"x_min":0,"x_max":0,"o":"m 88 0 l 1053 0 l 1053 176 l 289 176 l 289 424 l 974 424 l 974 599 l 289 599 l 289 821 l 1053 821 l 1053 997 l 88 997 z m 875 1264 l 714 1264 l 567 1171 l 419 1264 l 258 1264 l 458 1054 l 675 1054 z "},"ě":{"ha":899,"x_min":0,"x_max":0,"o":"m 464 -15 b 708 47 555 -15 636 5 b 854 206 779 88 828 141 l 689 276 b 603 178 672 235 644 202 b 464 143 563 155 517 143 b 303 188 400 143 346 158 b 219 311 259 218 231 259 l 867 311 l 867 372 b 756 640 867 481 830 571 b 463 744 681 710 584 744 b 153 637 338 744 234 709 b 32 365 72 565 32 475 b 153 91 32 253 72 162 b 464 -15 233 20 337 -15 z m 456 589 b 603 546 512 589 561 575 b 675 443 644 517 669 483 l 226 443 b 310 550 241 488 269 524 b 456 589 350 576 399 589 z m 736 997 l 585 997 l 458 917 l 332 997 l 181 997 l 360 796 l 557 796 z "},"Ĝ":{"ha":1246,"x_min":0,"x_max":0,"o":"m 1182 0 l 1182 546 l 543 546 l 543 374 l 992 374 b 876 223 985 313 947 263 b 626 163 805 183 722 163 b 349 256 513 163 421 194 b 242 499 278 319 242 400 b 351 740 242 598 278 678 b 632 833 423 802 517 833 b 852 778 718 833 791 815 b 988 618 913 741 958 688 l 1167 704 b 968 931 1128 801 1062 877 b 633 1013 875 985 763 1013 b 202 868 459 1013 316 964 b 32 501 89 772 32 650 b 199 131 32 351 88 228 b 625 -15 311 33 453 -15 b 844 22 704 -15 777 -3 b 990 117 911 46 960 78 l 990 0 z m 526 1264 l 326 1054 l 488 1054 l 635 1147 l 782 1054 l 943 1054 l 743 1264 z "},"ĝ":{"ha":967,"x_min":0,"x_max":0,"o":"m 892 731 l 697 731 l 697 646 b 580 719 666 677 627 702 b 425 744 533 736 481 744 b 138 641 307 744 212 710 b 28 379 65 572 28 485 b 138 115 28 272 64 184 b 425 11 211 46 306 11 b 580 38 481 11 533 20 b 697 113 627 55 666 80 l 697 85 b 626 -57 697 25 673 -22 b 440 -110 578 -92 516 -110 b 282 -74 380 -110 327 -98 b 186 24 237 -51 205 -18 l 32 -71 b 185 -212 62 -131 113 -178 b 443 -262 258 -246 344 -262 b 767 -162 576 -262 684 -229 b 892 103 850 -95 892 -6 z m 707 376 b 637 226 707 315 684 265 b 460 168 590 188 531 168 b 285 226 389 168 331 188 b 217 379 240 265 217 316 b 285 531 217 441 240 492 b 460 589 331 569 389 589 b 636 531 530 589 589 569 b 707 382 683 492 707 442 z m 369 997 l 190 796 l 342 796 l 468 876 l 594 796 l 746 796 l 567 997 z "},"Ğ":{"ha":1246,"x_min":0,"x_max":0,"o":"m 1182 0 l 1182 546 l 543 546 l 543 374 l 992 374 b 876 223 985 313 947 263 b 626 163 805 183 722 163 b 349 256 513 163 421 194 b 242 499 278 319 242 400 b 351 740 242 598 278 678 b 632 833 423 802 517 833 b 852 778 718 833 791 815 b 988 618 913 741 958 688 l 1167 704 b 968 931 1128 801 1062 877 b 633 1013 875 985 763 1013 b 202 868 459 1013 316 964 b 32 501 89 772 32 650 b 199 131 32 351 88 228 b 625 -15 311 33 453 -15 b 844 22 704 -15 777 -3 b 990 117 911 46 960 78 l 990 0 z m 635 1179 b 538 1203 596 1179 564 1187 b 500 1264 513 1219 500 1239 l 357 1264 b 432 1108 357 1199 382 1147 b 635 1049 482 1068 550 1049 b 838 1108 720 1049 788 1068 b 913 1264 888 1147 913 1199 l 769 1264 b 731 1203 769 1239 757 1219 b 635 1179 706 1187 674 1179 z "},"ğ":{"ha":967,"x_min":0,"x_max":0,"o":"m 892 731 l 697 731 l 697 646 b 580 719 666 677 627 702 b 425 744 533 736 481 744 b 138 641 307 744 212 710 b 28 379 65 572 28 485 b 138 115 28 272 64 184 b 425 11 211 46 306 11 b 580 38 481 11 533 20 b 697 113 627 55 666 80 l 697 85 b 626 -57 697 25 673 -22 b 440 -110 578 -92 516 -110 b 282 -74 380 -110 327 -98 b 186 24 237 -51 205 -18 l 32 -71 b 185 -212 62 -131 113 -178 b 443 -262 258 -246 344 -262 b 767 -162 576 -262 684 -229 b 892 103 850 -95 892 -6 z m 707 376 b 637 226 707 315 684 265 b 460 168 590 188 531 168 b 285 226 389 168 331 188 b 217 379 240 265 217 316 b 285 531 217 441 240 492 b 460 589 331 569 389 589 b 636 531 530 589 589 569 b 707 382 683 492 707 442 z m 472 919 b 382 940 433 919 403 926 b 346 997 361 953 349 972 l 213 997 b 282 846 213 932 237 882 b 472 792 327 810 391 792 b 663 846 554 792 617 810 b 732 997 708 882 731 932 l 599 997 b 563 940 596 972 584 953 b 472 919 541 926 511 919 z "},"Ġ":{"ha":1246,"x_min":0,"x_max":0,"o":"m 1182 0 l 1182 546 l 543 546 l 543 374 l 992 374 b 876 223 985 313 947 263 b 626 163 805 183 722 163 b 349 256 513 163 421 194 b 242 499 278 319 242 400 b 351 740 242 598 278 678 b 632 833 423 802 517 833 b 852 778 718 833 791 815 b 988 618 913 741 958 688 l 1167 704 b 968 931 1128 801 1062 877 b 633 1013 875 985 763 1013 b 202 868 459 1013 316 964 b 32 501 89 772 32 650 b 199 131 32 351 88 228 b 625 -15 311 33 453 -15 b 844 22 704 -15 777 -3 b 990 117 911 46 960 78 l 990 0 z m 736 1054 l 736 1238 l 528 1238 l 528 1054 z "},"ġ":{"ha":967,"x_min":0,"x_max":0,"o":"m 892 731 l 697 731 l 697 646 b 580 719 666 677 627 702 b 425 744 533 736 481 744 b 138 641 307 744 212 710 b 28 379 65 572 28 485 b 138 115 28 272 64 184 b 425 11 211 46 306 11 b 580 38 481 11 533 20 b 697 113 627 55 666 80 l 697 85 b 626 -57 697 25 673 -22 b 440 -110 578 -92 516 -110 b 282 -74 380 -110 327 -98 b 186 24 237 -51 205 -18 l 32 -71 b 185 -212 62 -131 113 -178 b 443 -262 258 -246 344 -262 b 767 -162 576 -262 684 -229 b 892 103 850 -95 892 -6 z m 707 376 b 637 226 707 315 684 265 b 460 168 590 188 531 168 b 285 226 389 168 331 188 b 217 379 240 265 217 316 b 285 531 217 441 240 492 b 460 589 331 569 389 589 b 636 531 530 589 589 569 b 707 382 683 492 707 442 z m 578 817 l 578 997 l 378 997 l 378 817 z "},"Ģ":{"ha":1246,"x_min":0,"x_max":0,"o":"m 1182 0 l 1182 546 l 543 546 l 543 374 l 992 374 b 876 223 985 313 947 263 b 626 163 805 183 722 163 b 349 256 513 163 421 194 b 242 499 278 319 242 400 b 351 740 242 598 278 678 b 632 833 423 802 517 833 b 852 778 718 833 791 815 b 988 618 913 741 958 688 l 1167 704 b 968 931 1128 801 1062 877 b 633 1013 875 985 763 1013 b 202 868 459 1013 316 964 b 32 501 89 772 32 650 b 199 131 32 351 88 228 b 625 -15 311 33 453 -15 b 844 22 704 -15 777 -3 b 990 117 911 46 960 78 l 990 0 z m 585 -165 b 564 -199 582 -181 575 -192 b 513 -210 553 -206 536 -210 l 513 -287 b 656 -246 574 -287 621 -274 b 707 -126 690 -218 707 -178 l 707 -47 l 513 -47 l 513 -165 z "},"ģ":{"ha":967,"x_min":0,"x_max":0,"o":"m 892 731 l 697 731 l 697 646 b 580 719 666 677 627 702 b 425 744 533 736 481 744 b 138 641 307 744 212 710 b 28 379 65 572 28 485 b 138 115 28 272 64 184 b 425 11 211 46 306 11 b 580 38 481 11 533 20 b 697 113 627 55 666 80 l 697 85 b 626 -57 697 25 673 -22 b 440 -110 578 -92 516 -110 b 282 -74 380 -110 327 -98 b 186 24 237 -51 205 -18 l 32 -71 b 185 -212 62 -131 113 -178 b 443 -262 258 -246 344 -262 b 767 -162 576 -262 684 -229 b 892 103 850 -95 892 -6 z m 707 376 b 637 226 707 315 684 265 b 460 168 590 188 531 168 b 285 226 389 168 331 188 b 217 379 240 265 217 316 b 285 531 217 441 240 492 b 460 589 331 569 389 589 b 636 531 530 589 589 569 b 707 382 683 492 707 442 z m 503 914 b 524 948 506 930 513 941 b 575 958 535 955 552 958 l 575 1036 b 432 994 514 1036 466 1022 b 381 875 398 967 381 927 l 381 796 l 575 796 l 575 914 z "},"Ĥ":{"ha":1224,"x_min":0,"x_max":0,"o":"m 932 600 l 292 600 l 292 997 l 88 997 l 88 0 l 292 0 l 292 424 l 932 424 l 932 0 l 1138 0 l 1138 997 l 932 997 z m 493 1264 l 293 1054 l 454 1054 l 601 1147 l 749 1054 l 910 1054 l 710 1264 z "},"ĥ":{"ha":924,"x_min":0,"x_max":0,"o":"m 269 0 l 269 358 b 323 514 269 425 287 477 b 472 569 359 551 408 569 b 610 515 531 569 578 551 b 660 361 643 478 660 427 l 660 0 l 854 0 l 854 407 b 768 653 854 510 825 592 b 536 744 711 714 633 744 b 383 717 481 744 430 735 b 269 639 337 698 299 672 l 269 997 l 75 997 l 75 0 z m 340 1264 l 140 1054 l 301 1054 l 449 1147 l 596 1054 l 757 1054 l 557 1264 z "},"Ħ":{"ha":1290,"x_min":0,"x_max":0,"o":"m 1292 818 l 1171 818 l 1171 997 l 965 997 l 965 818 l 325 818 l 325 997 l 119 997 l 119 818 l 6 818 l 6 646 l 119 646 l 119 0 l 325 0 l 325 329 l 965 329 l 965 0 l 1171 0 l 1171 646 l 1292 646 z m 325 646 l 965 646 l 965 501 l 325 501 z "},"ħ":{"ha":974,"x_min":0,"x_max":0,"o":"m 319 0 l 319 358 b 373 514 319 425 337 477 b 522 569 409 551 458 569 b 660 515 581 569 628 551 b 710 361 693 478 710 427 l 710 0 l 904 0 l 904 407 b 818 653 904 510 875 592 b 586 744 761 714 683 744 b 433 717 531 744 480 735 b 319 639 387 698 349 672 l 319 783 l 542 783 l 542 925 l 319 925 l 319 997 l 125 997 l 125 925 l 25 925 l 25 783 l 125 783 l 125 0 z "},"Ĩ":{"ha":378,"x_min":0,"x_max":0,"o":"m 88 997 l 88 0 l 292 0 l 292 997 z m 50 1282 b -70 1221 0 1282 -40 1262 b -119 1054 -100 1180 -117 1125 l 10 1054 b 31 1113 14 1081 21 1100 b 69 1131 40 1125 53 1131 b 107 1125 81 1131 94 1129 b 167 1099 120 1121 140 1113 b 257 1063 204 1081 234 1069 b 326 1054 280 1057 303 1054 b 446 1115 375 1054 415 1075 b 497 1282 476 1156 494 1212 l 368 1282 b 346 1224 363 1255 355 1236 b 308 1207 337 1213 324 1207 b 270 1213 296 1207 284 1209 b 210 1238 257 1216 237 1225 b 120 1274 173 1256 143 1268 b 50 1282 97 1279 74 1282 z "},"ĩ":{"ha":343,"x_min":0,"x_max":0,"o":"m 75 731 l 75 0 l 269 0 l 269 731 z m 56 1008 b -51 951 11 1008 -25 989 b -96 796 -78 913 -93 862 l 24 796 b 43 850 28 821 35 839 b 76 867 51 861 63 867 b 106 862 86 867 95 865 b 153 839 116 859 131 851 b 228 804 183 821 208 810 b 288 796 247 799 267 796 b 394 853 332 796 368 815 b 439 1008 421 891 436 943 l 319 1008 b 300 954 315 983 308 965 b 267 938 292 943 281 938 b 237 943 257 938 247 939 b 190 965 226 947 211 954 b 115 1000 160 983 135 994 b 56 1008 96 1006 76 1008 z "},"Ī":{"ha":378,"x_min":0,"x_max":0,"o":"m 88 997 l 88 0 l 292 0 l 292 997 z m 461 1217 l -83 1217 l -83 1065 l 461 1065 z "},"ī":{"ha":343,"x_min":0,"x_max":0,"o":"m 75 731 l 75 0 l 269 0 l 269 731 z m 426 967 l -82 967 l -82 819 l 426 819 z "},"Ĭ":{"ha":378,"x_min":0,"x_max":0,"o":"m 88 997 l 88 0 l 292 0 l 292 997 z m 189 1179 b 92 1203 150 1179 118 1187 b 54 1264 67 1219 54 1239 l -89 1264 b -14 1108 -89 1199 -64 1147 b 189 1049 36 1068 104 1049 b 392 1108 274 1049 342 1068 b 467 1264 442 1147 467 1199 l 324 1264 b 285 1203 324 1239 311 1219 b 189 1179 260 1187 228 1179 z "},"ĭ":{"ha":343,"x_min":0,"x_max":0,"o":"m 75 731 l 75 0 l 269 0 l 269 731 z m 172 919 b 82 940 133 919 103 926 b 46 997 61 953 49 972 l -87 997 b -18 846 -87 932 -63 882 b 172 792 27 810 91 792 b 363 846 254 792 317 810 b 432 997 408 882 431 932 l 299 997 b 263 940 296 972 284 953 b 172 919 241 926 211 919 z "},"Į":{"ha":378,"x_min":0,"x_max":0,"o":"m 188 -256 b 234 -253 201 -256 217 -255 b 292 -244 251 -251 270 -248 l 292 -131 b 258 -137 281 -133 269 -135 b 222 -139 246 -138 234 -139 b 160 -127 196 -139 176 -135 b 138 -96 145 -119 138 -109 b 174 -47 138 -78 150 -62 b 292 0 199 -32 238 -17 l 292 997 l 88 997 l 88 3 b 26 -60 61 -16 40 -37 b 6 -132 13 -83 6 -107 b 56 -222 6 -169 22 -199 b 188 -256 90 -244 134 -256 z "},"į":{"ha":343,"x_min":0,"x_max":0,"o":"m 72 997 l 72 817 l 271 817 l 271 997 z m -15 -132 b -1 -185 -15 -152 -10 -170 b 39 -224 9 -201 22 -214 b 97 -248 56 -235 75 -243 b 167 -256 119 -253 143 -256 b 216 -253 182 -256 199 -255 b 271 -244 233 -251 251 -248 l 271 -131 b 233 -137 257 -134 244 -137 b 201 -139 221 -138 211 -139 b 139 -127 175 -139 154 -135 b 117 -96 124 -119 117 -109 b 124 -74 117 -88 119 -81 b 148 -51 128 -66 136 -59 b 195 -26 159 -43 175 -35 b 269 0 215 -18 240 -9 l 269 731 l 75 731 l 75 8 b -15 -132 15 -31 -15 -78 z "},"İ":{"ha":378,"x_min":0,"x_max":0,"o":"m 88 997 l 88 0 l 292 0 l 292 997 z m 293 1054 l 293 1238 l 85 1238 l 85 1054 z "},"ı":{"ha":343,"x_min":0,"x_max":0,"o":"m 75 731 l 75 0 l 269 0 l 269 731 z "},"Ĵ":{"ha":996,"x_min":0,"x_max":0,"o":"m 471 -15 b 808 94 611 -15 723 21 b 936 381 894 166 936 262 l 936 997 l 732 997 l 732 390 b 664 223 732 318 709 262 b 472 164 619 184 555 164 b 290 224 403 164 342 184 b 186 381 237 265 203 317 l 0 275 b 174 65 30 189 88 119 b 471 -15 261 12 360 -15 z m 722 1264 l 522 1054 l 683 1054 l 831 1147 l 978 1054 l 1139 1054 l 939 1264 z "},"ĵ":{"ha":343,"x_min":0,"x_max":0,"o":"m -54 -101 b -108 -97 -74 -101 -91 -100 b -168 -83 -124 -94 -144 -90 l -197 -235 b -123 -253 -178 -242 -153 -248 b -40 -260 -93 -257 -65 -260 b 191 -187 62 -260 139 -236 b 269 25 243 -139 269 -69 l 269 731 l 75 731 l 75 21 b 45 -72 75 -22 65 -53 b -54 -101 25 -92 -8 -101 z m 72 997 l -107 796 l 44 796 l 171 876 l 297 796 l 449 796 l 269 997 z "},"Ķ":{"ha":1151,"x_min":0,"x_max":0,"o":"m 88 997 l 88 0 l 292 0 l 292 294 l 479 450 l 901 0 l 1171 0 l 629 575 l 1139 997 l 851 997 l 292 519 l 292 997 z m 561 -165 b 540 -199 558 -181 551 -192 b 489 -210 529 -206 512 -210 l 489 -287 b 632 -246 550 -287 598 -274 b 683 -126 666 -218 683 -178 l 683 -47 l 489 -47 l 489 -165 z "},"ķ":{"ha":924,"x_min":0,"x_max":0,"o":"m 75 997 l 75 0 l 269 0 l 269 179 l 415 300 l 699 0 l 943 0 l 554 417 l 932 731 l 664 731 l 269 393 l 269 997 z m 456 -165 b 435 -199 453 -181 446 -192 b 383 -210 424 -206 406 -210 l 383 -287 b 526 -246 444 -287 492 -274 b 578 -126 561 -218 578 -178 l 578 -47 l 383 -47 l 383 -165 z "},"ĸ":{"ha":924,"x_min":0,"x_max":0,"o":"m 75 731 l 75 0 l 269 0 l 269 179 l 415 300 l 699 0 l 943 0 l 554 417 l 932 731 l 664 731 l 269 393 l 269 731 z "},"Ĺ":{"ha":1022,"x_min":0,"x_max":0,"o":"m 993 0 l 993 176 l 292 176 l 292 997 l 88 997 l 88 0 z m 276 1054 l 540 1264 l 264 1264 l 101 1054 z "},"ĺ":{"ha":343,"x_min":0,"x_max":0,"o":"m 75 997 l 75 0 l 269 0 l 269 997 z m 263 1054 l 526 1264 l 250 1264 l 88 1054 z "},"Ļ":{"ha":1022,"x_min":0,"x_max":0,"o":"m 993 0 l 993 176 l 292 176 l 292 997 l 88 997 l 88 0 z m 400 -165 b 379 -199 397 -181 390 -192 b 328 -210 368 -206 351 -210 l 328 -287 b 471 -246 389 -287 437 -274 b 522 -126 505 -218 522 -178 l 522 -47 l 328 -47 l 328 -165 z "},"ļ":{"ha":343,"x_min":0,"x_max":0,"o":"m 75 997 l 75 0 l 269 0 l 269 997 z m 147 -165 b 126 -199 144 -181 138 -192 b 75 -210 115 -206 98 -210 l 75 -287 b 218 -246 136 -287 184 -274 b 269 -126 252 -218 269 -178 l 269 -47 l 75 -47 l 75 -165 z "},"Ľ":{"ha":1022,"x_min":0,"x_max":0,"o":"m 993 0 l 993 176 l 292 176 l 292 997 l 88 997 l 88 0 z m 590 767 l 706 997 l 493 997 l 458 767 z "},"ľ":{"ha":343,"x_min":0,"x_max":0,"o":"m 75 997 l 75 0 l 269 0 l 269 997 z m 465 767 l 581 997 l 368 997 l 333 767 z "},"Ŀ":{"ha":1022,"x_min":0,"x_max":0,"o":"m 993 0 l 993 176 l 292 176 l 292 997 l 88 997 l 88 0 z m 800 422 l 800 603 l 600 603 l 600 422 z "},"ŀ":{"ha":592,"x_min":0,"x_max":0,"o":"m 75 997 l 75 0 l 269 0 l 269 997 z m 568 414 l 568 594 l 368 594 l 368 414 z "},"Ł":{"ha":1058,"x_min":0,"x_max":0,"o":"m 1031 0 l 1031 176 l 329 176 l 329 401 l 626 513 l 626 685 l 329 574 l 329 997 l 125 997 l 125 506 l -7 454 l -7 283 l 125 335 l 125 0 z "},"ł":{"ha":488,"x_min":0,"x_max":0,"o":"m 482 740 l 340 669 l 340 997 l 146 997 l 146 586 l 7 517 l 7 342 l 146 411 l 146 0 l 340 0 l 340 496 l 482 565 z "},"Ń":{"ha":1203,"x_min":0,"x_max":0,"o":"m 918 997 l 918 293 l 296 997 l 88 997 l 88 0 l 285 0 l 285 738 l 936 0 l 1117 0 l 1117 997 z m 658 1054 l 922 1264 l 646 1264 l 483 1054 z "},"ń":{"ha":924,"x_min":0,"x_max":0,"o":"m 269 0 l 269 358 b 323 514 269 425 287 477 b 472 569 359 551 408 569 b 610 515 531 569 578 551 b 660 361 643 478 660 427 l 660 0 l 854 0 l 854 407 b 768 653 854 510 825 592 b 536 744 711 714 633 744 b 383 717 481 744 430 735 b 269 639 337 698 299 672 l 269 731 l 75 731 l 75 0 z m 543 796 l 774 997 l 524 997 l 379 796 z "},"Ņ":{"ha":1203,"x_min":0,"x_max":0,"o":"m 918 997 l 918 293 l 296 997 l 88 997 l 88 0 l 285 0 l 285 738 l 936 0 l 1117 0 l 1117 997 z m 571 -165 b 550 -199 568 -181 561 -192 b 499 -210 539 -206 522 -210 l 499 -287 b 642 -246 560 -287 607 -274 b 693 -126 676 -218 693 -178 l 693 -47 l 499 -47 l 499 -165 z "},"ņ":{"ha":924,"x_min":0,"x_max":0,"o":"m 269 0 l 269 358 b 323 514 269 425 287 477 b 472 569 359 551 408 569 b 610 515 531 569 578 551 b 660 361 643 478 660 427 l 660 0 l 854 0 l 854 407 b 768 653 854 510 825 592 b 536 744 711 714 633 744 b 383 717 481 744 430 735 b 269 639 337 698 299 672 l 269 731 l 75 731 l 75 0 z m 439 -165 b 418 -199 436 -181 429 -192 b 367 -210 407 -206 390 -210 l 367 -287 b 510 -246 428 -287 475 -274 b 561 -126 544 -218 561 -178 l 561 -47 l 367 -47 l 367 -165 z "},"Ň":{"ha":1203,"x_min":0,"x_max":0,"o":"m 918 997 l 918 293 l 296 997 l 88 997 l 88 0 l 285 0 l 285 738 l 936 0 l 1117 0 l 1117 997 z m 904 1264 l 743 1264 l 596 1171 l 449 1264 l 288 1264 l 488 1054 l 704 1054 z "},"ň":{"ha":924,"x_min":0,"x_max":0,"o":"m 269 0 l 269 358 b 323 514 269 425 287 477 b 472 569 359 551 408 569 b 610 515 531 569 578 551 b 660 361 643 478 660 427 l 660 0 l 854 0 l 854 407 b 768 653 854 510 825 592 b 536 744 711 714 633 744 b 383 717 481 744 430 735 b 269 639 337 698 299 672 l 269 731 l 75 731 l 75 0 z m 746 997 l 594 997 l 468 917 l 342 997 l 190 997 l 369 796 l 567 796 z "},"Ŋ":{"ha":1203,"x_min":0,"x_max":0,"o":"m 918 293 l 296 997 l 88 997 l 88 0 l 285 0 l 285 731 l 921 17 l 921 8 b 889 -73 921 -28 910 -55 b 792 -100 868 -91 835 -100 b 739 -96 773 -100 756 -99 b 679 -82 722 -93 702 -88 l 650 -235 b 724 -253 669 -242 694 -248 b 807 -260 754 -257 782 -260 b 1038 -187 909 -260 986 -236 b 1117 25 1091 -139 1117 -69 l 1117 997 l 918 997 z "},"ŋ":{"ha":924,"x_min":0,"x_max":0,"o":"m 536 744 b 383 717 481 744 430 735 b 269 639 337 698 299 672 l 269 731 l 75 731 l 75 0 l 269 0 l 269 358 b 323 514 269 425 287 477 b 472 569 359 551 408 569 b 610 515 531 569 578 551 b 660 361 643 478 660 427 l 660 22 b 630 -71 660 -20 650 -51 b 531 -100 610 -90 577 -100 b 477 -96 512 -100 494 -99 b 417 -82 460 -93 440 -88 l 389 -235 b 463 -253 408 -242 433 -248 b 546 -260 493 -257 521 -260 b 776 -187 648 -260 725 -236 b 854 25 828 -139 854 -69 l 854 407 b 768 653 854 510 825 592 b 536 744 711 714 633 744 z "},"Ō":{"ha":1242,"x_min":0,"x_max":0,"o":"m 32 499 b 199 131 32 350 88 228 b 621 -15 310 33 450 -15 b 1042 131 790 -15 931 33 b 1210 499 1154 228 1210 350 b 1042 867 1210 647 1154 769 b 621 1013 931 964 790 1013 b 199 867 450 1013 310 964 b 32 499 88 769 32 647 z m 1000 499 b 895 256 1000 399 965 318 b 621 164 825 195 734 164 b 347 256 508 164 416 195 b 242 499 277 318 242 399 b 347 741 242 599 277 679 b 621 833 416 803 508 833 b 895 741 734 833 825 803 b 1000 499 965 679 1000 599 z m 893 1217 l 349 1217 l 349 1065 l 893 1065 z "},"ō":{"ha":918,"x_min":0,"x_max":0,"o":"m 460 744 b 153 638 337 744 234 709 b 32 365 72 566 32 475 b 153 92 32 254 72 163 b 460 -15 234 20 337 -15 b 764 92 582 -15 683 20 b 885 365 844 163 885 254 b 764 638 885 475 844 566 b 460 744 683 709 582 744 z m 460 582 b 631 522 529 582 586 562 b 697 365 675 482 697 430 b 631 207 697 300 675 247 b 460 147 586 167 529 147 b 288 207 389 147 332 167 b 221 365 243 247 221 300 b 288 522 221 430 243 482 b 460 582 332 562 389 582 z m 713 967 l 204 967 l 204 819 l 713 819 z "},"Ŏ":{"ha":1242,"x_min":0,"x_max":0,"o":"m 32 499 b 199 131 32 350 88 228 b 621 -15 310 33 450 -15 b 1042 131 790 -15 931 33 b 1210 499 1154 228 1210 350 b 1042 867 1210 647 1154 769 b 621 1013 931 964 790 1013 b 199 867 450 1013 310 964 b 32 499 88 769 32 647 z m 1000 499 b 895 256 1000 399 965 318 b 621 164 825 195 734 164 b 347 256 508 164 416 195 b 242 499 277 318 242 399 b 347 741 242 599 277 679 b 621 833 416 803 508 833 b 895 741 734 833 825 803 b 1000 499 965 679 1000 599 z m 621 1179 b 524 1203 582 1179 550 1187 b 486 1264 499 1219 486 1239 l 343 1264 b 418 1108 343 1199 368 1147 b 621 1049 468 1068 536 1049 b 824 1108 706 1049 774 1068 b 899 1264 874 1147 899 1199 l 756 1264 b 717 1203 756 1239 743 1219 b 621 1179 692 1187 660 1179 z "},"ŏ":{"ha":918,"x_min":0,"x_max":0,"o":"m 460 744 b 153 638 337 744 234 709 b 32 365 72 566 32 475 b 153 92 32 254 72 163 b 460 -15 234 20 337 -15 b 764 92 582 -15 683 20 b 885 365 844 163 885 254 b 764 638 885 475 844 566 b 460 744 683 709 582 744 z m 460 582 b 631 522 529 582 586 562 b 697 365 675 482 697 430 b 631 207 697 300 675 247 b 460 147 586 167 529 147 b 288 207 389 147 332 167 b 221 365 243 247 221 300 b 288 522 221 430 243 482 b 460 582 332 562 389 582 z m 458 919 b 368 940 419 919 389 926 b 332 997 347 953 335 972 l 199 997 b 268 846 200 932 223 882 b 458 792 313 810 377 792 b 649 846 540 792 603 810 b 718 997 694 882 717 932 l 585 997 b 549 940 582 972 570 953 b 458 919 527 926 497 919 z "},"Ő":{"ha":1242,"x_min":0,"x_max":0,"o":"m 32 499 b 199 131 32 350 88 228 b 621 -15 310 33 450 -15 b 1042 131 790 -15 931 33 b 1210 499 1154 228 1210 350 b 1042 867 1210 647 1154 769 b 621 1013 931 964 790 1013 b 199 867 450 1013 310 964 b 32 499 88 769 32 647 z m 1000 499 b 895 256 1000 399 965 318 b 621 164 825 195 734 164 b 347 256 508 164 416 195 b 242 499 277 318 242 399 b 347 741 242 599 277 679 b 621 833 416 803 508 833 b 895 741 734 833 825 803 b 1000 499 965 679 1000 599 z m 856 1054 l 1065 1264 l 838 1264 l 706 1054 z m 529 1054 l 739 1264 l 501 1264 l 379 1054 z "},"ő":{"ha":918,"x_min":0,"x_max":0,"o":"m 460 744 b 153 638 337 744 234 709 b 32 365 72 566 32 475 b 153 92 32 254 72 163 b 460 -15 234 20 337 -15 b 764 92 582 -15 683 20 b 885 365 844 163 885 254 b 764 638 885 475 844 566 b 460 744 683 709 582 744 z m 460 582 b 631 522 529 582 586 562 b 697 365 675 482 697 430 b 631 207 697 300 675 247 b 460 147 586 167 529 147 b 288 207 389 147 332 167 b 221 365 243 247 221 300 b 288 522 221 430 243 482 b 460 582 332 562 389 582 z m 661 796 l 857 997 l 643 997 l 514 796 z m 365 796 l 560 997 l 347 997 l 218 796 z "},"Œ":{"ha":1872,"x_min":0,"x_max":0,"o":"m 38 499 b 192 135 38 346 89 225 b 607 0 294 45 433 0 l 1828 0 l 1828 176 l 1092 176 l 1092 424 l 1749 424 l 1749 599 l 1092 599 l 1092 821 l 1828 821 l 1828 997 l 607 997 b 192 863 433 997 294 952 b 38 499 89 773 38 651 z m 890 175 l 607 175 b 342 262 495 175 406 204 b 244 499 277 320 244 399 b 342 735 244 599 277 678 b 608 822 406 793 495 822 l 890 822 z "},"œ":{"ha":1561,"x_min":0,"x_max":0,"o":"m 1126 -14 b 1370 48 1217 -14 1298 7 b 1517 208 1442 89 1491 143 l 1351 279 b 1266 181 1335 238 1306 205 b 1125 146 1226 158 1179 146 b 966 191 1062 146 1009 161 b 883 314 923 221 895 262 l 1529 314 l 1529 374 b 1418 642 1529 483 1492 572 b 1128 747 1344 712 1247 747 b 938 710 1059 747 996 735 b 790 603 879 685 830 649 b 646 708 751 648 703 683 b 458 744 588 732 526 744 b 153 638 336 744 234 709 b 32 365 72 566 32 475 b 153 92 32 254 72 163 b 458 -15 233 20 335 -15 b 647 22 527 -15 590 -3 b 790 129 705 47 752 83 b 935 24 829 84 878 49 b 1126 -14 993 -1 1057 -14 z m 1118 592 b 1265 547 1174 592 1223 577 b 1338 444 1308 518 1332 483 l 890 444 b 974 552 905 490 933 526 b 1118 592 1016 578 1063 592 z m 221 365 b 287 522 221 430 243 482 b 458 582 331 562 388 582 b 631 522 529 582 586 562 b 697 365 675 482 697 430 b 631 207 697 300 675 247 b 460 147 586 167 529 147 b 288 207 389 147 332 167 b 221 365 243 247 221 300 z "},"Ŕ":{"ha":1122,"x_min":0,"x_max":0,"o":"m 647 371 l 882 0 l 1117 0 l 863 390 b 1033 497 936 411 992 446 b 1093 683 1073 547 1093 609 b 992 915 1093 782 1059 859 b 714 997 925 970 832 997 l 88 997 l 88 0 l 292 0 l 292 371 z m 292 824 l 703 824 b 842 787 763 824 809 811 b 890 682 874 762 890 727 b 841 578 890 638 874 603 b 703 542 808 554 762 542 l 292 542 z m 619 1054 l 883 1264 l 607 1264 l 444 1054 z "},"ŕ":{"ha":640,"x_min":0,"x_max":0,"o":"m 544 735 b 381 702 481 735 426 724 b 269 601 336 680 299 647 l 269 731 l 75 731 l 75 0 l 269 0 l 269 311 b 337 485 269 388 292 446 b 538 544 382 525 449 544 b 579 542 554 544 568 544 b 625 533 590 541 606 538 l 625 725 b 587 733 613 729 600 731 b 544 735 573 734 559 735 z m 407 796 l 638 997 l 388 997 l 243 796 z "},"Ŗ":{"ha":1122,"x_min":0,"x_max":0,"o":"m 647 371 l 882 0 l 1117 0 l 863 390 b 1033 497 936 411 992 446 b 1093 683 1073 547 1093 609 b 992 915 1093 782 1059 859 b 714 997 925 970 832 997 l 88 997 l 88 0 l 292 0 l 292 371 z m 292 824 l 703 824 b 842 787 763 824 809 811 b 890 682 874 762 890 727 b 841 578 890 638 874 603 b 703 542 808 554 762 542 l 292 542 z m 518 -165 b 497 -199 515 -181 508 -192 b 446 -210 486 -206 469 -210 l 446 -287 b 589 -246 507 -287 555 -274 b 640 -126 623 -218 640 -178 l 640 -47 l 446 -47 l 446 -165 z "},"ŗ":{"ha":640,"x_min":0,"x_max":0,"o":"m 544 735 b 381 702 481 735 426 724 b 269 601 336 680 299 647 l 269 731 l 75 731 l 75 0 l 269 0 l 269 311 b 337 485 269 388 292 446 b 538 544 382 525 449 544 b 579 542 554 544 568 544 b 625 533 590 541 606 538 l 625 725 b 587 733 613 729 600 731 b 544 735 573 734 559 735 z m 147 -165 b 126 -199 144 -181 138 -192 b 75 -210 115 -206 98 -210 l 75 -287 b 218 -246 136 -287 184 -274 b 269 -126 252 -218 269 -178 l 269 -47 l 75 -47 l 75 -165 z "},"Ř":{"ha":1122,"x_min":0,"x_max":0,"o":"m 647 371 l 882 0 l 1117 0 l 863 390 b 1033 497 936 411 992 446 b 1093 683 1073 547 1093 609 b 992 915 1093 782 1059 859 b 714 997 925 970 832 997 l 88 997 l 88 0 l 292 0 l 292 371 z m 292 824 l 703 824 b 842 787 763 824 809 811 b 890 682 874 762 890 727 b 841 578 890 638 874 603 b 703 542 808 554 762 542 l 292 542 z m 861 1264 l 700 1264 l 553 1171 l 406 1264 l 244 1264 l 444 1054 l 661 1054 z "},"ř":{"ha":640,"x_min":0,"x_max":0,"o":"m 544 735 b 381 702 481 735 426 724 b 269 601 336 680 299 647 l 269 731 l 75 731 l 75 0 l 269 0 l 269 311 b 337 485 269 388 292 446 b 538 544 382 525 449 544 b 579 542 554 544 568 544 b 625 533 590 541 606 538 l 625 725 b 587 733 613 729 600 731 b 544 735 573 734 559 735 z m 629 997 l 478 997 l 351 917 l 225 997 l 74 997 l 253 796 l 450 796 z "},"Ś":{"ha":1078,"x_min":0,"x_max":0,"o":"m 554 -15 b 919 72 707 -15 828 14 b 1054 313 1009 131 1054 211 b 1012 453 1054 369 1040 416 b 878 540 984 490 939 519 b 760 571 845 552 806 563 b 571 597 715 579 651 588 b 308 643 433 613 345 628 b 251 715 270 658 251 682 b 320 806 251 753 274 783 b 510 839 366 828 429 839 b 738 798 594 839 670 825 b 897 683 806 771 859 732 l 1033 814 b 826 958 988 874 919 922 b 521 1013 733 994 631 1013 b 181 925 380 1013 267 983 b 53 694 96 867 53 790 b 145 514 53 616 84 556 b 485 424 207 472 320 442 b 626 408 553 416 600 411 b 693 399 652 404 675 401 b 815 360 752 388 793 376 b 847 290 836 345 847 322 b 769 195 847 250 821 219 b 563 160 716 172 648 160 b 308 211 470 160 385 177 b 121 360 231 245 169 295 l -17 217 b 214 49 31 148 108 92 b 554 -15 319 6 433 -15 z m 618 1054 l 882 1264 l 606 1264 l 443 1054 z "},"ś":{"ha":813,"x_min":0,"x_max":0,"o":"m 415 -15 b 691 51 530 -15 622 7 b 794 233 760 96 794 156 b 763 338 794 275 784 310 b 665 407 742 366 710 389 b 578 431 641 416 612 424 b 438 451 545 437 498 444 b 257 483 337 463 276 474 b 228 522 238 491 228 505 b 270 576 228 545 242 563 b 389 594 298 588 338 594 b 547 567 447 594 500 585 b 665 489 594 549 634 523 l 776 607 b 620 708 739 650 687 683 b 399 744 553 732 479 744 b 136 678 289 744 202 722 b 38 501 70 633 38 575 b 105 363 38 441 60 395 b 367 290 150 331 237 307 b 432 283 380 288 401 286 b 499 274 463 279 485 276 b 580 252 538 268 566 261 b 601 214 594 243 601 231 b 556 156 601 189 586 170 b 424 136 525 143 481 136 b 245 169 358 136 298 147 b 106 265 192 191 145 223 l -6 138 b 168 26 35 90 93 53 b 415 -15 243 -2 325 -15 z m 488 796 l 718 997 l 468 997 l 324 796 z "},"Ŝ":{"ha":1078,"x_min":0,"x_max":0,"o":"m 554 -15 b 919 72 707 -15 828 14 b 1054 313 1009 131 1054 211 b 1012 453 1054 369 1040 416 b 878 540 984 490 939 519 b 760 571 845 552 806 563 b 571 597 715 579 651 588 b 308 643 433 613 345 628 b 251 715 270 658 251 682 b 320 806 251 753 274 783 b 510 839 366 828 429 839 b 738 798 594 839 670 825 b 897 683 806 771 859 732 l 1033 814 b 826 958 988 874 919 922 b 521 1013 733 994 631 1013 b 181 925 380 1013 267 983 b 53 694 96 867 53 790 b 145 514 53 616 84 556 b 485 424 207 472 320 442 b 626 408 553 416 600 411 b 693 399 652 404 675 401 b 815 360 752 388 793 376 b 847 290 836 345 847 322 b 769 195 847 250 821 219 b 563 160 716 172 648 160 b 308 211 470 160 385 177 b 121 360 231 245 169 295 l -17 217 b 214 49 31 148 108 92 b 554 -15 319 6 433 -15 z m 422 1264 l 222 1054 l 383 1054 l 531 1147 l 678 1054 l 839 1054 l 639 1264 z "},"ŝ":{"ha":813,"x_min":0,"x_max":0,"o":"m 415 -15 b 691 51 530 -15 622 7 b 794 233 760 96 794 156 b 763 338 794 275 784 310 b 665 407 742 366 710 389 b 578 431 641 416 612 424 b 438 451 545 437 498 444 b 257 483 337 463 276 474 b 228 522 238 491 228 505 b 270 576 228 545 242 563 b 389 594 298 588 338 594 b 547 567 447 594 500 585 b 665 489 594 549 634 523 l 776 607 b 620 708 739 650 687 683 b 399 744 553 732 479 744 b 136 678 289 744 202 722 b 38 501 70 633 38 575 b 105 363 38 441 60 395 b 367 290 150 331 237 307 b 432 283 380 288 401 286 b 499 274 463 279 485 276 b 580 252 538 268 566 261 b 601 214 594 243 601 231 b 556 156 601 189 586 170 b 424 136 525 143 481 136 b 245 169 358 136 298 147 b 106 265 192 191 145 223 l -6 138 b 168 26 35 90 93 53 b 415 -15 243 -2 325 -15 z m 303 997 l 124 796 l 275 796 l 401 876 l 528 796 l 679 796 l 500 997 z "},"Ş":{"ha":1078,"x_min":0,"x_max":0,"o":"m -17 217 b 178 65 25 156 90 106 b 471 -11 267 23 364 -2 l 447 -89 b 551 -99 496 -90 531 -93 b 581 -128 571 -105 581 -115 b 562 -153 581 -139 574 -147 b 507 -161 549 -158 531 -161 b 441 -151 483 -161 461 -158 b 386 -122 421 -145 403 -135 l 326 -211 b 407 -248 347 -227 374 -239 b 515 -261 440 -257 476 -261 b 658 -228 574 -261 621 -250 b 713 -139 694 -206 713 -176 b 671 -62 713 -107 699 -82 b 558 -29 643 -42 606 -31 l 563 -15 b 920 73 712 -15 831 14 b 1054 313 1009 132 1054 212 b 1012 453 1054 369 1040 416 b 878 540 984 490 939 519 b 760 571 845 552 806 563 b 571 597 715 579 651 588 b 308 643 433 613 345 628 b 251 715 270 658 251 682 b 320 806 251 753 274 783 b 510 839 366 828 429 839 b 738 798 594 839 670 825 b 897 683 806 771 859 732 l 1033 814 b 826 958 988 874 919 922 b 521 1013 733 994 631 1013 b 181 925 380 1013 267 983 b 53 694 96 867 53 790 b 145 514 53 616 84 556 b 485 424 207 472 320 442 b 626 408 553 416 600 411 b 693 399 652 404 675 401 b 815 360 752 388 793 376 b 847 290 836 345 847 322 b 769 195 847 250 821 219 b 563 160 716 172 648 160 b 308 211 470 160 385 177 b 121 360 231 245 169 295 z "},"ş":{"ha":813,"x_min":0,"x_max":0,"o":"m -6 138 b 129 41 28 99 73 66 b 319 -10 186 16 249 -1 l 296 -89 b 399 -99 345 -90 379 -93 b 429 -128 419 -105 429 -115 b 410 -153 429 -139 423 -147 b 356 -161 398 -158 380 -161 b 290 -151 331 -161 309 -158 b 235 -122 270 -145 251 -135 l 175 -211 b 256 -248 195 -227 222 -239 b 364 -261 289 -257 325 -261 b 506 -228 422 -261 470 -250 b 561 -139 543 -206 561 -176 b 519 -62 561 -107 547 -82 b 407 -29 492 -42 454 -31 l 411 -15 l 415 -15 b 691 51 530 -15 622 7 b 794 233 760 96 794 156 b 763 338 794 275 784 310 b 665 407 742 366 710 389 b 578 431 641 416 612 424 b 438 451 545 437 498 444 b 257 483 337 463 276 474 b 228 522 238 491 228 505 b 270 576 228 545 242 563 b 389 594 298 588 338 594 b 547 567 447 594 500 585 b 665 489 594 549 634 523 l 776 607 b 620 708 739 650 687 683 b 399 744 553 732 479 744 b 136 678 289 744 202 722 b 38 501 70 633 38 575 b 105 363 38 441 60 395 b 367 290 150 331 237 307 b 432 283 380 288 401 286 b 499 274 463 279 485 276 b 580 252 538 268 566 261 b 601 214 594 243 601 231 b 556 156 601 189 586 170 b 424 136 525 143 481 136 b 245 169 358 136 298 147 b 106 265 192 191 145 223 z "},"Š":{"ha":1078,"x_min":0,"x_max":0,"o":"m 554 -15 b 919 72 707 -15 828 14 b 1054 313 1009 131 1054 211 b 1012 453 1054 369 1040 416 b 878 540 984 490 939 519 b 760 571 845 552 806 563 b 571 597 715 579 651 588 b 308 643 433 613 345 628 b 251 715 270 658 251 682 b 320 806 251 753 274 783 b 510 839 366 828 429 839 b 738 798 594 839 670 825 b 897 683 806 771 859 732 l 1033 814 b 826 958 988 874 919 922 b 521 1013 733 994 631 1013 b 181 925 380 1013 267 983 b 53 694 96 867 53 790 b 145 514 53 616 84 556 b 485 424 207 472 320 442 b 626 408 553 416 600 411 b 693 399 652 404 675 401 b 815 360 752 388 793 376 b 847 290 836 345 847 322 b 769 195 847 250 821 219 b 563 160 716 172 648 160 b 308 211 470 160 385 177 b 121 360 231 245 169 295 l -17 217 b 214 49 31 148 108 92 b 554 -15 319 6 433 -15 z m 842 1264 l 681 1264 l 533 1171 l 386 1264 l 225 1264 l 425 1054 l 642 1054 z "},"š":{"ha":813,"x_min":0,"x_max":0,"o":"m 415 -15 b 691 51 530 -15 622 7 b 794 233 760 96 794 156 b 763 338 794 275 784 310 b 665 407 742 366 710 389 b 578 431 641 416 612 424 b 438 451 545 437 498 444 b 257 483 337 463 276 474 b 228 522 238 491 228 505 b 270 576 228 545 242 563 b 389 594 298 588 338 594 b 547 567 447 594 500 585 b 665 489 594 549 634 523 l 776 607 b 620 708 739 650 687 683 b 399 744 553 732 479 744 b 136 678 289 744 202 722 b 38 501 70 633 38 575 b 105 363 38 441 60 395 b 367 290 150 331 237 307 b 432 283 380 288 401 286 b 499 274 463 279 485 276 b 580 252 538 268 566 261 b 601 214 594 243 601 231 b 556 156 601 189 586 170 b 424 136 525 143 481 136 b 245 169 358 136 298 147 b 106 265 192 191 145 223 l -6 138 b 168 26 35 90 93 53 b 415 -15 243 -2 325 -15 z m 685 997 l 533 997 l 407 917 l 281 997 l 129 997 l 308 796 l 506 796 z "},"Ţ":{"ha":1136,"x_min":0,"x_max":0,"o":"m 754 -139 b 713 -62 754 -107 740 -82 b 600 -29 685 -42 647 -31 l 608 0 l 671 0 l 671 821 l 1111 821 l 1111 997 l 25 997 l 25 821 l 465 821 l 465 0 l 515 0 l 489 -89 b 592 -99 538 -90 572 -93 b 622 -128 612 -105 622 -115 b 603 -153 622 -139 616 -147 b 549 -161 591 -158 573 -161 b 483 -151 525 -161 503 -158 b 428 -122 463 -145 444 -135 l 368 -211 b 449 -248 388 -227 415 -239 b 557 -261 482 -257 518 -261 b 699 -228 615 -261 663 -250 b 754 -139 736 -206 754 -176 z "},"ţ":{"ha":726,"x_min":0,"x_max":0,"o":"m 174 244 b 218 91 174 182 188 131 b 349 6 248 51 291 22 l 319 -89 b 423 -99 369 -90 403 -93 b 453 -128 443 -105 453 -115 b 434 -153 453 -139 447 -147 b 379 -161 422 -158 403 -161 b 313 -151 355 -161 333 -158 b 258 -122 293 -145 275 -135 l 199 -211 b 279 -248 219 -227 246 -239 b 388 -261 313 -257 349 -261 b 530 -228 446 -261 493 -250 b 585 -139 566 -206 585 -176 b 543 -62 585 -107 571 -82 b 431 -29 515 -42 478 -31 l 436 -8 b 450 -10 441 -9 445 -10 l 471 -10 b 594 1 511 -10 552 -6 b 707 32 636 9 674 19 l 674 192 b 588 168 641 181 613 173 b 514 161 563 163 538 161 b 399 188 460 161 422 170 b 365 276 377 206 365 236 l 365 568 l 676 568 l 676 731 l 365 731 l 365 939 l 174 939 l 174 731 l -1 731 l -1 568 l 174 568 z "},"Ť":{"ha":1136,"x_min":0,"x_max":0,"o":"m 1111 997 l 25 997 l 25 821 l 465 821 l 465 0 l 671 0 l 671 821 l 1111 821 z m 876 1264 l 715 1264 l 568 1171 l 421 1264 l 260 1264 l 460 1054 l 676 1054 z "},"ť":{"ha":726,"x_min":0,"x_max":0,"o":"m 471 -10 b 594 1 511 -10 552 -6 b 707 32 636 9 674 19 l 674 192 b 588 168 641 181 613 173 b 514 161 563 163 538 161 b 399 188 460 161 422 170 b 365 276 377 206 365 236 l 365 568 l 676 568 l 676 731 l 365 731 l 365 939 l 174 939 l 174 731 l -1 731 l -1 568 l 174 568 l 174 244 b 251 56 174 162 199 99 b 471 -10 302 12 375 -10 z m 561 794 l 676 1025 l 464 1025 l 429 794 z "},"Ŧ":{"ha":1136,"x_min":0,"x_max":0,"o":"m 896 593 l 671 593 l 671 821 l 1111 821 l 1111 997 l 25 997 l 25 821 l 465 821 l 465 593 l 240 593 l 240 417 l 465 417 l 465 0 l 671 0 l 671 417 l 896 417 z "},"ŧ":{"ha":726,"x_min":0,"x_max":0,"o":"m 471 -10 b 594 1 511 -10 552 -6 b 707 32 636 9 674 19 l 674 189 b 588 165 641 178 613 170 b 514 158 563 161 538 158 b 399 185 460 158 422 167 b 365 274 377 203 365 233 l 365 322 l 676 322 l 676 476 l 365 476 l 365 576 l 676 576 l 676 731 l 365 731 l 365 939 l 174 939 l 174 731 l -1 731 l -1 576 l 174 576 l 174 476 l 1 476 l 1 322 l 174 322 l 174 244 b 251 56 174 162 199 99 b 471 -10 302 12 375 -10 z "},"Ũ":{"ha":1144,"x_min":0,"x_max":0,"o":"m 572 -14 b 952 113 737 -14 864 28 b 1085 471 1041 197 1085 316 l 1085 997 l 879 997 l 879 482 b 802 244 879 376 853 297 b 572 165 751 192 674 165 b 341 244 469 165 392 192 b 264 482 290 297 264 376 l 264 997 l 60 997 l 60 471 b 192 113 60 316 104 197 b 572 -14 281 28 407 -14 z m 435 1282 b 315 1221 385 1282 345 1262 b 265 1054 284 1180 268 1125 l 394 1054 b 415 1113 399 1081 406 1100 b 454 1131 425 1125 438 1131 b 492 1125 466 1131 479 1129 b 551 1099 505 1121 525 1113 b 642 1063 588 1081 619 1069 b 711 1054 665 1057 688 1054 b 831 1115 760 1054 800 1075 b 882 1282 861 1156 878 1212 l 753 1282 b 731 1224 747 1255 740 1236 b 693 1207 721 1213 709 1207 b 655 1213 681 1207 668 1209 b 594 1238 641 1216 621 1225 b 505 1274 557 1256 528 1268 b 435 1282 482 1279 459 1282 z "},"ũ":{"ha":917,"x_min":0,"x_max":0,"o":"m 649 731 l 649 363 b 596 210 649 297 631 246 b 447 156 561 174 511 156 b 310 205 387 156 341 172 b 264 350 279 238 264 286 l 264 731 l 69 731 l 69 317 b 156 75 69 216 98 135 b 386 -15 213 15 290 -15 b 535 13 441 -15 491 -6 b 649 92 580 31 618 57 l 649 0 l 843 0 l 843 731 z m 340 1008 b 233 951 296 1008 260 989 b 189 796 206 913 192 862 l 308 796 b 328 850 313 821 319 839 b 361 867 336 861 347 867 b 390 862 370 867 380 865 b 438 839 400 859 416 851 b 513 804 468 821 493 810 b 572 796 532 799 552 796 b 679 853 617 796 652 815 b 724 1008 706 891 721 943 l 604 1008 b 585 954 600 983 593 965 b 551 938 576 943 565 938 b 522 943 542 938 532 939 b 475 965 511 947 495 954 b 400 1000 444 983 419 994 b 340 1008 381 1006 361 1008 z "},"Ū":{"ha":1144,"x_min":0,"x_max":0,"o":"m 572 -14 b 952 113 737 -14 864 28 b 1085 471 1041 197 1085 316 l 1085 997 l 879 997 l 879 482 b 802 244 879 376 853 297 b 572 165 751 192 674 165 b 341 244 469 165 392 192 b 264 482 290 297 264 376 l 264 997 l 60 997 l 60 471 b 192 113 60 316 104 197 b 572 -14 281 28 407 -14 z m 844 1217 l 300 1217 l 300 1065 l 844 1065 z "},"ū":{"ha":917,"x_min":0,"x_max":0,"o":"m 649 731 l 649 363 b 596 210 649 297 631 246 b 447 156 561 174 511 156 b 310 205 387 156 341 172 b 264 350 279 238 264 286 l 264 731 l 69 731 l 69 317 b 156 75 69 216 98 135 b 386 -15 213 15 290 -15 b 535 13 441 -15 491 -6 b 649 92 580 31 618 57 l 649 0 l 843 0 l 843 731 z m 710 967 l 201 967 l 201 819 l 710 819 z "},"Ŭ":{"ha":1144,"x_min":0,"x_max":0,"o":"m 572 -14 b 952 113 737 -14 864 28 b 1085 471 1041 197 1085 316 l 1085 997 l 879 997 l 879 482 b 802 244 879 376 853 297 b 572 165 751 192 674 165 b 341 244 469 165 392 192 b 264 482 290 297 264 376 l 264 997 l 60 997 l 60 471 b 192 113 60 316 104 197 b 572 -14 281 28 407 -14 z m 572 1179 b 476 1203 533 1179 501 1187 b 438 1264 450 1219 438 1239 l 294 1264 b 369 1108 294 1199 319 1147 b 572 1049 419 1068 487 1049 b 775 1108 657 1049 725 1068 b 850 1264 825 1147 850 1199 l 707 1264 b 669 1203 707 1239 694 1219 b 572 1179 643 1187 611 1179 z "},"ŭ":{"ha":917,"x_min":0,"x_max":0,"o":"m 649 731 l 649 363 b 596 210 649 297 631 246 b 447 156 561 174 511 156 b 310 205 387 156 341 172 b 264 350 279 238 264 286 l 264 731 l 69 731 l 69 317 b 156 75 69 216 98 135 b 386 -15 213 15 290 -15 b 535 13 441 -15 491 -6 b 649 92 580 31 618 57 l 649 0 l 843 0 l 843 731 z m 456 919 b 365 940 417 919 387 926 b 329 997 344 953 332 972 l 196 997 b 265 846 197 932 220 882 b 456 792 311 810 374 792 b 646 846 537 792 600 810 b 715 997 691 882 714 932 l 582 997 b 546 940 579 972 567 953 b 456 919 525 926 494 919 z "},"Ů":{"ha":1144,"x_min":0,"x_max":0,"o":"m 572 -14 b 952 113 737 -14 864 28 b 1085 471 1041 197 1085 316 l 1085 997 l 879 997 l 879 482 b 802 244 879 376 853 297 b 572 165 751 192 674 165 b 341 244 469 165 392 192 b 264 482 290 297 264 376 l 264 997 l 60 997 l 60 471 b 192 113 60 316 104 197 b 572 -14 281 28 407 -14 z m 572 1011 b 706 1063 626 1011 671 1028 b 760 1192 742 1098 760 1141 b 706 1318 760 1242 742 1284 b 572 1369 671 1352 626 1369 b 438 1318 519 1369 474 1352 b 385 1192 403 1284 385 1242 b 438 1063 385 1141 403 1098 b 572 1011 474 1028 519 1011 z m 572 1264 b 623 1244 593 1264 609 1257 b 643 1192 636 1230 643 1213 b 624 1139 643 1169 637 1152 b 572 1119 611 1126 594 1119 b 521 1139 551 1119 534 1126 b 501 1192 508 1152 501 1169 b 522 1244 501 1213 508 1230 b 572 1264 535 1257 552 1264 z "},"ů":{"ha":917,"x_min":0,"x_max":0,"o":"m 649 731 l 649 363 b 596 210 649 297 631 246 b 447 156 561 174 511 156 b 310 205 387 156 341 172 b 264 350 279 238 264 286 l 264 731 l 69 731 l 69 317 b 156 75 69 216 98 135 b 386 -15 213 15 290 -15 b 535 13 441 -15 491 -6 b 649 92 580 31 618 57 l 649 0 l 843 0 l 843 731 z m 456 779 b 569 823 501 779 539 794 b 614 931 599 852 614 888 b 569 1037 614 972 599 1008 b 456 1081 539 1066 501 1081 b 342 1037 410 1081 372 1066 b 297 931 312 1008 297 972 b 342 823 297 888 312 852 b 456 779 372 794 410 779 z m 456 993 b 499 974 472 993 487 987 b 517 931 511 962 517 947 b 499 886 517 913 511 898 b 456 868 488 874 473 868 b 412 886 438 868 423 874 b 394 931 400 898 394 913 b 413 974 394 947 400 962 b 456 993 425 987 439 993 z "},"Ű":{"ha":1144,"x_min":0,"x_max":0,"o":"m 572 -14 b 952 113 737 -14 864 28 b 1085 471 1041 197 1085 316 l 1085 997 l 879 997 l 879 482 b 802 244 879 376 853 297 b 572 165 751 192 674 165 b 341 244 469 165 392 192 b 264 482 290 297 264 376 l 264 997 l 60 997 l 60 471 b 192 113 60 316 104 197 b 572 -14 281 28 407 -14 z m 794 1054 l 1004 1264 l 776 1264 l 644 1054 z m 468 1054 l 678 1264 l 440 1264 l 318 1054 z "},"ű":{"ha":917,"x_min":0,"x_max":0,"o":"m 649 731 l 649 363 b 596 210 649 297 631 246 b 447 156 561 174 511 156 b 310 205 387 156 341 172 b 264 350 279 238 264 286 l 264 731 l 69 731 l 69 317 b 156 75 69 216 98 135 b 386 -15 213 15 290 -15 b 535 13 441 -15 491 -6 b 649 92 580 31 618 57 l 649 0 l 843 0 l 843 731 z m 646 796 l 842 997 l 628 997 l 499 796 z m 350 796 l 544 997 l 332 997 l 203 796 z "},"Ų":{"ha":1144,"x_min":0,"x_max":0,"o":"m 740 3 b 997 160 852 28 938 80 b 1085 471 1055 241 1085 344 l 1085 997 l 881 997 l 881 482 b 804 244 881 375 855 296 b 572 165 753 191 676 165 b 342 244 469 165 393 191 b 265 482 291 296 265 375 l 265 997 l 60 997 l 60 471 b 176 128 60 325 98 211 b 510 -11 253 46 364 -1 b 469 -67 492 -29 479 -47 b 456 -131 460 -87 456 -108 b 506 -222 456 -169 472 -199 b 638 -256 540 -244 584 -256 b 683 -253 651 -256 667 -255 b 740 -244 700 -251 719 -248 l 740 -131 b 708 -137 730 -133 719 -135 b 672 -139 696 -138 684 -139 b 609 -126 645 -139 624 -135 b 586 -93 594 -118 586 -107 b 626 -39 586 -74 599 -56 b 740 3 652 -22 690 -8 z "},"ų":{"ha":917,"x_min":0,"x_max":0,"o":"m 722 -256 b 769 -253 736 -256 752 -255 b 826 -244 786 -251 805 -248 l 826 -131 b 792 -137 815 -133 804 -135 b 757 -139 781 -138 769 -139 b 695 -127 731 -139 710 -135 b 672 -96 680 -119 672 -109 b 709 -47 672 -78 684 -62 b 826 0 734 -32 773 -17 l 843 0 l 843 731 l 649 731 l 649 363 b 596 210 649 297 631 246 b 447 156 561 174 511 156 b 310 205 387 156 341 172 b 264 350 279 238 264 286 l 264 731 l 69 731 l 69 317 b 156 75 69 216 98 135 b 386 -15 213 15 290 -15 b 535 13 441 -15 491 -6 b 649 92 580 31 618 57 l 649 18 b 568 -49 613 -1 587 -24 b 540 -132 550 -75 540 -102 b 591 -222 540 -169 557 -199 b 722 -256 625 -244 669 -256 z "},"Ŵ":{"ha":1642,"x_min":0,"x_max":0,"o":"m 467 225 l 204 997 l -10 997 l 339 0 l 575 0 l 821 763 l 1064 0 l 1301 0 l 1650 997 l 1440 997 l 1178 225 l 929 997 l 717 997 z m 715 1264 l 515 1054 l 676 1054 l 824 1147 l 971 1054 l 1132 1054 l 932 1264 z "},"ŵ":{"ha":1279,"x_min":0,"x_max":0,"o":"m 386 236 l 204 731 l -3 731 l 286 0 l 461 0 l 640 486 l 819 0 l 994 0 l 1282 731 l 1082 731 l 904 236 l 729 731 l 560 731 z m 540 997 l 361 796 l 513 796 l 639 876 l 765 796 l 917 796 l 738 997 z "},"Ŷ":{"ha":1178,"x_min":0,"x_max":0,"o":"m 235 997 l -14 997 l 488 424 l 488 0 l 692 0 l 692 424 l 1192 997 l 949 997 l 592 589 z m 485 1264 l 285 1054 l 446 1054 l 593 1147 l 740 1054 l 901 1054 l 701 1264 z "},"ŷ":{"ha":914,"x_min":0,"x_max":0,"o":"m 917 731 l 708 731 l 464 210 l 214 731 l -3 731 l 357 18 l 350 -4 b 297 -76 338 -37 320 -60 b 203 -99 273 -91 242 -99 b 151 -92 185 -99 168 -97 b 96 -71 134 -88 115 -81 l 61 -229 b 133 -251 78 -237 102 -245 b 219 -260 164 -257 193 -260 b 408 -212 297 -260 360 -244 b 535 -51 456 -180 499 -126 z m 358 997 l 179 796 l 331 796 l 457 876 l 583 796 l 735 796 l 556 997 z "},"Ÿ":{"ha":1178,"x_min":0,"x_max":0,"o":"m 235 997 l -14 997 l 488 424 l 488 0 l 692 0 l 692 424 l 1192 997 l 949 997 l 592 589 z m 517 1054 l 517 1238 l 317 1238 l 317 1054 z m 869 1054 l 869 1238 l 669 1238 l 669 1054 z "},"Ź":{"ha":1104,"x_min":0,"x_max":0,"o":"m 340 176 l 1046 842 l 1046 997 l 56 997 l 56 821 l 754 821 l 50 156 l 50 0 l 1051 0 l 1051 176 z m 613 1054 l 876 1264 l 600 1264 l 438 1054 z "},"ź":{"ha":868,"x_min":0,"x_max":0,"o":"m 321 163 l 818 585 l 818 731 l 51 731 l 51 568 l 547 568 l 47 144 l 47 0 l 822 0 l 822 163 z m 496 796 l 726 997 l 476 997 l 332 796 z "},"Ż":{"ha":1104,"x_min":0,"x_max":0,"o":"m 340 176 l 1046 842 l 1046 997 l 56 997 l 56 821 l 754 821 l 50 156 l 50 0 l 1051 0 l 1051 176 z m 654 1054 l 654 1238 l 446 1238 l 446 1054 z "},"ż":{"ha":868,"x_min":0,"x_max":0,"o":"m 321 163 l 818 585 l 818 731 l 51 731 l 51 568 l 547 568 l 47 144 l 47 0 l 822 0 l 822 163 z m 533 817 l 533 997 l 333 997 l 333 817 z "},"Ž":{"ha":1104,"x_min":0,"x_max":0,"o":"m 340 176 l 1046 842 l 1046 997 l 56 997 l 56 821 l 754 821 l 50 156 l 50 0 l 1051 0 l 1051 176 z m 858 1264 l 697 1264 l 550 1171 l 403 1264 l 242 1264 l 442 1054 l 658 1054 z "},"ž":{"ha":868,"x_min":0,"x_max":0,"o":"m 321 163 l 818 585 l 818 731 l 51 731 l 51 568 l 547 568 l 47 144 l 47 0 l 822 0 l 822 163 z m 711 997 l 560 997 l 433 917 l 307 997 l 156 997 l 335 796 l 532 796 z "},"ƒ":{"ha":1136,"x_min":0,"x_max":0,"o":"m 663 461 l 907 461 l 907 597 l 688 597 l 706 696 b 765 811 716 747 735 785 b 879 850 794 837 832 850 b 974 835 911 850 942 845 b 1054 793 1005 825 1032 811 l 1136 936 b 1020 992 1106 960 1068 979 b 867 1013 972 1006 921 1013 b 621 937 763 1013 681 987 b 503 706 561 886 521 809 l 483 597 l 260 597 l 260 461 l 458 461 l 429 301 b 372 186 420 250 401 212 b 256 147 342 160 304 147 b 163 163 225 147 194 152 b 82 204 131 173 104 187 l 0 61 b 116 5 30 37 68 18 b 269 -15 164 -9 215 -15 b 515 61 373 -15 455 10 b 632 292 575 112 614 189 z "},"Ǽ":{"ha":1971,"x_min":0,"x_max":0,"o":"m -17 0 l 240 0 l 443 229 l 963 229 l 963 0 l 1928 0 l 1928 176 l 1164 176 l 1164 424 l 1849 424 l 1849 599 l 1164 599 l 1164 821 l 1928 821 l 1928 997 l 875 997 z m 963 815 l 963 401 l 596 401 z m 1425 1054 l 1689 1264 l 1413 1264 l 1250 1054 z "},"ǽ":{"ha":1489,"x_min":0,"x_max":0,"o":"m 31 211 b 115 45 31 141 59 85 b 342 -15 172 5 247 -15 b 551 24 420 -15 490 -2 b 700 139 613 50 662 88 b 850 25 739 90 789 52 b 1054 -15 911 -2 979 -15 b 1298 47 1145 -15 1226 5 b 1444 206 1370 88 1419 141 l 1279 276 b 1192 178 1262 235 1233 202 b 1051 143 1152 155 1105 143 b 893 188 988 143 936 158 b 811 311 850 218 823 259 l 1457 311 l 1457 372 b 1346 640 1457 481 1420 571 b 1054 744 1272 710 1175 744 b 888 717 995 744 939 735 b 753 638 836 698 791 672 b 633 717 724 673 684 699 b 450 744 582 735 521 744 b 199 686 356 744 272 725 b 56 533 125 647 78 596 l 224 476 b 304 556 237 509 263 535 b 443 588 345 577 391 588 b 577 558 500 588 545 578 b 625 476 609 538 625 511 l 625 440 l 361 440 b 118 379 257 440 176 420 b 31 211 60 338 31 282 z m 1046 590 b 1193 546 1101 590 1150 575 b 1268 440 1236 516 1261 481 l 817 440 b 900 550 831 487 859 523 b 1046 590 941 577 989 590 z m 219 219 b 260 288 219 250 233 273 b 382 311 287 303 327 311 l 625 311 l 625 282 b 548 175 625 238 599 203 b 364 133 497 147 435 133 b 258 156 319 133 283 141 b 219 219 232 170 219 192 z m 839 796 l 1069 997 l 819 997 l 675 796 z "},"Ǿ":{"ha":1240,"x_min":0,"x_max":0,"o":"m 163 -40 l 278 72 b 440 7 328 44 382 22 b 621 -15 497 -8 558 -15 b 1042 131 790 -15 931 33 b 1210 499 1154 228 1210 350 b 1181 666 1210 557 1200 613 b 1097 813 1162 719 1134 768 l 1194 906 l 1079 1019 l 974 918 b 809 988 924 949 869 972 b 621 1013 749 1004 687 1013 b 199 867 450 1013 310 964 b 32 499 88 769 32 647 b 63 326 32 438 42 381 b 151 176 83 272 113 222 l 46 75 z m 621 839 b 732 827 660 839 697 835 b 829 792 767 819 800 807 l 300 297 b 252 391 279 326 263 357 b 236 499 241 425 236 461 b 342 746 236 601 271 684 b 621 839 412 808 505 839 z m 621 158 b 517 169 585 158 550 162 b 422 200 483 176 452 186 l 947 690 b 990 600 966 663 980 632 b 1004 499 999 568 1004 534 b 899 251 1004 396 969 313 b 621 158 828 189 736 158 z m 689 1054 l 953 1264 l 676 1264 l 514 1054 z "},"ǿ":{"ha":918,"x_min":0,"x_max":0,"o":"m 33 365 b 55 238 33 320 41 277 b 117 131 69 198 90 162 l 39 51 l 136 -40 l 221 44 b 333 0 255 25 292 10 b 460 -15 373 -10 415 -15 b 764 92 582 -15 683 20 b 885 365 844 163 885 254 b 863 492 885 410 878 452 b 801 600 849 531 828 568 l 879 678 l 783 771 l 697 685 b 587 729 664 704 627 719 b 460 744 547 739 504 744 b 154 638 337 744 235 709 b 33 365 74 567 33 476 z m 460 592 b 519 585 480 592 500 590 b 574 568 539 581 557 575 l 247 242 b 222 299 236 259 228 278 b 214 365 217 320 214 342 b 283 529 214 433 237 488 b 460 592 328 571 388 592 z m 460 139 b 399 144 438 139 418 141 b 344 161 379 148 361 154 l 671 486 b 696 429 682 469 690 450 b 704 365 701 409 704 388 b 636 201 704 297 681 242 b 460 139 591 159 532 139 z m 531 796 l 761 997 l 511 997 l 367 796 z "},"Ș":{"ha":1078,"x_min":0,"x_max":0,"o":"m 554 -15 b 919 72 707 -15 828 14 b 1054 313 1009 131 1054 211 b 1012 453 1054 369 1040 416 b 878 540 984 490 939 519 b 760 571 845 552 806 563 b 571 597 715 579 651 588 b 308 643 433 613 345 628 b 251 715 270 658 251 682 b 320 806 251 753 274 783 b 510 839 366 828 429 839 b 738 798 594 839 670 825 b 897 683 806 771 859 732 l 1033 814 b 826 958 988 874 919 922 b 521 1013 733 994 631 1013 b 181 925 380 1013 267 983 b 53 694 96 867 53 790 b 145 514 53 616 84 556 b 485 424 207 472 320 442 b 626 408 553 416 600 411 b 693 399 652 404 675 401 b 815 360 752 388 793 376 b 847 290 836 345 847 322 b 769 195 847 250 821 219 b 563 160 716 172 648 160 b 308 211 470 160 385 177 b 121 360 231 245 169 295 l -17 217 b 214 49 31 148 108 92 b 554 -15 319 6 433 -15 z m 503 -165 b 482 -199 500 -181 493 -192 b 431 -210 471 -206 454 -210 l 431 -287 b 574 -246 492 -287 539 -274 b 625 -126 608 -218 625 -178 l 625 -47 l 431 -47 l 431 -165 z "},"ș":{"ha":813,"x_min":0,"x_max":0,"o":"m 415 -15 b 691 51 530 -15 622 7 b 794 233 760 96 794 156 b 763 338 794 275 784 310 b 665 407 742 366 710 389 b 578 431 641 416 612 424 b 438 451 545 437 498 444 b 257 483 337 463 276 474 b 228 522 238 491 228 505 b 270 576 228 545 242 563 b 389 594 298 588 338 594 b 547 567 447 594 500 585 b 665 489 594 549 634 523 l 776 607 b 620 708 739 650 687 683 b 399 744 553 732 479 744 b 136 678 289 744 202 722 b 38 501 70 633 38 575 b 105 363 38 441 60 395 b 367 290 150 331 237 307 b 432 283 380 288 401 286 b 499 274 463 279 485 276 b 580 252 538 268 566 261 b 601 214 594 243 601 231 b 556 156 601 189 586 170 b 424 136 525 143 481 136 b 245 169 358 136 298 147 b 106 265 192 191 145 223 l -6 138 b 168 26 35 90 93 53 b 415 -15 243 -2 325 -15 z m 379 -165 b 358 -199 376 -181 369 -192 b 307 -210 347 -206 330 -210 l 307 -287 b 450 -246 368 -287 416 -274 b 501 -126 484 -218 501 -178 l 501 -47 l 307 -47 l 307 -165 z "},"Ț":{"ha":1136,"x_min":0,"x_max":0,"o":"m 1111 997 l 25 997 l 25 821 l 465 821 l 465 0 l 671 0 l 671 821 l 1111 821 z m 543 -165 b 522 -199 540 -181 533 -192 b 471 -210 511 -206 494 -210 l 471 -287 b 614 -246 532 -287 580 -274 b 665 -126 648 -218 665 -178 l 665 -47 l 471 -47 l 471 -165 z "},"ț":{"ha":726,"x_min":0,"x_max":0,"o":"m 471 -10 b 594 1 511 -10 552 -6 b 707 32 636 9 674 19 l 674 192 b 588 168 641 181 613 173 b 514 161 563 163 538 161 b 399 188 460 161 422 170 b 365 276 377 206 365 236 l 365 568 l 676 568 l 676 731 l 365 731 l 365 939 l 174 939 l 174 731 l -1 731 l -1 568 l 174 568 l 174 244 b 251 56 174 162 199 99 b 471 -10 302 12 375 -10 z m 389 -165 b 368 -199 386 -181 379 -192 b 317 -210 357 -206 340 -210 l 317 -287 b 460 -246 378 -287 425 -274 b 511 -126 494 -218 511 -178 l 511 -47 l 317 -47 l 317 -165 z "},"ȷ":{"ha":343,"x_min":0,"x_max":0,"o":"m -54 -101 b -108 -97 -74 -101 -91 -100 b -168 -83 -124 -94 -144 -90 l -197 -235 b -123 -253 -178 -242 -153 -248 b -40 -260 -93 -257 -65 -260 b 191 -187 62 -260 139 -236 b 269 25 243 -139 269 -69 l 269 731 l 75 731 l 75 21 b 45 -72 75 -22 65 -53 b -54 -101 25 -92 -8 -101 z "},"ˆ":{"ha":833,"x_min":0,"x_max":0,"o":"m 318 997 l 139 796 l 290 796 l 417 876 l 543 796 l 694 796 l 515 997 z "},"ˇ":{"ha":833,"x_min":0,"x_max":0,"o":"m 694 997 l 543 997 l 417 917 l 290 997 l 139 997 l 318 796 l 515 796 z "},"˘":{"ha":833,"x_min":0,"x_max":0,"o":"m 417 919 b 326 940 378 919 348 926 b 290 997 305 953 293 972 l 157 997 b 226 846 158 932 181 882 b 417 792 272 810 335 792 b 607 846 498 792 562 810 b 676 997 652 882 675 932 l 543 997 b 507 940 540 972 528 953 b 417 919 486 926 456 919 z "},"˙":{"ha":833,"x_min":0,"x_max":0,"o":"m 517 817 l 517 997 l 317 997 l 317 817 z "},"˚":{"ha":833,"x_min":0,"x_max":0,"o":"m 417 779 b 530 823 462 779 500 794 b 575 931 560 852 575 888 b 530 1037 575 972 560 1008 b 417 1081 500 1066 462 1081 b 303 1037 371 1081 334 1066 b 258 931 273 1008 258 972 b 303 823 258 888 273 852 b 417 779 334 794 371 779 z m 417 993 b 460 974 433 993 448 987 b 478 931 472 962 478 947 b 460 886 478 913 472 898 b 417 868 449 874 434 868 b 373 886 399 868 384 874 b 356 931 361 898 356 913 b 374 974 356 947 362 962 b 417 993 386 987 400 993 z "},"˛":{"ha":833,"x_min":0,"x_max":0,"o":"m 426 -256 b 473 -253 440 -256 456 -255 b 531 -244 490 -251 509 -248 l 531 -131 b 497 -137 519 -133 508 -135 b 461 -139 485 -138 473 -139 b 399 -127 435 -139 415 -135 b 376 -96 384 -119 376 -109 b 413 -47 376 -78 389 -62 b 531 0 438 -32 477 -17 l 474 65 b 303 -15 400 46 343 19 b 244 -132 264 -50 244 -88 b 295 -222 244 -169 261 -199 b 426 -256 329 -244 373 -256 z "},"˜":{"ha":833,"x_min":0,"x_max":0,"o":"m 300 1008 b 193 951 256 1008 220 989 b 149 796 166 913 151 862 l 268 796 b 288 850 273 821 279 839 b 321 867 296 861 307 867 b 350 862 330 867 340 865 b 397 839 360 859 376 851 b 472 804 428 821 453 810 b 532 796 492 799 512 796 b 639 853 576 796 612 815 b 683 1008 666 891 681 943 l 564 1008 b 544 954 559 983 553 965 b 511 938 536 943 525 938 b 481 943 502 938 492 939 b 435 965 471 947 455 954 b 360 1000 404 983 379 994 b 300 1008 340 1006 320 1008 z "},"˝":{"ha":833,"x_min":0,"x_max":0,"o":"m 540 796 l 736 997 l 522 997 l 393 796 z m 244 796 l 439 997 l 226 997 l 97 796 z "},"̀":{"ha":0,"x_min":0,"x_max":0,"o":"m 53 997 l -197 997 l 33 796 l 197 796 z "},"́":{"ha":0,"x_min":0,"x_max":0,"o":"m -33 796 l 197 997 l -53 997 l -197 796 z "},"̂":{"ha":0,"x_min":0,"x_max":0,"o":"m -99 997 l -278 796 l -126 796 l 0 876 l 126 796 l 278 796 l 99 997 z "},"̃":{"ha":0,"x_min":0,"x_max":0,"o":"m -115 1008 b -222 951 -160 1008 -195 989 b -267 796 -249 913 -264 862 l -147 796 b -128 850 -143 821 -136 839 b -94 867 -119 861 -108 867 b -65 862 -85 867 -75 865 b -18 839 -55 859 -39 851 b 57 804 13 821 38 810 b 117 796 76 799 96 796 b 224 853 161 796 197 815 b 268 1008 250 891 265 943 l 149 1008 b 129 954 144 983 138 965 b 96 938 121 943 110 938 b 66 943 87 938 77 939 b 19 965 55 947 40 954 b -56 1000 -11 983 -36 994 b -115 1008 -75 1006 -95 1008 z "},"̄":{"ha":0,"x_min":0,"x_max":0,"o":"m 254 967 l -254 967 l -254 819 l 254 819 z "},"̆":{"ha":0,"x_min":0,"x_max":0,"o":"m 0 919 b -90 940 -39 919 -69 926 b -126 997 -112 953 -124 972 l -260 997 b -190 846 -259 932 -236 882 b 0 792 -145 810 -81 792 b 190 846 81 792 145 810 b 260 997 236 882 259 932 l 126 997 b 90 940 124 972 112 953 b 0 919 69 926 39 919 z "},"̇":{"ha":0,"x_min":0,"x_max":0,"o":"m 100 817 l 100 997 l -100 997 l -100 817 z "},"̈":{"ha":0,"x_min":0,"x_max":0,"o":"m -71 817 l -71 997 l -271 997 l -271 817 z m 271 817 l 271 997 l 71 997 l 71 817 z "},"̊":{"ha":0,"x_min":0,"x_max":0,"o":"m 0 779 b 113 823 45 779 83 794 b 158 931 143 852 158 888 b 113 1037 158 972 143 1008 b 0 1081 83 1066 45 1081 b -113 1037 -45 1081 -83 1066 b -158 931 -143 1008 -158 972 b -113 823 -158 888 -143 852 b 0 779 -83 794 -45 779 z m 0 993 b 43 974 17 993 31 987 b 61 931 55 962 61 947 b 44 886 61 913 55 898 b 0 868 32 874 18 868 b -44 886 -18 868 -32 874 b -61 931 -55 898 -61 913 b -43 974 -61 947 -55 962 b 0 993 -31 987 -17 993 z "},"̋":{"ha":0,"x_min":0,"x_max":0,"o":"m 124 796 l 319 997 l 106 997 l -24 796 z m -172 796 l 22 997 l -190 997 l -319 796 z "},"̌":{"ha":0,"x_min":0,"x_max":0,"o":"m 278 997 l 126 997 l 0 917 l -126 997 l -278 997 l -99 796 l 99 796 z "},"̕":{"ha":0,"x_min":0,"x_max":0,"o":"m 8 767 l 124 997 l -89 997 l -124 767 z "},"̧":{"ha":0,"x_min":0,"x_max":0,"o":"m 193 -139 b 151 -62 193 -107 179 -82 b 39 -29 124 -42 86 -31 l 53 17 l -40 17 l -72 -89 b 31 -99 -23 -90 11 -93 b 61 -128 51 -105 61 -115 b 42 -153 61 -139 55 -147 b -12 -161 30 -158 12 -161 b -78 -151 -37 -161 -59 -158 b -133 -122 -98 -145 -117 -135 l -193 -211 b -112 -248 -173 -227 -146 -239 b -4 -261 -79 -257 -43 -261 b 138 -228 54 -261 102 -250 b 193 -139 175 -206 193 -176 z "},"̨":{"ha":0,"x_min":0,"x_max":0,"o":"m 39 -256 b 85 -253 53 -256 68 -255 b 143 -244 103 -251 122 -248 l 143 -131 b 109 -137 132 -133 121 -135 b 74 -139 97 -138 86 -139 b 12 -127 48 -139 27 -135 b -11 -96 -3 -119 -11 -109 b 26 -47 -11 -78 1 -62 b 143 0 50 -32 89 -17 l 86 65 b -84 -15 12 46 -45 19 b -143 -132 -123 -50 -143 -88 b -92 -222 -143 -169 -126 -199 b 39 -256 -59 -244 -15 -256 z "},"Ẁ":{"ha":1642,"x_min":0,"x_max":0,"o":"m 467 225 l 204 997 l -10 997 l 339 0 l 575 0 l 821 763 l 1064 0 l 1301 0 l 1650 997 l 1440 997 l 1178 225 l 929 997 l 717 997 z m 758 1264 l 482 1264 l 746 1054 l 921 1054 z "},"ẁ":{"ha":1279,"x_min":0,"x_max":0,"o":"m 386 236 l 204 731 l -3 731 l 286 0 l 461 0 l 640 486 l 819 0 l 994 0 l 1282 731 l 1082 731 l 904 236 l 729 731 l 560 731 z m 590 997 l 340 997 l 571 796 l 735 796 z "},"Ẃ":{"ha":1642,"x_min":0,"x_max":0,"o":"m 467 225 l 204 997 l -10 997 l 339 0 l 575 0 l 821 763 l 1064 0 l 1301 0 l 1650 997 l 1440 997 l 1178 225 l 929 997 l 717 997 z m 906 1054 l 1169 1264 l 893 1264 l 731 1054 z "},"ẃ":{"ha":1279,"x_min":0,"x_max":0,"o":"m 386 236 l 204 731 l -3 731 l 286 0 l 461 0 l 640 486 l 819 0 l 994 0 l 1282 731 l 1082 731 l 904 236 l 729 731 l 560 731 z m 722 796 l 953 997 l 703 997 l 558 796 z "},"Ẅ":{"ha":1642,"x_min":0,"x_max":0,"o":"m 467 225 l 204 997 l -10 997 l 339 0 l 575 0 l 821 763 l 1064 0 l 1301 0 l 1650 997 l 1440 997 l 1178 225 l 929 997 l 717 997 z m 744 1054 l 744 1238 l 544 1238 l 544 1054 z m 1097 1054 l 1097 1238 l 897 1238 l 897 1054 z "},"ẅ":{"ha":1279,"x_min":0,"x_max":0,"o":"m 386 236 l 204 731 l -3 731 l 286 0 l 461 0 l 640 486 l 819 0 l 994 0 l 1282 731 l 1082 731 l 904 236 l 729 731 l 560 731 z m 568 817 l 568 997 l 368 997 l 368 817 z m 910 817 l 910 997 l 710 997 l 710 817 z "},"Ỳ":{"ha":1178,"x_min":0,"x_max":0,"o":"m 235 997 l -14 997 l 488 424 l 488 0 l 692 0 l 692 424 l 1192 997 l 949 997 l 592 589 z m 565 1264 l 289 1264 l 553 1054 l 728 1054 z "},"ỳ":{"ha":914,"x_min":0,"x_max":0,"o":"m 917 731 l 708 731 l 464 210 l 214 731 l -3 731 l 357 18 l 350 -4 b 297 -76 338 -37 320 -60 b 203 -99 273 -91 242 -99 b 151 -92 185 -99 168 -97 b 96 -71 134 -88 115 -81 l 61 -229 b 133 -251 78 -237 102 -245 b 219 -260 164 -257 193 -260 b 408 -212 297 -260 360 -244 b 535 -51 456 -180 499 -126 z m 428 997 l 178 997 l 408 796 l 572 796 z "}," ":{"ha":139,"x_min":0,"x_max":0,"o":""},"–":{"ha":753,"x_min":0,"x_max":0,"o":"m 697 326 l 697 485 l 56 485 l 56 326 z "},"—":{"ha":1356,"x_min":0,"x_max":0,"o":"m 1300 326 l 1300 485 l 56 485 l 56 326 z "},"‘":{"ha":289,"x_min":0,"x_max":0,"o":"m 163 794 l 163 808 b 186 869 163 835 170 856 b 258 894 202 883 226 892 l 258 997 b 92 942 189 996 134 978 b 31 797 51 907 31 858 l 31 579 l 258 579 l 258 794 z "},"’":{"ha":289,"x_min":0,"x_max":0,"o":"m 126 782 l 126 768 b 103 707 126 741 119 721 b 31 682 87 693 63 685 l 31 579 b 197 634 100 580 155 598 b 258 779 238 670 258 718 l 258 997 l 31 997 l 31 782 z "},"‚":{"ha":289,"x_min":0,"x_max":0,"o":"m 126 15 l 126 1 b 103 -60 126 -25 119 -46 b 31 -85 87 -74 63 -82 l 31 -187 b 197 -133 100 -187 155 -168 b 258 13 238 -97 258 -49 l 258 231 l 31 231 l 31 15 z "},"“":{"ha":588,"x_min":0,"x_max":0,"o":"m 163 794 l 163 808 b 186 869 163 835 170 856 b 258 894 202 883 226 892 l 258 997 b 92 942 189 996 134 978 b 31 797 51 907 31 858 l 31 579 l 258 579 l 258 794 z m 463 794 l 463 808 b 486 869 463 835 470 856 b 558 894 502 883 526 892 l 558 997 b 392 942 489 996 434 978 b 331 797 351 907 331 858 l 331 579 l 558 579 l 558 794 z "},"”":{"ha":588,"x_min":0,"x_max":0,"o":"m 125 782 l 125 768 b 101 707 125 741 117 721 b 29 682 86 693 62 685 l 29 579 b 195 634 99 580 154 598 b 257 779 236 670 257 718 l 257 997 l 29 997 l 29 782 z m 425 782 l 425 768 b 401 707 425 741 417 721 b 329 682 386 693 362 685 l 329 579 b 495 634 399 580 454 598 b 557 779 536 670 557 718 l 557 997 l 329 997 l 329 782 z "},"„":{"ha":588,"x_min":0,"x_max":0,"o":"m 425 15 l 425 1 b 401 -60 425 -25 417 -46 b 329 -85 386 -74 362 -82 l 329 -187 b 495 -133 399 -187 454 -168 b 557 13 536 -97 557 -49 l 557 231 l 329 231 l 329 15 z m 125 15 l 125 1 b 101 -60 125 -25 117 -46 b 29 -85 86 -74 62 -82 l 29 -187 b 195 -133 99 -187 154 -168 b 257 13 236 -97 257 -49 l 257 231 l 29 231 l 29 15 z "},"†":{"ha":568,"x_min":0,"x_max":0,"o":"m 358 392 l 358 706 l 543 706 l 543 853 l 358 853 l 358 1025 l 210 1025 l 210 853 l 25 853 l 25 706 l 210 706 l 210 392 z "},"‡":{"ha":563,"x_min":0,"x_max":0,"o":"m 357 392 l 357 515 l 538 515 l 538 651 l 357 651 l 357 765 l 538 765 l 538 903 l 357 903 l 357 1025 l 206 1025 l 206 903 l 26 903 l 26 765 l 206 765 l 206 651 l 26 651 l 26 515 l 206 515 l 206 392 z "},"•":{"ha":603,"x_min":0,"x_max":0,"o":"m 51 404 b 124 226 51 333 75 274 b 303 156 172 179 231 156 b 480 226 373 156 432 179 b 551 404 528 274 551 333 b 481 584 551 476 528 536 b 303 656 433 632 374 656 b 123 584 231 656 171 632 b 51 404 75 536 51 476 z "},"…":{"ha":965,"x_min":0,"x_max":0,"o":"m 281 0 l 281 225 l 53 225 l 53 0 z m 597 0 l 597 225 l 369 225 l 369 0 z m 913 0 l 913 225 l 685 225 l 685 0 z "},"‹":{"ha":414,"x_min":0,"x_max":0,"o":"m 361 82 l 361 269 l 219 361 l 361 453 l 361 640 l 53 451 l 53 271 z "},"›":{"ha":414,"x_min":0,"x_max":0,"o":"m 361 451 l 53 640 l 53 453 l 194 361 l 53 269 l 53 82 l 361 271 z "},"⁄":{"ha":211,"x_min":0,"x_max":0,"o":"m -375 0 l -204 0 l 586 997 l 415 997 z "},"⁰":{"ha":708,"x_min":0,"x_max":0,"o":"m 354 436 b 584 517 447 436 523 463 b 675 722 645 572 675 640 b 584 926 675 805 645 872 b 354 1006 523 979 447 1006 b 124 926 262 1006 185 979 b 33 722 64 872 33 805 b 124 517 33 640 64 572 b 354 436 185 463 262 436 z m 354 878 b 472 835 402 878 441 863 b 517 722 502 806 517 769 b 472 608 517 675 502 637 b 354 564 441 578 402 564 b 235 608 305 564 266 578 b 190 722 205 637 190 675 b 235 835 190 769 205 806 b 354 878 266 863 305 878 z "},"⁴":{"ha":654,"x_min":0,"x_max":0,"o":"m 513 565 l 639 565 l 639 685 l 513 685 l 513 997 l 317 997 l 15 678 l 15 565 l 365 565 l 365 444 l 513 444 z m 365 875 l 365 685 l 185 685 z "},"⁵":{"ha":615,"x_min":0,"x_max":0,"o":"m 304 707 b 403 687 346 707 379 700 b 440 632 428 673 440 655 b 403 578 440 610 428 592 b 307 558 379 565 347 558 b 203 582 268 558 234 566 b 139 646 173 598 152 619 l 0 592 b 111 478 19 544 56 506 b 306 436 166 450 231 436 b 513 491 390 436 459 454 b 594 633 567 528 594 575 b 524 770 594 691 571 736 b 333 821 476 804 413 821 b 251 813 305 821 277 818 b 181 789 224 807 201 799 l 192 872 l 556 872 l 556 997 l 75 997 l 35 690 l 168 671 b 230 697 186 682 206 691 b 304 707 253 704 278 707 z "},"⁶":{"ha":679,"x_min":0,"x_max":0,"o":"m 372 1006 b 126 924 270 1006 188 978 b 33 710 64 870 33 799 b 118 510 33 626 62 560 b 347 436 175 461 251 436 b 565 490 437 436 510 454 b 649 633 621 526 649 574 b 572 766 649 687 623 731 b 376 818 521 801 456 818 b 266 803 337 818 300 813 b 182 761 232 794 204 780 b 235 849 182 795 200 825 b 369 886 270 874 315 886 b 472 867 406 886 441 880 b 549 814 504 855 529 837 l 643 903 b 533 979 616 936 580 962 b 372 1006 487 997 433 1006 z m 346 553 b 238 573 301 553 266 559 b 197 628 211 586 197 605 b 238 683 197 651 211 669 b 344 704 264 697 300 704 b 453 683 390 704 426 697 b 493 628 480 669 493 651 b 452 574 493 606 479 588 b 346 553 425 560 389 553 z "},"⁷":{"ha":615,"x_min":0,"x_max":0,"o":"m 431 872 b 281 678 365 815 315 750 b 231 444 247 607 231 529 l 392 444 b 442 674 392 530 409 606 b 600 864 476 742 529 806 l 600 997 l 15 997 l 15 769 l 144 769 l 144 872 z "},"⁸":{"ha":658,"x_min":0,"x_max":0,"o":"m 54 843 b 76 778 54 818 61 796 b 142 731 90 759 112 744 b 53 678 103 718 73 700 b 22 601 32 657 22 631 b 106 480 22 550 50 509 b 329 436 161 451 236 436 b 553 480 423 436 497 451 b 636 601 608 509 636 550 b 606 678 636 631 626 657 b 518 731 586 700 557 718 b 583 778 548 744 569 760 b 604 843 597 797 604 818 b 528 962 604 893 579 933 b 329 1006 477 991 411 1006 b 131 962 248 1006 181 991 b 54 843 80 933 54 893 z m 208 842 b 239 882 208 859 219 873 b 329 896 259 891 289 896 b 420 882 369 896 399 891 b 451 842 441 873 451 859 b 419 801 451 824 441 811 b 329 788 398 792 368 788 b 240 801 290 788 260 792 b 208 842 219 811 208 824 z m 482 613 b 442 565 482 592 469 576 b 329 549 416 554 378 549 b 217 565 280 549 243 554 b 178 613 191 576 178 592 b 217 659 178 633 191 648 b 329 675 244 670 281 675 b 442 659 377 675 415 670 b 482 613 469 648 482 633 z "},"⁹":{"ha":679,"x_min":0,"x_max":0,"o":"m 308 436 b 553 517 410 436 492 463 b 646 733 615 572 646 644 b 562 932 646 817 618 883 b 332 1006 506 981 429 1006 b 114 951 242 1006 169 988 b 31 808 58 915 31 868 b 108 677 31 756 56 712 b 304 625 159 642 225 625 b 413 639 343 625 379 630 b 497 679 446 648 474 662 b 444 592 497 646 480 617 b 311 556 409 568 365 556 b 208 574 273 556 239 562 b 132 628 177 587 151 605 l 38 540 b 147 463 64 507 101 481 b 308 436 194 445 247 436 z m 335 889 b 442 868 379 889 415 882 b 483 814 470 854 483 836 b 442 758 483 791 470 772 b 335 738 415 744 379 738 b 227 758 290 738 254 744 b 186 814 200 772 186 791 b 227 868 186 836 200 854 b 335 889 254 882 290 889 z "},"₀":{"ha":708,"x_min":0,"x_max":0,"o":"m 354 -175 b 584 -94 447 -175 523 -148 b 675 111 645 -40 675 29 b 584 315 675 194 645 261 b 354 394 523 368 447 394 b 124 315 262 394 185 368 b 33 111 64 261 33 194 b 124 -94 33 29 64 -40 b 354 -175 185 -148 262 -175 z m 354 267 b 472 224 402 267 441 252 b 517 111 502 195 517 157 b 472 -3 517 64 502 26 b 354 -47 441 -33 402 -47 b 235 -3 305 -47 266 -33 b 190 111 205 26 190 64 b 235 224 190 157 205 195 b 354 267 266 252 305 267 z "},"₁":{"ha":518,"x_min":0,"x_max":0,"o":"m 196 -39 l 18 -39 l 18 -167 l 508 -167 l 508 -39 l 350 -39 l 350 386 l 232 386 b 194 317 226 355 214 332 b 101 294 174 303 143 295 l 18 292 l 18 178 l 196 178 z "},"₂":{"ha":617,"x_min":0,"x_max":0,"o":"m 38 -167 l 592 -167 l 592 -40 l 301 -40 l 417 18 b 541 104 474 45 516 74 b 579 211 566 135 579 170 b 509 344 579 267 556 311 b 326 394 462 378 401 394 b 121 334 244 394 175 374 b 25 176 66 294 34 241 l 164 147 b 216 235 170 183 188 213 b 319 268 244 257 279 268 b 394 249 351 268 376 262 b 422 199 413 236 422 219 b 397 145 422 179 414 161 b 272 71 379 129 338 104 l 38 -57 z "},"₃":{"ha":644,"x_min":0,"x_max":0,"o":"m 621 -8 b 594 68 621 22 612 48 b 511 115 576 88 548 104 b 582 161 541 125 564 140 b 608 233 600 182 608 206 b 534 350 608 281 584 320 b 336 394 484 380 419 394 b 144 354 264 394 200 381 b 28 246 89 327 50 291 l 156 186 b 219 247 168 211 189 231 b 325 271 250 263 285 271 b 410 257 361 271 390 266 b 442 219 431 248 442 235 b 413 183 442 203 432 191 b 324 171 393 175 363 171 l 228 171 l 228 57 l 331 57 b 422 44 371 57 402 53 b 453 6 443 36 453 23 b 417 -37 453 -12 441 -26 b 325 -53 394 -47 363 -53 b 212 -27 283 -53 246 -44 b 140 42 178 -10 154 13 l 6 -19 b 126 -135 31 -69 72 -108 b 325 -175 181 -162 247 -175 b 539 -128 413 -175 484 -159 b 621 -8 594 -96 621 -56 z "},"₄":{"ha":654,"x_min":0,"x_max":0,"o":"m 513 -46 l 639 -46 l 639 74 l 513 74 l 513 386 l 317 386 l 15 67 l 15 -46 l 365 -46 l 365 -167 l 513 -167 z m 365 264 l 365 74 l 185 74 z "},"₅":{"ha":615,"x_min":0,"x_max":0,"o":"m 304 96 b 403 76 346 96 379 89 b 440 21 428 62 440 44 b 403 -33 440 -1 428 -19 b 307 -53 379 -46 347 -53 b 203 -29 268 -53 234 -45 b 139 35 173 -13 152 8 l 0 -19 b 111 -133 19 -68 56 -106 b 306 -175 166 -161 231 -175 b 513 -120 390 -175 459 -157 b 594 22 567 -84 594 -36 b 524 159 594 80 571 125 b 333 210 476 193 413 210 b 251 201 305 210 277 207 b 181 178 224 196 201 188 l 192 261 l 556 261 l 556 386 l 75 386 l 35 79 l 168 60 b 230 86 186 71 206 80 b 304 96 253 93 278 96 z "},"₆":{"ha":679,"x_min":0,"x_max":0,"o":"m 372 394 b 126 313 270 394 188 367 b 33 99 64 259 33 188 b 118 -101 33 15 62 -51 b 347 -175 175 -150 251 -175 b 565 -121 437 -175 510 -157 b 649 22 621 -85 649 -37 b 572 155 649 76 623 120 b 376 207 521 190 456 207 b 266 192 337 207 300 202 b 182 150 232 183 204 169 b 235 238 182 184 200 214 b 369 275 270 263 315 275 b 472 256 406 275 441 269 b 549 203 504 244 529 226 l 643 292 b 533 368 616 325 580 350 b 372 394 487 386 433 394 z m 346 -58 b 238 -38 301 -58 266 -52 b 197 17 211 -25 197 -6 b 238 72 197 40 211 58 b 344 93 264 86 300 93 b 453 72 390 93 426 86 b 493 17 480 58 493 40 b 452 -37 493 -6 479 -24 b 346 -58 425 -51 389 -58 z "},"₇":{"ha":615,"x_min":0,"x_max":0,"o":"m 431 261 b 281 67 365 204 315 139 b 231 -167 247 -4 231 -82 l 392 -167 b 442 63 392 -81 409 -5 b 600 253 476 131 529 194 l 600 386 l 15 386 l 15 158 l 144 158 l 144 261 z "},"₈":{"ha":658,"x_min":0,"x_max":0,"o":"m 54 232 b 76 167 54 207 61 185 b 142 119 90 148 112 132 b 53 67 103 106 73 89 b 22 -10 32 46 22 20 b 106 -131 22 -62 50 -102 b 329 -175 161 -160 236 -175 b 553 -131 423 -175 497 -160 b 636 -10 608 -102 636 -62 b 606 67 636 20 626 46 b 518 119 586 89 557 106 b 583 167 548 133 569 149 b 604 232 597 185 604 207 b 528 351 604 282 579 322 b 329 394 477 380 411 394 b 131 351 248 394 181 380 b 54 232 80 322 54 282 z m 208 231 b 239 271 208 248 219 262 b 329 285 259 280 289 285 b 420 271 369 285 399 280 b 451 231 441 262 451 248 b 419 190 451 213 441 200 b 329 176 398 181 368 176 b 240 190 290 176 260 181 b 208 231 219 200 208 213 z m 482 1 b 442 -46 482 -19 469 -35 b 329 -62 416 -57 378 -62 b 217 -46 280 -62 243 -57 b 178 1 191 -35 178 -19 b 217 48 178 22 191 37 b 329 64 244 59 281 64 b 442 48 377 64 415 59 b 482 1 469 37 482 22 z "},"₉":{"ha":679,"x_min":0,"x_max":0,"o":"m 307 -175 b 552 -94 409 -175 491 -148 b 644 122 614 -40 644 32 b 560 321 644 206 616 272 b 331 394 504 370 428 394 b 113 340 241 394 168 376 b 29 197 57 304 29 256 b 106 66 29 144 55 101 b 303 14 158 31 223 14 b 411 28 342 14 378 19 b 496 68 444 37 473 50 b 443 -19 496 35 478 6 b 310 -56 408 -43 363 -56 b 206 -37 272 -56 237 -49 b 131 17 175 -24 150 -6 l 36 -71 b 146 -148 63 -104 100 -130 b 307 -175 192 -166 246 -175 z m 333 278 b 441 257 378 278 414 271 b 482 203 468 243 482 225 b 441 147 482 180 468 161 b 333 126 414 133 378 126 b 226 147 289 126 253 133 b 185 203 198 161 185 180 b 226 257 185 225 198 243 b 333 278 253 271 289 278 z "},"€":{"ha":1239,"x_min":0,"x_max":0,"o":"m 183 328 b 386 78 221 223 289 140 b 722 -15 483 16 595 -15 b 1039 66 844 -15 950 12 b 1228 292 1128 120 1191 195 l 1058 381 b 928 218 1031 310 987 256 b 718 161 870 180 800 161 b 525 205 646 161 581 176 b 394 328 469 234 425 275 l 740 328 l 769 461 l 351 461 b 350 476 350 466 350 471 l 350 499 b 351 516 350 504 350 510 b 353 542 351 522 352 531 l 788 542 l 818 674 l 396 674 b 526 794 426 725 470 766 b 718 836 583 822 647 836 b 928 779 800 836 870 817 b 1058 617 987 741 1031 687 l 1228 706 b 1039 931 1191 802 1128 877 b 722 1013 950 985 844 1013 b 388 921 596 1013 485 982 b 185 674 291 860 224 777 l 26 674 l 26 542 l 156 542 b 154 526 155 537 154 532 l 154 499 l 154 476 b 156 461 154 471 155 466 l 26 461 l 26 328 z "},"™":{"ha":1290,"x_min":0,"x_max":0,"o":"m 351 867 l 526 867 l 526 997 l 28 997 l 28 867 l 204 867 l 204 528 l 351 528 z m 1103 825 l 1103 528 l 1236 528 l 1236 997 l 1050 997 l 924 738 l 796 997 l 607 997 l 607 528 l 739 528 l 739 825 l 881 528 l 961 528 z "},"⅓":{"ha":1472,"x_min":0,"x_max":0,"o":"m 508 444 l 508 572 l 350 572 l 350 997 l 232 997 b 194 928 226 966 214 943 b 101 906 174 914 143 906 l 18 903 l 18 789 l 196 789 l 196 572 l 18 572 l 18 444 z m 240 0 l 411 0 l 1201 997 l 1031 997 z m 1447 158 b 1420 235 1447 189 1438 214 b 1338 282 1402 255 1375 271 b 1408 328 1367 291 1391 306 b 1435 400 1426 349 1435 373 b 1360 517 1435 448 1410 487 b 1163 561 1311 546 1245 561 b 971 521 1090 561 1026 548 b 854 413 915 494 876 458 l 982 353 b 1046 414 994 378 1015 398 b 1151 438 1076 430 1112 438 b 1237 424 1188 438 1216 433 b 1268 386 1258 414 1268 402 b 1239 349 1268 369 1258 357 b 1150 338 1219 341 1190 338 l 1054 338 l 1054 224 l 1157 224 b 1249 211 1198 224 1228 219 b 1279 172 1269 203 1279 190 b 1244 130 1279 155 1267 141 b 1151 114 1220 119 1189 114 b 1038 140 1110 114 1072 122 b 967 208 1004 157 981 180 l 832 147 b 953 32 858 97 898 59 b 1151 -8 1007 5 1074 -8 b 1365 39 1239 -8 1311 7 b 1447 158 1420 70 1447 110 z "},"⅔":{"ha":1549,"x_min":0,"x_max":0,"o":"m 35 444 l 589 444 l 589 571 l 299 571 l 414 629 b 538 715 471 656 513 685 b 576 822 564 746 576 781 b 506 956 576 878 553 922 b 324 1006 459 989 399 1006 b 118 945 241 1006 173 985 b 22 788 63 905 31 852 l 161 758 b 213 846 168 794 185 824 b 317 879 241 868 276 879 b 392 860 348 879 373 873 b 419 810 410 847 419 830 b 394 756 419 790 411 772 b 269 682 377 740 335 715 l 35 554 z m 317 0 l 488 0 l 1278 997 l 1107 997 z m 1525 158 b 1498 235 1525 189 1516 214 b 1415 282 1480 255 1452 271 b 1486 328 1445 291 1469 306 b 1513 400 1504 349 1513 373 b 1438 517 1513 448 1488 487 b 1240 561 1389 546 1323 561 b 1049 521 1168 561 1104 548 b 932 413 993 494 954 458 l 1060 353 b 1124 414 1072 378 1093 398 b 1229 438 1154 430 1189 438 b 1315 424 1265 438 1294 433 b 1346 386 1335 414 1346 402 b 1317 349 1346 369 1336 357 b 1228 338 1297 341 1268 338 l 1132 338 l 1132 224 l 1235 224 b 1326 211 1275 224 1306 219 b 1357 172 1347 203 1357 190 b 1322 130 1357 155 1345 141 b 1229 114 1298 119 1267 114 b 1116 140 1188 114 1150 122 b 1044 208 1082 157 1058 180 l 910 147 b 1031 32 936 97 976 59 b 1229 -8 1085 5 1151 -8 b 1443 39 1317 -8 1388 7 b 1525 158 1498 70 1525 110 z "},"⅛":{"ha":1485,"x_min":0,"x_max":0,"o":"m 508 444 l 508 572 l 350 572 l 350 997 l 232 997 b 194 928 226 966 214 943 b 101 906 174 914 143 906 l 18 903 l 18 789 l 196 789 l 196 572 l 18 572 l 18 444 z m 240 0 l 411 0 l 1201 997 l 1031 997 z m 881 399 b 902 333 881 374 888 352 b 968 286 916 315 938 299 b 879 234 929 273 900 256 b 849 157 859 212 849 187 b 932 35 849 105 876 65 b 1156 -8 988 6 1062 -8 b 1379 35 1249 -8 1324 6 b 1463 157 1435 65 1463 105 b 1433 234 1463 187 1453 212 b 1344 286 1413 256 1383 273 b 1410 334 1374 300 1396 316 b 1431 399 1424 352 1431 374 b 1354 517 1431 449 1405 488 b 1156 561 1303 547 1237 561 b 957 517 1074 561 1008 547 b 881 399 906 488 881 449 z m 1035 397 b 1065 438 1035 415 1045 428 b 1156 451 1086 447 1116 451 b 1247 438 1195 451 1226 447 b 1278 397 1267 428 1278 415 b 1246 357 1278 380 1267 366 b 1156 343 1225 348 1194 343 b 1066 357 1117 343 1087 348 b 1035 397 1045 366 1035 380 z m 1308 168 b 1269 121 1308 148 1295 132 b 1156 104 1242 110 1205 104 b 1043 121 1106 104 1069 110 b 1004 168 1017 132 1004 148 b 1044 215 1004 188 1017 204 b 1156 231 1070 225 1107 231 b 1268 215 1204 231 1241 225 b 1308 168 1295 204 1308 188 z "},"⅜":{"ha":1515,"x_min":0,"x_max":0,"o":"m 621 603 b 594 679 621 633 612 659 b 511 726 576 700 548 715 b 582 772 541 736 564 751 b 608 844 600 794 608 818 b 534 961 608 893 584 931 b 336 1006 484 991 419 1006 b 144 965 264 1006 200 992 b 28 857 89 938 50 902 l 156 797 b 219 858 168 822 189 843 b 325 882 250 874 285 882 b 410 868 361 882 390 877 b 442 831 431 859 442 846 b 413 794 442 814 432 802 b 324 782 393 786 363 782 l 228 782 l 228 668 l 331 668 b 422 656 371 668 402 664 b 453 617 443 647 453 634 b 417 574 453 599 441 585 b 325 558 394 564 363 558 b 212 584 283 558 246 567 b 140 653 178 601 154 624 l 6 592 b 126 476 31 542 72 503 b 325 436 181 450 247 436 b 539 483 413 436 484 452 b 621 603 594 515 621 555 z m 269 0 l 440 0 l 1231 997 l 1060 997 z m 911 399 b 933 333 911 374 918 352 b 999 286 947 315 969 299 b 910 234 960 273 930 256 b 879 157 889 212 879 187 b 963 35 879 105 907 65 b 1186 -8 1018 6 1093 -8 b 1410 35 1280 -8 1354 6 b 1493 157 1465 65 1493 105 b 1463 234 1493 187 1483 212 b 1375 286 1443 256 1414 273 b 1440 334 1405 300 1426 316 b 1461 399 1454 352 1461 374 b 1385 517 1461 449 1436 488 b 1186 561 1334 547 1268 561 b 988 517 1105 561 1038 547 b 911 399 937 488 911 449 z m 1065 397 b 1096 438 1065 415 1075 428 b 1186 451 1116 447 1146 451 b 1277 438 1226 451 1256 447 b 1308 397 1298 428 1308 415 b 1276 357 1308 380 1298 366 b 1186 343 1255 348 1225 343 b 1097 357 1147 343 1117 348 b 1065 397 1076 366 1065 380 z m 1339 168 b 1299 121 1339 148 1326 132 b 1186 104 1273 110 1235 104 b 1074 121 1137 104 1100 110 b 1035 168 1048 132 1035 148 b 1074 215 1035 188 1048 204 b 1186 231 1101 225 1138 231 b 1299 215 1234 231 1272 225 b 1339 168 1325 204 1339 188 z "},"⅝":{"ha":1486,"x_min":0,"x_max":0,"o":"m 304 707 b 403 687 346 707 379 700 b 440 632 428 673 440 655 b 403 578 440 610 428 592 b 307 558 379 565 347 558 b 203 582 268 558 234 566 b 139 646 173 598 152 619 l 0 592 b 111 478 19 544 56 506 b 306 436 166 450 231 436 b 513 491 390 436 459 454 b 594 633 567 528 594 575 b 524 770 594 691 571 736 b 333 821 476 804 413 821 b 251 813 305 821 277 818 b 181 789 224 807 201 799 l 192 872 l 556 872 l 556 997 l 75 997 l 35 690 l 168 671 b 230 697 186 682 206 691 b 304 707 253 704 278 707 z m 240 0 l 411 0 l 1201 997 l 1031 997 z m 882 399 b 903 333 882 374 889 352 b 969 286 918 315 940 299 b 881 234 931 273 901 256 b 850 157 860 212 850 187 b 933 35 850 105 878 65 b 1157 -8 989 6 1063 -8 b 1381 35 1250 -8 1325 6 b 1464 157 1436 65 1464 105 b 1434 234 1464 187 1454 212 b 1346 286 1414 256 1385 273 b 1411 334 1375 300 1397 316 b 1432 399 1425 352 1432 374 b 1356 517 1432 449 1406 488 b 1157 561 1305 547 1238 561 b 958 517 1075 561 1009 547 b 882 399 907 488 882 449 z m 1036 397 b 1067 438 1036 415 1046 428 b 1157 451 1087 447 1117 451 b 1248 438 1197 451 1227 447 b 1279 397 1269 428 1279 415 b 1247 357 1279 380 1269 366 b 1157 343 1226 348 1196 343 b 1067 357 1118 343 1088 348 b 1036 397 1047 366 1036 380 z m 1310 168 b 1270 121 1310 148 1297 132 b 1157 104 1244 110 1206 104 b 1044 121 1108 104 1070 110 b 1006 168 1019 132 1006 148 b 1045 215 1006 188 1019 204 b 1157 231 1072 225 1109 231 b 1269 215 1205 231 1243 225 b 1310 168 1296 204 1310 188 z "},"⅞":{"ha":1439,"x_min":0,"x_max":0,"o":"m 431 872 b 281 678 365 815 315 750 b 231 444 247 607 231 529 l 392 444 b 442 674 392 530 409 606 b 600 864 476 742 529 806 l 600 997 l 15 997 l 15 769 l 144 769 l 144 872 z m 193 0 l 364 0 l 1154 997 l 983 997 z m 835 399 b 856 333 835 374 842 352 b 922 286 871 315 893 299 b 833 234 883 273 854 256 b 803 157 813 212 803 187 b 886 35 803 105 831 65 b 1110 -8 942 6 1016 -8 b 1333 35 1203 -8 1278 6 b 1417 157 1389 65 1417 105 b 1387 234 1417 187 1407 212 b 1299 286 1367 256 1338 273 b 1364 334 1328 300 1350 316 b 1385 399 1378 352 1385 374 b 1308 517 1385 449 1359 488 b 1110 561 1257 547 1191 561 b 911 517 1028 561 962 547 b 835 399 860 488 835 449 z m 989 397 b 1019 438 989 415 999 428 b 1110 451 1040 447 1070 451 b 1201 438 1150 451 1180 447 b 1232 397 1222 428 1232 415 b 1200 357 1232 380 1221 366 b 1110 343 1179 348 1149 343 b 1020 357 1071 343 1041 348 b 989 397 999 366 989 380 z m 1263 168 b 1223 121 1263 148 1249 132 b 1110 104 1197 110 1159 104 b 997 121 1061 104 1023 110 b 958 168 971 132 958 148 b 998 215 958 188 972 204 b 1110 231 1024 225 1062 231 b 1222 215 1158 231 1195 225 b 1263 168 1249 204 1263 188 z "},"−":{"ha":1111,"x_min":0,"x_max":0,"o":"m 1028 408 l 1028 575 l 83 575 l 83 408 z "},"":{"ha":833,"x_min":0,"x_max":0,"o":"m 390 -165 b 369 -199 388 -181 381 -192 b 318 -210 358 -206 341 -210 l 318 -287 b 461 -246 379 -287 427 -274 b 513 -126 495 -218 513 -178 l 513 -47 l 318 -47 l 318 -165 z "},"ﬀ":{"ha":1204,"x_min":0,"x_max":0,"o":"m 504 1013 b 257 944 396 1013 313 990 b 172 743 200 898 172 831 l 172 731 l -3 731 l -3 568 l 172 568 l 172 0 l 364 0 l 364 568 l 719 568 l 719 0 l 911 0 l 911 568 l 1189 568 l 1189 731 l 910 731 l 910 738 b 945 820 910 775 922 803 b 1058 846 969 837 1006 846 b 1128 842 1084 846 1108 844 b 1197 828 1149 839 1172 834 l 1226 988 b 1148 1006 1206 995 1180 1001 b 1051 1013 1116 1010 1084 1013 b 804 944 943 1013 861 990 b 719 743 748 898 719 831 l 719 731 l 363 731 l 363 738 b 398 820 363 775 374 803 b 511 846 422 837 459 846 b 580 842 537 846 560 845 b 646 829 600 840 622 836 l 674 989 b 599 1006 654 996 629 1002 b 504 1013 569 1010 538 1013 z "},"ﬁ":{"ha":1011,"x_min":0,"x_max":0,"o":"m 504 1013 b 257 944 396 1013 313 990 b 172 743 200 898 172 831 l 172 731 l -3 731 l -3 568 l 172 568 l 172 0 l 364 0 l 364 568 l 625 568 l 625 731 l 363 731 l 363 738 b 398 820 363 775 374 803 b 511 846 422 837 459 846 b 573 843 535 846 556 845 b 626 833 590 841 608 838 l 660 993 b 589 1008 640 1000 617 1004 b 504 1013 561 1011 533 1013 z m 915 817 l 915 997 l 717 997 l 717 817 z m 719 731 l 719 0 l 914 0 l 914 731 z "},"ﬂ":{"ha":1011,"x_min":0,"x_max":0,"o":"m 504 1013 b 257 944 396 1013 313 990 b 172 743 200 898 172 831 l 172 731 l -3 731 l -3 568 l 172 568 l 172 0 l 364 0 l 364 568 l 625 568 l 625 731 l 363 731 l 363 738 b 398 820 363 775 374 803 b 511 846 422 837 459 846 b 573 843 535 846 556 845 b 626 833 590 841 608 838 l 660 993 b 589 1008 640 1000 617 1004 b 504 1013 561 1011 533 1013 z m 719 997 l 719 0 l 914 0 l 914 997 z "},"ﬃ":{"ha":1535,"x_min":0,"x_max":0,"o":"m 504 1013 b 257 944 396 1013 313 990 b 172 743 200 898 172 831 l 172 731 l -3 731 l -3 568 l 172 568 l 172 0 l 364 0 l 364 568 l 719 568 l 719 0 l 911 0 l 911 568 l 1172 568 l 1172 731 l 910 731 l 910 738 b 945 820 910 775 922 803 b 1058 846 969 837 1006 846 b 1120 843 1082 846 1103 845 b 1174 833 1137 841 1155 838 l 1207 993 b 1136 1008 1188 1000 1164 1004 b 1051 1013 1108 1011 1080 1013 b 804 944 943 1013 861 990 b 719 743 748 898 719 831 l 719 731 l 363 731 l 363 738 b 398 820 363 775 374 803 b 511 846 422 837 459 846 b 580 842 537 846 560 845 b 646 829 600 840 622 836 l 674 989 b 599 1006 654 996 629 1002 b 504 1013 569 1010 538 1013 z m 1463 817 l 1463 997 l 1264 997 l 1264 817 z m 1267 731 l 1267 0 l 1461 0 l 1461 731 z "},"ﬄ":{"ha":1535,"x_min":0,"x_max":0,"o":"m 504 1013 b 257 944 396 1013 313 990 b 172 743 200 898 172 831 l 172 731 l -3 731 l -3 568 l 172 568 l 172 0 l 364 0 l 364 568 l 719 568 l 719 0 l 911 0 l 911 568 l 1172 568 l 1172 731 l 910 731 l 910 738 b 945 820 910 775 922 803 b 1058 846 969 837 1006 846 b 1120 843 1082 846 1103 845 b 1174 833 1137 841 1155 838 l 1207 993 b 1136 1008 1188 1000 1164 1004 b 1051 1013 1108 1011 1080 1013 b 804 944 943 1013 861 990 b 719 743 748 898 719 831 l 719 731 l 363 731 l 363 738 b 398 820 363 775 374 803 b 511 846 422 837 459 846 b 580 842 537 846 560 845 b 646 829 600 840 622 836 l 674 989 b 599 1006 654 996 629 1002 b 504 1013 569 1010 538 1013 z m 1267 997 l 1267 0 l 1461 0 l 1461 997 z "}}}
